<svg xmlns="http://www.w3.org/2000/svg" xmlns:xlink="http://www.w3.org/1999/xlink" viewBox="0 0 650 230"><defs><style>.cls-1{fill:none;}.cls-2{clip-path:url(#clip-path);}.cls-3{fill:#659556;}.cls-4{fill:#f8b517;}.cls-5{fill:#2b678e;}.cls-6{fill:#e8565a;}.cls-7{fill:#e3c6d2;opacity:0.5;}.cls-8{fill:#fff;}</style><clipPath id="clip-path"><rect class="cls-1" width="650" height="230"/></clipPath></defs><g id="ARTWORK"><g class="cls-2"><circle class="cls-3" cx="647.28" cy="242.36" r="283.93"/><circle class="cls-4" cx="421.46" cy="-130.79" r="283.93"/><circle class="cls-5" cx="138.41" cy="242.36" r="283.93"/><circle class="cls-6" cx="390.72" cy="410.16" r="283.93"/><path class="cls-7" d="M-95.94,8A176,176,0,0,1-134.5,3.61c-6.68-1.55-11.27-4.66-13.64-9.26-5.67-11,1.8-29,8.39-44.94,3.23-7.79,6.28-15.15,7.61-21.14,2.35-16.51.62-31.81-5.47-48.12a188.62,188.62,0,0,1-6.73-22.92,152.62,152.62,0,0,1-2.76-48.92l.3,0-.3,0a141,141,0,0,1,4.71-24.52c32.09-64.68,106.4-81.68,172-96.68l9.15-2.1c11.43-2.86,34-7.75,56.9-8.38,23.41-.66,40.25,3.32,50.07,11.8,7.65,6.62,10.93,16,9.74,27.93-.86,12.08.32,24.93,1.46,37.36,2.34,25.6,4.56,49.78-9.27,68.79-34.11,49.12-72,99.61-117.69,136.11C4.93-21.42-20.6-7.36-46,.41A170.22,170.22,0,0,1-95.94,8Zm196-330.74c-19.57,0-41.63,3.49-61.19,8.38l-9.16,2.1c-65.43,15-139.59,31.94-171.54,96.32a141,141,0,0,0-4.67,24.36h0a152.32,152.32,0,0,0,2.75,48.73A188.63,188.63,0,0,0-137-120.06c6.12,16.41,7.87,31.8,5.49,48.44-1.34,6.06-4.4,13.44-7.64,21.26-6.54,15.79-14,33.68-8.41,44.43,2.32,4.5,6.65,7.43,13.24,9A176.51,176.51,0,0,0-95.56,7.43C-53,7.44-11.74-8.86,29.55-41.84c45.66-36.46,83.5-86.91,117.59-136,13.69-18.83,11.49-42.9,9.15-68.39-1.14-12.45-2.32-25.32-1.45-37.47,1.17-11.71-2-20.93-9.55-27.41C135.57-319.52,119-322.79,100.05-322.79Z"/><path class="cls-7" d="M-95,34.41c-3.11,0-6.2-.1-9.27-.32-30.34-2.11-53.07-14.83-64-35.81-7.81-13-1.88-30.19,4.39-48.37s13.33-38.65,7.85-58.29a202.74,202.74,0,0,1-8.32-25.86,174.43,174.43,0,0,1-4.42-55.69,163.42,163.42,0,0,1,4.7-28l0-.08c17.26-30.24,43.59-53.83,80.52-72.12C-51-306.3-14.75-316.33,20.32-326c11.78-3.25,22.9-6.33,33.9-9.63,34.68-10.95,82.64-14.43,111.62,2.5,12.56,7.34,20.37,17.88,23.2,31.34,6.71,33.53-1.13,76.22-23.29,126.87C150.86-134.77,119.36-109.52,86-82.8,61.92-63.5,37-43.54,18.35-17.2-3.34,13.17-50.8,34.41-95,34.41Zm-73.48-224.32.3,0a173.53,173.53,0,0,0,4.4,55.5,204.07,204.07,0,0,0,8.3,25.82c5.55,19.83-1.57,40.46-7.85,58.66S-175.47-14.8-167.79-2c10.85,20.8,33.41,33.4,63.53,35.51q4.59.31,9.24.31c44.05,0,91.3-21.13,112.88-51.35,18.71-26.41,43.65-46.4,67.77-65.73,33.29-26.67,64.73-51.86,79.57-91.92,22.11-50.55,29.94-93.11,23.26-126.52-2.8-13.28-10.51-23.7-22.92-31C136.72-349.49,89-346,54.39-335.1c-11,3.3-22.13,6.38-33.91,9.64-68.22,18.87-145.55,40.27-184,107.66a161.91,161.91,0,0,0-4.67,27.92Z"/><path class="cls-7" d="M-81.19,43.86c-36.29,0-73.6-5.44-107.6-11.81-7.82-2.61-10.58-12.93-10.58-21,2.83-11.37,6.86-22.63,10.77-33.51,10.71-29.89,20.83-58.11,8.68-88.6a193.76,193.76,0,0,1-6.88-24.68,196.81,196.81,0,0,1-3.71-52.45A196.71,196.71,0,0,1-187-214.61l0-.08C-142.45-297.5-42.94-326.76,44.85-352.58c10.43-3.06,20.28-6,30.05-8.94,24.43-7.72,53.19-6.69,81,2.91,28.77,9.93,53.38,28.22,69.31,51.5,5.28,5.27,5.3,15.66,0,23.6C208.93-264,204.91-241.1,201-219c-2.28,13-4.63,26.36-9.42,38.81-14.37,35.93-44.34,59-76.08,83.32-13.6,10.45-27.66,21.26-40.34,33.14-8,9.33-9,21.28-10,32.85C64.23-20.38,63.37-10.5,57.1-4.23,22,32.41-28.53,43.86-81.19,43.86Zm-108.73-232a196,196,0,0,0,3.71,52.29,195.15,195.15,0,0,0,6.84,24.59c12.24,30.69,2.08,59-8.67,89-3.9,10.87-7.93,22.11-10.75,33.38,0,7.78,2.67,17.84,10.15,20.33C-105.5,47.06-2.45,57.05,56.67-4.65c6.13-6.12,7-15.9,7.88-26.25,1-11.65,2.07-23.7,10.21-33.2C87.48-76,101.56-86.84,115.17-97.3c31.67-24.32,61.58-47.29,75.89-83.07,4.77-12.39,7.11-25.76,9.38-38.69,3.9-22.22,7.93-45.19,24.28-64.8,5-7.57,5.05-17.84,0-22.87-32-46.81-97.75-70.61-149.65-54.22C65.3-358,55.45-355.07,45-352c-87.66,25.78-187,55-231.49,137.55a196.53,196.53,0,0,0-3.45,26.32Z"/><path class="cls-7" d="M-146.89,58.34a161,161,0,0,1-17.26-.85c-24.67-2.64-41.25-11.86-50.7-28.17-8.66-17.33-.87-37,7.38-57.82,9.27-23.39,18.85-47.57,7.95-72.35a283.15,283.15,0,0,1-7.74-27.4,218.35,218.35,0,0,1-5-58.16l.3,0-.3,0a209.4,209.4,0,0,1,3.5-29.41l0-.08c23.88-49.71,73.84-73.09,122.16-95.7,17.74-8.3,36.08-16.88,52.79-26.63,9.07-5.67,15.62-13.81,22-21.69,8-10,15.59-19.38,27.25-22.29,59.21-16.15,134.25-6.73,182.49,22.89,28.95,17.78,47.33,42.13,53.15,70.41,3.09,18.55-7.58,38.91-18.87,60.46-7.73,14.74-15.73,30-19.91,45.69-5.12,10.24-10.39,20.78-18.18,28.57-8.8,9.32-18.26,18.36-27.42,27.11C130.4-92.39,92.86-56.52,90.8,3.32c-1.14,19.32-18,32.79-50,40-26.62,6-59.27,6.79-84.74,6.79-14.86,0-31.4,1.92-48.92,3.94C-111,56.19-129.6,58.34-146.89,58.34Zm-61.25-274a207.7,207.7,0,0,0-3.48,29.29,217.16,217.16,0,0,0,5,58,282.27,282.27,0,0,0,7.7,27.32c11,25,1.37,49.28-7.94,72.78-8.2,20.7-16,40.24-7.41,57.32,13.1,22.63,38.1,28.74,67.1,28.75,17.23,0,35.87-2.16,54.29-4.29,17.53-2,34.09-3.94,49-3.94,25.44,0,58.05-.78,84.61-6.78C72.42,35.59,89.08,22.31,90.2,3.3c.93-27,9.08-51.38,24.9-74.64,14.12-20.75,33-38.76,51.2-56.17,9.15-8.74,18.61-17.78,27.4-27.1,7.73-7.72,13-18.22,18.05-28.36,4.18-15.71,12.19-31,19.94-45.76,11.25-21.46,21.87-41.73,18.82-60.07-5.79-28.11-24.08-52.32-52.88-70-48.11-29.55-123-38.93-182-22.82-11.47,2.86-19,12.2-26.93,22.08-6.37,7.92-12.95,16.11-22.12,21.83-16.73,9.77-35.09,18.36-52.84,26.66C-134.5-288.5-184.35-265.16-208.14-215.67Z"/><path class="cls-7" d="M-79.56,79.3C-142,79.3-196,63.65-232.87,34.57c-9.67-8.45-3.72-28.23,3.18-51.13,8-26.73,18.05-60,6.75-86.93a237,237,0,0,1-6.68-26.12,240,240,0,0,1-4.3-55,229.73,229.73,0,0,1,2.7-27.84c6.37-21.87,19.68-40.13,40.69-55.85,18.73-14,41.77-24.8,64.06-35.24,23.28-10.9,47.36-22.17,66.83-37.21,7.57-6.31,10.19-16.45,12.72-26.26,2.67-10.37,5.2-20.16,13.15-25.46,24.39-20.91,55.12-28.55,93.93-23.32,33.53,4.51,68.2,18.23,97.68,31.05,4.83,2,10,4.13,15.48,6.35,24.51,9.92,55,22.28,77.05,38.63,25.85,19.17,35.38,40.09,29.16,64-7.42,26-22.53,50.16-38.53,75.78-6.15,9.85-12.51,20-18.38,30.3-12.53,18.22-29.11,32-45.15,45.29-20.76,17.24-40.38,33.52-50.5,58.09-4.11,12.34.49,25.64,4.94,38.49C138.69-8.3,145.1,10.2,121.68,24.25,70.84,56,3.76,76-62.35,78.92-68.15,79.17-73.9,79.3-79.56,79.3ZM-233.62-184.64h.3A240,240,0,0,0-229-129.72a238.7,238.7,0,0,0,6.66,26c11.38,27.1,1.33,60.48-6.74,87.3-6.83,22.7-12.74,42.31-3.37,50.51,40.13,31.61,100.55,47.32,170.11,44.2,66-3,133-22.85,183.75-54.57,23-13.81,16.68-32.09,10-51.44-4.49-12.95-9.12-26.34-4.94-38.9,10.19-24.73,29.86-41,50.68-58.34,16-13.28,32.55-27,45-45.15,5.86-10.26,12.23-20.45,18.38-30.3C256.47-226,271.56-250.12,279-276c13.92-53.36-55.31-81.4-105.85-101.88-5.48-2.22-10.66-4.32-15.49-6.35-69-30-139.83-51.68-191-7.81-7.79,5.2-10.29,14.88-12.94,25.14-2.55,9.9-5.19,20.13-12.92,26.57-19.52,15.09-43.63,26.38-66.95,37.3-44.4,20.78-90.32,42.28-104.41,90.67a225.37,225.37,0,0,0-2.69,27.73Z"/><path class="cls-7" d="M-19.22,91.54c-43.92,0-89.34-6.53-133.62-12.89-29.73-4.27-57.8-8.31-85-10.4-9.14-.87-15.22-3.85-18.59-9.11-7.53-11.74.08-33.57,8.14-56.68,8-22.85,17-48.75,12.77-68.89-1-4-2-7.56-2.95-11-1.55-5.61-3-10.91-4.3-17.1a259.42,259.42,0,0,1-7.54-28.35,262.13,262.13,0,0,1-5.28-60h0a163.39,163.39,0,0,1,3.43-30.52c15.43-50.24,62.68-73.21,108.36-95.42,11.43-5.56,22.23-10.81,32.53-16.47,17.59-9.6,22.25-28.19,26.36-44.6,2.48-9.89,4.82-19.23,9.75-25.14C-54.53-420-28.56-435.23,2-440.39c26.56-4.49,57.24-1.44,91.19,9.06,65.4,20.22,131.71,64.31,175.9,95.7,9.75,6.83,41.74,31.11,44,56.94.84,9.7-2.64,18.53-10.36,26.25-4.19,5-8.36,10-12.39,14.77C269.72-213.22,250.26-190.13,233-162c-10.37,15.56-24.19,27.4-37.55,38.85S168.31-99.92,158-84.46c-.64,1.94-1.46,3.9-2.25,5.8-2.37,5.67-4.81,11.53-2.91,17.24a181.64,181.64,0,0,0,9.93,19.76c10.35,18.7,21.06,38,5.53,55.51C131.36,58.17,82.79,83,19.81,89.6A373,373,0,0,1-19.22,91.54ZM27.23-441.74c-41.82,0-76,15.73-102,47.08-4.84,5.81-7.17,15.08-9.63,24.9-4.14,16.53-8.84,35.26-26.66,45-10.31,5.67-21.11,10.92-32.55,16.48-45.57,22.16-92.69,45.07-108,95.05a163.24,163.24,0,0,0-3.4,30.38h0A262.08,262.08,0,0,0-249.77-123a260.72,260.72,0,0,0,7.54,28.32c1.28,6.2,2.75,11.49,4.29,17.09,1,3.48,2,7.09,3,11.06,4.28,20.32-4.79,46.31-12.79,69.23s-15.57,44.66-8.2,56.16c3.26,5.09,9.2,8,18.14,8.83,27.25,2.1,55.34,6.14,85.08,10.41C-35.63,94.89,85.48,112.29,167.83,13.47,183.09-3.7,173-22,162.24-41.37a182.19,182.19,0,0,1-10-19.84c-2-5.94.51-11.91,2.91-17.68.8-1.9,1.62-3.87,2.26-5.8l0-.07c10.37-15.54,24.19-27.39,37.55-38.84s27.11-23.24,37.43-38.72c17.33-28.16,36.8-51.27,57.42-75.74,4-4.78,8.2-9.73,12.41-14.78,7.61-7.61,11-16.28,10.2-25.8-2.24-25.57-34.06-49.71-43.75-56.5C224.57-366.51,158.31-410.56,93-430.76Q57.5-441.74,27.23-441.74Z"/><path class="cls-7" d="M.34,104.8c-54.18,0-111.15-8.61-165.86-18.46-14.15-2.36-28.33.15-42,2.58-16.38,2.89-31.84,5.63-45.93,0-8.65-2.4-14.91-7-18.6-13.66-9.59-17.35-.8-46.82,7-72.82,3.86-12.95,7.51-25.19,8.87-35.35,0-3.6.2-7.29.4-10.85.53-9.4,1-18.27-1.89-26.77l-1.53-4.61c-2.36-7.09-4.8-14.42-6.93-21.75a282.4,282.4,0,0,1-11.13-84.23,187.64,187.64,0,0,1,2.51-29c13.62-47.4,54.32-70,93.67-91.89,21.86-12.15,44.46-24.71,62-41.35,10.17-10.16,7.16-21.83,4-34.18-2.38-9.21-4.84-18.75-1.46-27.76,22.94-61.16,101.18-57.43,158-49.31,59,8.23,114.89,26.23,161.69,52.07C256.66-373,298-333.91,326-286.41c7.58,12.14,6.49,25.45,4.23,34.48a67.49,67.49,0,0,1-17.21,30.52c-8.48,7.71-18.24,15.84-28.56,24.45-40.91,34.09-91.82,76.52-95.05,122.15-1.39,19.7,6.27,39,22.79,57.24l.11.13,0,.16c-10.92,36.42-31.3,65-60.55,85-25.34,17.33-58.11,28.7-97.41,33.79A421.41,421.41,0,0,1,.34,104.8Zm-177.88-20a73.1,73.1,0,0,1,12.13,1C-92.19,98.94-14.9,109.9,54.26,100.94,138.39,90.05,191.35,50.27,211.68-17.29,195.13-35.67,187.45-55,188.86-74.85c1.44-20.45,12.3-41.85,33.18-65.44,18.16-20.53,41.49-40,62.07-57.13,10.33-8.6,20.07-16.73,28.54-24.42,16-16,25.25-44.47,12.88-64.26-52.39-88.83-156-150-284.2-167.92-24-3.43-59.49-7.33-90.39-1.62-34.25,6.33-56.79,23.34-67,50.55-3.31,8.84-.88,18.28,1.48,27.41,3.09,12,6.28,24.34-4.13,34.75-17.62,16.69-40.26,29.27-62.15,41.44-39.25,21.81-79.83,44.37-93.38,91.51a188.06,188.06,0,0,0-2.49,28.86,282,282,0,0,0,11.1,84.06c2.13,7.31,4.57,14.64,6.92,21.72.51,1.54,1,3.07,1.53,4.61,3,8.61,2.46,17.54,1.93,27-.2,3.56-.41,7.23-.41,10.86-1.36,10.25-5,22.5-8.89,35.48-7.72,25.89-16.47,55.23-7,72.36,3.65,6.61,9.62,11,18.26,13.39,14,5.58,29.34,2.86,45.63,0C-197.81,86.59-187.72,84.8-177.54,84.8Z"/><path class="cls-7" d="M17.37,126.86a314,314,0,0,1-32.91-1.73c-44.05-4.13-89.36-9-133.18-13.81-38.12-4.14-77.55-8.42-115-12-9.8-.85-16.73-4.19-21.2-10.2-10.81-14.55-4.93-42.71,1.3-72.52,5.66-27.07,11.51-55.07,6.3-76.92-1.24-4-2.57-8.05-3.86-12-1.75-5.36-3.56-10.9-5.21-16.41A304.7,304.7,0,0,1-299-179.37a176.18,176.18,0,0,1,2.77-31.31c7.68-38.19,41-58.5,73.28-78.15,27.11-16.52,52.72-32.12,59.83-57,7.34-31.82,15.88-64.91,32.24-88.87,17.74-26,43.34-39,78.26-39.88a302,302,0,0,1,30.19-4.25A307.09,307.09,0,0,1,8.65-480a309.19,309.19,0,0,1,31.08,1.93c10.1,1.15,20.24,2.82,30.15,5,57.14,15.95,107.94,37.62,151,64.41,50.67,31.51,90.4,70.05,118.06,114.56,8.45,13.27,11.26,28.77,8.12,44.81-2.78,14.18-10.26,28.69-21.08,40.86-12.49,14.16-30.31,26.89-47.55,39.19-18.06,12.89-36.74,26.23-48.91,41-13.6,16.55-17.55,33.35-12.07,51.35,2.53,9.28,7.95,18.48,13.18,27.39,11,18.67,22.33,38,10.07,60.74C215,52.88,176.38,85.33,129.07,105.07,94.54,119.48,56.44,126.86,17.37,126.86ZM-298.74-179.37h.3a303.77,303.77,0,0,0,12.6,90.43c1.65,5.51,3.46,11,5.21,16.4,1.29,3.93,2.62,8,3.87,12,5.24,22-.63,50.06-6.3,77.2-6.2,29.68-12.06,57.71-1.4,72,4.36,5.87,11.15,9.13,20.77,10,37.48,3.63,76.91,7.91,115,12,43.81,4.76,89.12,9.68,133.17,13.8C92,135.85,189.93,92.31,240.2,10.91c12.09-22.44.83-41.61-10.06-60.14-5.26-8.94-10.69-18.18-13.24-27.53-5.54-18.2-1.56-35.17,12.18-51.89,12.22-14.87,30.93-28.23,49-41.15,17.2-12.28,35-25,47.45-39.09,18-20.26,32.18-54.66,12.89-85C274-397.55,156.74-448.27,69.73-472.56a303.42,303.42,0,0,0-30.07-4.94,307.82,307.82,0,0,0-31-1.93,309.06,309.06,0,0,0-31.06,1.21A304.31,304.31,0,0,0-52.6-474c-34.76.84-60.2,13.8-77.83,39.63-16.3,23.88-24.82,56.9-32.16,88.68-7.17,25.1-32.87,40.76-60.09,57.34-32.14,19.58-65.38,39.83-73,77.75a176,176,0,0,0-2.75,31.2Z"/><path class="cls-7" d="M22.24,148.5c-2.87,0-5.76,0-8.66-.1-50.09-1.11-105.36-11.8-174-33.63-18.8-4.69-38.25.07-57.06,4.68-11.93,2.92-23.2,5.68-33.34,5.68-17.23,0-29.67-4.49-38-13.71-17.46-19.23-14-55.23-10.31-93.36,2.84-29.44,5.77-59.89-1.83-81.86-3.25-8.88-6.14-18-8.6-27.12a326.7,326.7,0,0,1-11.17-86.69,267.9,267.9,0,0,1,1.7-29.73c6.49-41.75,37.82-63.11,71-85.73,22.93-15.64,46.64-31.81,61.65-55.4,5.28-12.33,2.07-23.43-1.32-35.18A118.58,118.58,0,0,1-191.61-400c-1.2-16.68,4.56-31.81,17.09-45,12.85-13.49,29.74-21.67,41.65-26.16,8.25-3.91,17-7.57,25.94-10.85A324.9,324.9,0,0,1,6.89-501.73a324.84,324.84,0,0,1,113.6,21c8.76,3.32,17.48,7.06,25.92,11.13l1.92,1.1c69.77,40.22,141.92,81.8,193.2,151,16.24,21.92,22.31,45.09,18,68.86-8.85,49.31-58.89,88.44-87.92,107.38-12.69,10.57-36.35,30.29-28.37,40.94,24.09,29.64,34.06,59.94,29.62,90.06-7.31,49.69-52.52,89.75-89.16,114.62C135.86,134,83,148.5,22.24,148.5ZM-177,112.24a68.52,68.52,0,0,1,16.75,2c106.81,34,231.15,59.33,343.64-10.31C220,79.11,265,39.17,272.31-10.31c4.41-29.94-5.52-60.09-29.5-89.61C234.48-111,258.43-131,271.29-141.7c29-18.91,78.88-57.92,87.69-107,4.24-23.6-1.79-46.61-17.93-68.4C289.84-386.24,217.75-427.8,148-468l-1.89-1.09c-8.42-4.06-17.12-7.79-25.86-11.1a324.1,324.1,0,0,0-113.39-21H5.08a324.05,324.05,0,0,0-111.8,19.74c-8.94,3.28-17.66,6.92-25.91,10.84-18.59,7-61.44,27.86-58.39,70.52a120.22,120.22,0,0,0,3.87,16.22c3.43,11.86,6.66,23.06,1.28,35.63-15.1,23.73-38.86,39.94-61.84,55.61C-280.77-270-312-248.74-318.45-207.26a268.85,268.85,0,0,0-1.7,29.65A326.33,326.33,0,0,0-309-91.08c2.45,9.11,5.34,18.22,8.58,27.08,7.65,22.1,4.71,52.61,1.86,82.12-3.66,38-7.12,73.87,10.16,92.89,8.26,9.1,20.56,13.52,37.61,13.52,10.07,0,21.3-2.75,33.2-5.66C-204.22,115.59-190.54,112.24-177,112.24Z"/><path class="cls-7" d="M41.78,165.88q-4.34,0-8.76-.09c-55.87-1.18-113.89-13.66-170-25.72-19.51-4.2-39.69-8.54-59.56-12.36-11-2.44-20.09,4.35-29.74,11.53-10.45,7.79-21.27,15.83-34.92,11.73-22.23-7.4-41.12-27.29-49.32-51.9-7.54-23.85-5.92-49.38-4.35-74.08,1.67-26.41,3.4-53.72-5.82-79.57-3.52-9.45-6.66-19.17-9.33-28.88a348.37,348.37,0,0,1-12.42-92.4c0-8.73.29-20.23,2.54-31.81,9.05-39.55,38.06-61.73,68.78-85.2,16-12.21,32.47-24.82,46-40.13,5-7.54,10.24-15.37,7.69-25.58A86.74,86.74,0,0,1-219-426.16,90.64,90.64,0,0,1-170.26-476c8.54-5,17.43-9.71,26.39-14a344.41,344.41,0,0,1,149-33.47A347.29,347.29,0,0,1,180.56-476c8.53,5,16.95,10.42,25,16.13,10.53,8.17,21.66,16.35,32.42,24.25,55.35,40.67,112.58,82.72,132,151.85,6.5,26.93,2.19,52.62-13.19,78.54-13.58,22.91-33.95,43.27-53.65,63-10.06,10.05-19.56,19.55-28.2,29.36a25.09,25.09,0,0,0-3.59,17.69c4.55,7.1,11.25,13.36,17.72,19.41,12.79,12,24.87,23.24,21.45,40.37C305.62-3.29,292,28.83,271.08,57.46a250.92,250.92,0,0,1-74.42,67.63,272.53,272.53,0,0,1-80.72,32.78C92.73,163.25,68.39,165.88,41.78,165.88ZM-201.13,126.6a21.53,21.53,0,0,1,4.71.53c19.86,3.82,40,8.16,59.56,12.35,59,12.69,119.1,25.61,178.21,25.61,52.94,0,105.08-10.35,155-40.51C256.73,88.9,300.27,27.55,310-35.51c3.36-16.83-8.6-28-21.27-39.84-6.51-6.09-13.25-12.38-17.84-19.57l-.05-.11a25.63,25.63,0,0,1,3.67-18.18l0-.05c8.67-9.82,18.18-19.33,28.25-29.41,39.88-39.87,81.12-81.11,66.68-140.93-19.38-68.92-76.53-110.91-131.79-151.52-10.77-7.91-21.9-16.08-32.42-24.25-8-5.69-16.46-11.11-25-16.1A346.74,346.74,0,0,0,5.13-522.84a343.82,343.82,0,0,0-148.74,33.41c-8.95,4.25-17.82,8.95-26.39,14a90.07,90.07,0,0,0-48.42,49.53,86.17,86.17,0,0,0,1.52,67.17c2.63,10.51-2.66,18.46-7.78,26.14-13.57,15.38-30.1,28-46.09,40.23-30.63,23.41-59.56,45.52-68.56,84.85-2.23,11.52-2.52,23-2.52,31.69a347.92,347.92,0,0,0,12.39,92.24c2.67,9.7,5.8,19.4,9.32,28.84,9.26,26,7.53,53.34,5.85,79.81-1.56,24.64-3.17,50.12,4.32,73.86,8.15,24.43,26.9,44.17,48.94,51.51,13.37,4,24-3.94,34.38-11.64C-218.28,132.54-210.31,126.6-201.13,126.6Z"/><path class="cls-7" d="M819,285a175.49,175.49,0,0,1,24.2,30.33c3.63,5.82,4.67,11.26,3.1,16.2-3.77,11.77-21.8,19.24-37.71,25.83-7.8,3.23-15.16,6.28-20.33,9.57C775,377,765.36,389,758.13,404.85a190.88,190.88,0,0,1-11.45,21A152.79,152.79,0,0,1,714,462.36l-.19-.23.19.23a140.8,140.8,0,0,1-20.66,14c-68.44,23.05-133-17.47-190-53.23l-8-5c-10.1-6.06-29.54-18.58-46.16-34.31-17-16.08-26.11-30.81-27.05-43.75-.74-10.1,3.58-19.06,12.85-26.64,9.15-7.93,17.41-17.85,25.39-27.44,16.44-19.76,32-38.43,55.19-42.09,58.85-10.62,121.33-19.54,179.47-13,31.79,3.56,59.78,11.67,83.21,24.11A169.94,169.94,0,0,1,819,285ZM446.58,380.29c13.84,13.84,31.9,27,49.19,37.35l8,5c56.85,35.68,121.29,76.12,189.41,53.19a140.18,140.18,0,0,0,20.52-13.93h0a152.07,152.07,0,0,0,32.52-36.4,187.77,187.77,0,0,0,11.41-20.89c7.27-15.94,16.92-28.05,30.36-38.14,5.24-3.33,12.62-6.39,20.44-9.63,15.79-6.54,33.68-13.95,37.37-25.47,1.54-4.82.55-9.95-3-15.69a176.41,176.41,0,0,0-24.32-30.56c-30.11-30.11-70.79-47.75-123.31-53.63-58.07-6.5-120.5,2.42-179.31,13-23,3.63-38.46,22.21-54.83,41.88-8,9.61-16.27,19.55-25.47,27.52-9.11,7.45-13.36,16.25-12.64,26.14C423.77,352.87,433.2,366.91,446.58,380.29Z"/><path class="cls-7" d="M837.1,265.66q3.3,3.3,6.33,6.78c20,22.95,27,48,19.94,70.59-3.68,14.72-20,22.67-37.31,31.1S789.3,392,779.3,409.79A203.1,203.1,0,0,1,766.89,434a174.14,174.14,0,0,1-36.26,42.51A162,162,0,0,1,707.47,493l-.07,0c-33.58,9.18-68.89,7.24-107.93-5.94-34.41-11.61-67.15-30.16-98.81-48.1-10.63-6-20.67-11.71-30.78-17.16-32.27-16.78-68.64-48.24-77.16-80.69-3.7-14.07-1.76-27.05,5.75-38.57,19-28.45,54.69-53.09,106.18-73.24,39-17.9,79.07-13.47,121.56-8.78,30.68,3.38,62.41,6.88,94.23,1.45C757.24,215.85,805.82,234.38,837.1,265.66ZM730.44,476.23l-.19-.22a173.76,173.76,0,0,0,36.13-42.37,201.62,201.62,0,0,0,12.38-24.12c10.11-17.95,29.73-27.5,47-35.93s33.38-16.26,37-30.73c7-22.38,0-47.24-19.82-70q-3-3.46-6.31-6.76c-31.15-31.15-79.5-49.61-116.13-43.5-31.91,5.45-63.68,1.94-94.4-1.45-42.4-4.68-82.44-9.1-121.26,8.74-51.38,20.11-87,44.67-105.91,73-7.41,11.37-9.32,24.18-5.67,38.09,8.47,32.28,44.7,63.6,76.86,80.31,10.12,5.45,20.16,11.14,30.79,17.17,61.59,34.89,131.4,74.44,206.26,54a162.28,162.28,0,0,0,23-16.43Z"/><path class="cls-7" d="M834,249.19c25.67,25.66,48.2,55.89,67.74,84.44,3.69,7.37-1.66,16.62-7.35,22.31-10,6-20.86,11.15-31.31,16.08-28.71,13.56-55.83,26.37-68.79,56.52a196.75,196.75,0,0,1-68.2,78.26l-.08,0c-90.07,27-181.12-22.63-261.45-66.45C455,435.18,446,430.27,437,425.47c-22.73-11.82-42.34-32.89-55.2-59.32-13.32-27.37-17.79-57.71-12.6-85.43,0-7.46,7.33-14.82,16.69-16.69,25.3-2.3,44.33-15.65,62.73-28.55,10.77-7.56,21.91-15.37,34.11-20.79,35.57-15.25,73-10.33,112.71-5.12,17,2.23,34.59,4.53,52,5.09,12.25-.94,21.44-8.66,30.33-16.12,8-6.75,15.63-13.13,24.5-13.13C752.94,184.33,796.76,212,834,249.19ZM746.83,490.11a194.5,194.5,0,0,0,46.91-61.82c13-30.34,40.26-43.2,69.07-56.8,10.44-4.93,21.24-10,31.2-16,5.5-5.51,10.73-14.5,7.2-21.55-47.76-69.81-113.57-149.74-199-147.92-8.66,0-16.17,6.31-24.13,13-9,7.52-18.23,15.3-30.7,16.26-17.43-.56-35-2.87-52-5.1-39.59-5.2-77-10.1-112.39,5.08-12.14,5.39-23.26,13.19-34,20.72-18.47,13-37.56,26.35-63,28.66-8.91,1.78-16.18,9-16.18,16.16C359.32,336.53,389,399.83,437.25,424.94c9,4.8,18,9.72,27.58,14.92,80.22,43.76,171.14,93.36,261,66.42a196.72,196.72,0,0,0,21-16.17Z"/><path class="cls-7" d="M890.69,285.41a162.87,162.87,0,0,1,11.61,12.81c15.57,19.3,20.78,37.55,15.92,55.76-6.12,18.38-25.54,26.78-46.1,35.67-23.09,10-47,20.31-56.78,45.54-4.87,9.68-9.29,17.57-13.9,24.85a218.32,218.32,0,0,1-37.62,44.63l-.2-.23.2.23A209.86,209.86,0,0,1,740.55,523l-.07,0c-52,18.26-103.9-.53-154.05-18.71C568,497.65,549,490.75,530.28,485.83c-10.43-2.41-20.82-1.28-30.87-.19-12.71,1.38-24.72,2.68-35-3.5C411.1,451.69,364.69,392,351.53,336.9c-7.9-33-3.68-63.25,12.2-87.37,10.93-15.3,32.87-22.15,56.1-29.39,15.89-5,32.32-10.09,46.38-18.23,10.87-3.63,22-7.36,33.06-7.36,12.81-.36,25.9-.07,38.56.22,50.2,1.15,102.11,2.33,145.89-38.53,14.46-12.86,35.88-10.48,63.66,7,23.09,14.57,46.72,37.11,64.73,55.12,10.51,10.51,23.56,20.85,37.38,31.8C863.79,261.55,878.46,273.18,890.69,285.41ZM740.25,522.48a209.43,209.43,0,0,0,23.17-18.26,217.63,217.63,0,0,0,37.51-44.5A281,281,0,0,0,814.8,435c9.89-25.44,33.88-35.81,57.08-45.85,20.44-8.83,39.73-17.18,45.77-35.29,6.74-25.27-6.61-47.27-27.12-67.77-12.18-12.19-26.89-23.84-41.42-35.36-13.83-11-26.89-21.32-37.42-31.85-18-18-41.59-40.5-64.63-55-27.53-17.38-48.7-19.77-62.94-7.12-19.72,18.41-42.75,29.91-70.39,35.17-24.65,4.69-50.71,4.09-75.92,3.52-12.65-.29-25.73-.59-38.53-.22-10.93,0-22.06,3.71-32.82,7.3-14.07,8.15-30.53,13.29-46.45,18.26-23.13,7.21-45,14-55.78,29.16-15.79,24-20,54-12.12,86.9,13.13,54.91,59.42,114.48,112.57,144.85,10.14,6.08,22.05,4.79,34.67,3.42,10.09-1.09,20.54-2.22,31.07.21,18.74,4.93,37.79,11.83,56.21,18.51C636.68,521.9,688.42,540.65,740.25,522.48Z"/><path class="cls-7" d="M857.91,223c44.15,44.15,71.24,93.38,76.77,140,.86,12.82-17.34,22.59-38.4,33.91-24.59,13.22-55.19,29.66-66.24,56.7a236.85,236.85,0,0,1-13.75,23.19,239.92,239.92,0,0,1-35.88,42,227.23,227.23,0,0,1-21.6,17.77c-20,11-42.29,14.47-68.26,10.72-23.15-3.33-47.08-12-70.21-20.38-24.17-8.75-49.17-17.81-73.57-20.94-9.82-.89-18.84,4.43-27.57,9.58-9.22,5.44-17.92,10.58-27.3,8.7-32-2.46-59.16-18.79-82.9-49.93-20.52-26.9-35.34-61.11-47.12-91-2-4.85-4.15-10-6.46-15.44-10.31-24.35-23.14-54.65-27.16-81.8-4.72-31.83,3.33-53.37,24.6-65.84,23.62-13.12,51.41-19.54,80.83-26.34,11.32-2.61,23-5.32,34.42-8.43,21.75-4,43.21-2,63.95-.1,26.88,2.49,52.26,4.85,76.79-5.37,11.64-5.82,17.78-18.47,23.73-30.71,9-18.65,17.61-36.26,44.1-29.64,58.42,13.49,119.94,46.83,168.78,91.48Q851.9,217,857.91,223Zm-77.7,295.57-.2-.22a239.91,239.91,0,0,0,35.79-41.85,236.65,236.65,0,0,0,13.69-23.11c11.12-27.22,41.83-43.72,66.51-57,20.88-11.22,38.92-20.92,38.09-33.33-6-50.73-37.64-104.56-89-151.54-48.77-44.59-110.19-77.88-168.52-91.34-26-6.51-34.48,10.89-43.43,29.31-6,12.33-12.18,25.07-24,31-24.69,10.29-50.14,7.92-77.09,5.42C511.3,184,489.89,182,468.25,186c-11.4,3.11-23.1,5.82-34.42,8.43-29.38,6.79-57.14,13.2-80.67,26.28-47.57,27.88-18.45,96.67,2.81,146.89,2.31,5.44,4.48,10.59,6.46,15.44C390,453,424.76,518.46,492,523.63c9.19,1.84,17.8-3.24,26.92-8.62,8.81-5.2,17.92-10.57,27.93-9.66,24.48,3.14,49.51,12.2,73.71,21,46.1,16.7,93.77,34,138,9.72A228.76,228.76,0,0,0,780,518.33Z"/><path class="cls-7" d="M823.89,171.66c31.05,31.05,58.56,67.79,85.37,103.59,18,24,35,46.75,52.78,67.49,5.85,7.08,8,13.49,6.71,19.59-3,13.63-23.8,23.68-45.84,34.32-21.8,10.52-46.5,22.45-57.75,39.69-2.1,3.5-3.94,6.75-5.72,9.89-2.87,5.06-5.58,9.85-9.05,15.13A260,260,0,0,1,797,532.87l-.2-.21.2.21A162.8,162.8,0,0,1,773,552c-46.44,24.62-96.09,7.45-144.1-9.15-12-4.15-23.35-8.07-34.64-11.35-19.22-5.65-35.67,4.2-50.18,12.89-8.75,5.24-17,10.19-24.67,10.89-32.25,3-61.4-4.57-86.64-22.51-22-15.61-41.5-39.46-58.08-70.89-31.94-60.55-47.66-138.6-56.71-192-2.06-11.72-7.52-51.51,9.15-71.38,6.26-7.46,15-11.24,25.89-11.24,6.51-.59,13-1.14,19.2-1.68,31.86-2.72,61.95-5.29,94.07-12.94,18.34-3.66,36.48-2.27,54-.92s35.58,2.74,53.81-.9c1.83-.91,3.8-1.72,5.7-2.51,5.68-2.33,11.55-4.75,14.24-10.14a180.93,180.93,0,0,0,6.95-21c5.91-20.55,12-41.8,35.35-43.17,57.45-5.22,109.31,11.6,158.55,51.43A370.9,370.9,0,0,1,823.89,171.66ZM414,515.9c29.58,29.57,64.84,42.6,105.4,38.81,7.52-.68,15.73-5.6,24.41-10.8,14.62-8.76,31.18-18.68,50.65-12.95,11.31,3.28,22.66,7.2,34.68,11.36,47.89,16.56,97.41,33.68,143.6,9.2a162.43,162.43,0,0,0,23.89-19.08h0a261.38,261.38,0,0,0,38.59-46,258,258,0,0,0,14.69-25.35c3.48-5.3,6.19-10.07,9-15.13,1.79-3.14,3.63-6.39,5.74-9.91,11.34-17.39,36.12-29.35,58-39.91s42.59-20.56,45.51-33.91c1.29-5.91-.86-12.15-6.58-19.07-17.79-20.75-34.79-43.47-52.8-67.52C837.86,180.89,764.53,83,636.42,94.6c-22.93,1.35-28.71,21.45-34.82,42.73a180.61,180.61,0,0,1-7,21.07c-2.8,5.61-8.77,8.07-14.55,10.45-1.91.78-3.88,1.59-5.7,2.5l-.07,0c-18.33,3.66-36.47,2.27-54,.92s-35.61-2.74-53.85.91c-32.16,7.65-62.27,10.22-94.15,12.95-6.24.53-12.69,1.08-19.23,1.68-10.76,0-19.31,3.71-25.45,11-16.5,19.67-11.07,59.24-9,70.9,9,53.41,24.75,131.4,56.65,191.87Q392.56,494.5,414,515.9Z"/><path class="cls-7" d="M819.43,148.45c38.32,38.31,72.51,84.68,104.23,130.33,8.35,11.68,20.14,19.93,31.55,27.9,13.62,9.53,26.49,18.53,32.47,32.48,4.42,7.81,5.6,15.5,3.49,22.81-5.49,19-32.54,33.67-56.41,46.58C922.87,415,911.64,421,903.49,427.27c-2.55,2.55-5.3,5-8,7.39-7,6.27-13.64,12.19-17.59,20.26l-2.17,4.35c-3.35,6.68-6.81,13.59-10.48,20.28A282.76,282.76,0,0,1,813.59,547a188.71,188.71,0,0,1-22.27,18.72c-43.15,23.88-87.92,11.1-131.22-1.26-24-6.86-48.9-14-73.08-14.62-14.38,0-20.5,10.38-27,21.36-4.83,8.2-9.84,16.68-18.6,20.67C482,618.87,429.28,560.91,394.83,515c-35.89-47.53-62.7-99.79-77.52-151.15-17-58.77-18.58-115.64-4.81-169,3.22-13.95,13.41-22.59,21.39-27.38A67.52,67.52,0,0,1,367.64,158c11.46.54,24.1,1.69,37.49,2.91,53,4.81,119,10.81,153.58-19.17,14.91-12.94,23.11-32,24.36-56.59V85l.15-.08c33.48-18,68.12-23.86,102.95-17.32,30.17,5.67,61.38,20.81,92.76,45A421.57,421.57,0,0,1,819.43,148.45ZM931.07,288.37a74,74,0,0,1-7.9-9.25c-42.45-61.1-89.35-123.5-144.59-166.07C711.39,61.26,645.82,51.94,583.66,85.34c-1.29,24.69-9.55,43.82-24.56,56.84-15.48,13.43-38.29,20.9-69.73,22.81-27.37,1.67-57.61-1.07-84.29-3.5-13.39-1.21-26-2.36-37.45-2.9-22.69,0-49.3,13.58-54.54,36.33-25.77,99.85,4.2,216.37,82.21,319.69,14.55,19.4,36.89,47.25,62.78,65.06,28.69,19.75,56.66,23.66,83.12,11.63,8.58-3.9,13.54-12.3,18.33-20.42,6.28-10.65,12.77-21.65,27.5-21.65,24.26.65,49.16,7.76,73.24,14.64,43.18,12.32,87.83,25.07,130.73,1.32a187.6,187.6,0,0,0,22.18-18.64,281.8,281.8,0,0,0,51.58-67.29c3.67-6.68,7.13-13.58,10.47-20.26.73-1.45,1.45-2.9,2.18-4.34,4-8.18,10.66-14.14,17.72-20.45,2.66-2.37,5.4-4.82,8-7.39,8.21-6.28,19.46-12.36,31.37-18.8,23.77-12.84,50.71-27.4,56.13-46.21,2.09-7.26,1-14.58-3.45-22.38-5.93-13.82-18.73-22.78-32.29-32.26C946.67,301.44,938.27,295.57,931.07,288.37Z"/><path class="cls-7" d="M823,120.81a318,318,0,0,1,22,24.49c28.22,34.07,56.78,69.59,84.41,103.94,24,29.88,48.88,60.79,72.81,89.85,6.33,7.53,8.87,14.79,7.78,22.21-2.65,17.93-26.72,33.68-52.2,50.36-23.15,15.14-47.08,30.8-58.85,49.93-1.94,3.7-3.88,7.51-5.74,11.2-2.55,5-5.19,10.23-7.93,15.29a304.17,304.17,0,0,1-55.13,73,177.48,177.48,0,0,1-24.1,20.19c-32.43,21.57-70.38,12.35-107.08,3.44-30.85-7.5-60-14.57-82.59-2-27.69,17.31-57.13,34.67-85.64,40-30.92,5.83-58.25-3-83.54-27.14-8.33-5.64-16.54-11.82-24.35-18.34A306.09,306.09,0,0,1,400,556.11a309.36,309.36,0,0,1-20.62-23.34,305.14,305.14,0,0,1-17.81-24.83C332.48,456.26,311.87,405,300.35,355.61,286.8,297.5,286,242.16,297.88,191.13c3.41-15.37,12.38-28.31,25.95-37.43,12-8.07,27.54-13,43.79-14,18.85-1.18,40.45,2.42,61.33,5.91,21.89,3.65,44.53,7.43,63.62,5.57,21.31-2.09,36-11.18,44.83-27.78,4.77-8.35,7.46-18.69,10.05-28.68,5.45-21,11.08-42.65,35.83-50.08C631,33.39,681.19,37.74,728.6,57.23,763.2,71.46,795.36,93.18,823,120.81Zm7,440.06-.21-.21a303.75,303.75,0,0,0,55-72.86c2.73-5.06,5.37-10.25,7.91-15.28,1.87-3.69,3.81-7.5,5.76-11.22,11.85-19.27,35.84-35,59-50.14,25.37-16.6,49.33-32.28,51.94-50,1.06-7.23-1.44-14.34-7.65-21.74C977.86,310.4,953,279.5,929,249.61c-27.62-34.35-56.18-69.86-84.41-103.93-68-84-168-122.46-261.13-100.45C559,52.55,553.43,74.07,548,94.88c-2.61,10-5.3,20.41-10.11,28.82-8.95,16.78-23.77,26-45.3,28.08-19.16,1.88-41.84-1.91-63.76-5.57-20.86-3.48-42.42-7.08-61.2-5.91-27.05,1.59-61.41,15.89-69.2,51-27.74,118.9,19.3,237.67,63.65,316.38,5.47,8.49,11.45,16.82,17.77,24.76a308.34,308.34,0,0,0,43.39,44.4,300.84,300.84,0,0,0,24.35,18.33c25.17,24,52.33,32.82,83,27,28.41-5.36,57.79-22.68,85.45-40,22.82-12.68,52.07-5.57,83,2,36.58,8.88,74.4,18.07,106.61-3.36a176.09,176.09,0,0,0,24-20.11Z"/><path class="cls-7" d="M834.85,102.07q3,3,6.06,6.19c34.62,36.2,66.15,82.84,99.23,146.79,10,16.61,27.09,27,43.65,37,10.5,6.37,20.42,12.38,27.59,19.56,12.18,12.17,17.81,24.15,17.21,36.6-1.25,25.94-29.16,48.94-58.72,73.3-22.83,18.81-46.43,38.27-56.6,59.18-4,8.57-8.38,17.07-13.09,25.26a327,327,0,0,1-53.4,69.2A268.91,268.91,0,0,1,824.55,595c-34.11,24.93-71.37,17.88-110.82,10.43-27.27-5.16-55.47-10.49-82.76-4.42-12.45,5-18,15.1-23.94,25.81a119.27,119.27,0,0,1-8.8,14.29c-11,12.65-25.71,19.27-43.88,19.72-18.63.45-36.36-5.71-48-11-8.6-3.07-17.36-6.66-26-10.67A327.22,327.22,0,0,1,320.45,477.52c-3.85-8.53-7.37-17.35-10.47-26.2l-.57-2.13C288.51,371.42,266.9,291,279.59,205.78c4-27,16.11-47.66,35.94-61.45,41.13-28.61,104.18-20.9,138.1-13.76,16.44,1.49,47.12,4.28,49-8.89,3.93-38,18.31-66.47,42.74-84.63,40.31-30,100.61-26.33,144.09-18C744.28,32,791.92,59.14,834.85,102.07ZM950.07,268.56a68.62,68.62,0,0,1-10.45-13.22c-51.5-99.56-121.5-205.4-250.28-235.71C646,11.33,585.86,7.69,545.73,37.53c-24.29,18.06-38.59,46.39-42.5,84.22-2,13.75-33,10.93-49.69,9.41-33.86-7.13-96.73-14.82-137.67,13.66-19.69,13.69-31.69,34.23-35.69,61C267.51,291,289.1,371.32,310,449l.57,2.12c3.08,8.81,6.6,17.61,10.44,26.13a323.9,323.9,0,0,0,65.36,95l1.27,1.28a323.89,323.89,0,0,0,93,65.1c8.63,4,17.37,7.59,26,10.65,18.09,8.2,63.14,23.75,91.15-8.57a119.24,119.24,0,0,0,8.73-14.21c6-10.81,11.6-21,24.29-26.09,27.46-6.11,55.72-.77,83.06,4.4,39.31,7.43,76.45,14.45,110.34-10.31a265.91,265.91,0,0,0,22.17-19.77,326.13,326.13,0,0,0,53.3-69.07c4.7-8.17,9.1-16.66,13.07-25.22,10.23-21,33.88-40.53,56.76-59.38,29.45-24.27,57.27-47.2,58.5-72.87.59-12.27-5-24.1-17-36.15-7.12-7.13-17-13.12-27.48-19.47C971.72,285.46,959.67,278.16,950.07,268.56Z"/><path class="cls-7" d="M833.32,76q3.07,3.08,6.14,6.27c38.67,40.34,70.87,90.19,102,138.4,10.83,16.76,22,34.1,33.37,50.85,6,9.49,17.29,11.13,29.19,12.88,12.9,1.88,26.23,3.84,33,16.4,10.48,20.95,9.78,48.37-1.82,71.57-11.54,22.19-30.74,39.1-49.31,55.46-19.86,17.49-40.4,35.58-52.15,60.38-4.2,9.17-8.85,18.26-13.83,27a348.65,348.65,0,0,1-56.55,74.11c-6.18,6.17-14.52,14.11-24.29,20.71-34.37,21.56-70.56,16.73-108.88,11.61-19.92-2.66-40.52-5.42-60.89-4.14-8.88,1.78-18.11,3.62-23.53,12.65A86.71,86.71,0,0,1,599.07,679a90.66,90.66,0,0,1-69.69.79c-9.58-2.5-19.19-5.46-28.54-8.78a348.21,348.21,0,0,1-219.51-239.3c-2.5-9.56-4.62-19.36-6.29-29.1-1.67-13.22-3.76-26.87-5.77-40.07-10.38-67.9-21.12-138.1,14-200.72C297.73,138.15,319,123,348.14,115.58,374,109,402.75,109,430.61,109c14.22,0,27.66,0,40.7-.82a25,25,0,0,0,15.05-10c1.8-8.24,1.49-17.39,1.19-26.25-.59-17.5-1.15-34,13.39-43.71C527.14,9,559.51-4,594.52-9.52A250.93,250.93,0,0,1,695-4.71a272.67,272.67,0,0,1,80.25,33.89C795.43,41.79,814.51,57.14,833.32,76Zm144,199.55a21.36,21.36,0,0,1-3-3.7C963,255.05,951.81,237.71,941,220.94c-32.76-50.7-66.12-102.33-107.91-144.12-37.43-37.44-81.62-67-138.25-80.95C626.89-21.6,552.73-9,501.28,28.72,487,38.24,487.56,54.61,488.15,71.93c.3,8.91.61,18.13-1.22,26.46l-.05.11a25.66,25.66,0,0,1-15.45,10.26h-.05c-13.08.82-26.53.82-40.77.82-56.4,0-114.72,0-146.81,52.51-35,62.43-24.31,132.53-13.94,200.33,2,13.2,4.1,26.85,5.77,40.07,1.67,9.72,3.78,19.49,6.27,29A347.59,347.59,0,0,0,501,670.42c9.33,3.32,18.93,6.28,28.53,8.79a90.08,90.08,0,0,0,69.26-.78,86.17,86.17,0,0,0,46.42-48.57c5.58-9.3,14.93-11.17,24-13,20.46-1.29,41.09,1.47,61,4.13,38.21,5.11,74.3,9.93,108.47-11.51,9.73-6.57,18-14.48,24.2-20.63a348.19,348.19,0,0,0,56.46-74c5-8.74,9.61-17.81,13.8-27C945,463,965.6,444.86,985.5,427.33c18.53-16.32,37.69-33.19,49.17-55.28,11.52-23,12.22-50.25,1.83-71-6.62-12.29-19.8-14.22-32.55-16.08C993.64,283.43,983.81,282,977.32,275.5Z"/></g><polygon class="cls-8" points="52.34 193.12 48.56 193.12 48.56 189.35 47.46 189.35 47.46 198.23 48.56 198.23 48.56 194.18 52.34 194.18 52.34 198.23 53.45 198.23 53.45 189.35 52.34 189.35 52.34 193.12"/><polygon class="cls-8" points="60.5 190.36 60.56 189.35 55.47 189.35 55.47 198.23 60.5 198.23 60.56 197.22 56.56 197.22 56.56 194.27 60.2 194.27 60.25 193.29 56.56 193.29 56.56 190.36 60.5 190.36"/><path class="cls-8" d="M66.2,195.21l-.27-.43a2.49,2.49,0,0,0,2-2.7c0-1.67-1-2.85-3.19-2.85a20.61,20.61,0,0,0-2.54.16v8.84h1.1V195h1.38l.55.85c1.17,1.79,1.78,2.44,3.36,2.44l.05-1C67.55,197.22,67.08,196.59,66.2,195.21ZM64.55,194H63.34v-3.71a10.11,10.11,0,0,1,1.45-.11,1.76,1.76,0,0,1,2,1.91C66.8,193.34,66.12,194,64.55,194Z"/><rect class="cls-8" x="70.06" y="189.35" width="1.1" height="8.88"/><polygon class="cls-8" points="72.62 190.36 75.28 190.36 75.28 198.23 76.39 198.23 76.39 190.36 78.96 190.36 79.03 189.35 72.62 189.35 72.62 190.36"/><path class="cls-8" d="M83.5,189.12c-2,0-3,1.07-3,4.09v5h1.1v-3h3.88v3h1.1v-5C86.55,190.19,85.46,189.12,83.5,189.12Zm2,5.2H81.57v-1.14c0-2,.52-3,1.93-3s2,1.05,2,3Z"/><path class="cls-8" d="M91.61,190.13c1.11,0,1.59.67,1.88,1.65l.93-.61a2.65,2.65,0,0,0-2.81-2c-2.09,0-3.36,1.39-3.36,4.68s1.36,4.66,3.32,4.66a3.67,3.67,0,0,0,2.82-1.21V193.7H91.52l-.07,1h1.9v2.05a2.33,2.33,0,0,1-1.74.75c-1.61,0-2.2-1.41-2.2-3.67S90.06,190.13,91.61,190.13Z"/><polygon class="cls-8" points="101.36 190.36 101.43 189.35 96.33 189.35 96.33 198.23 101.36 198.23 101.43 197.22 97.43 197.22 97.43 194.27 101.06 194.27 101.11 193.29 97.43 193.29 97.43 190.36 101.36 190.36"/><polygon class="cls-8" points="112.11 189.35 109.8 196.44 107.5 189.35 106.25 189.35 105.77 198.23 106.79 198.23 107.14 191.46 109.36 198.23 110.21 198.23 112.45 191.46 112.8 198.23 113.88 198.23 113.4 189.35 112.11 189.35"/><path class="cls-8" d="M118.61,189.12c-1.87,0-3.31,1.32-3.31,4.68s1.44,4.66,3.31,4.66,3.32-1.3,3.32-4.66S120.48,189.12,118.61,189.12Zm0,8.32c-1.24,0-2.16-1.06-2.16-3.64s.92-3.65,2.16-3.65,2.17,1.07,2.17,3.65S119.86,197.44,118.61,197.44Z"/><polygon class="cls-8" points="128.65 196.27 124.78 189.35 123.67 189.35 123.67 198.23 124.68 198.23 124.68 191.32 128.55 198.23 129.66 198.23 129.66 189.35 128.65 189.35 128.65 196.27"/><polygon class="cls-8" points="131.12 190.36 133.78 190.36 133.78 198.23 134.89 198.23 134.89 190.36 137.46 190.36 137.53 189.35 131.12 189.35 131.12 190.36"/><polygon class="cls-8" points="143.87 193.12 140.09 193.12 140.09 189.35 139 189.35 139 198.23 140.09 198.23 140.09 194.18 143.87 194.18 143.87 198.23 144.98 198.23 144.98 189.35 143.87 189.35 143.87 193.12"/><path class="cls-8" d="M66.74,125.93c0-9-3.42-12.19-9.64-12.19s-9.64,3.18-9.64,12.19v12.15h6.92v-5.73h5.55v5.73h6.81Zm-6.81.8H54.38v-1.29c0-3.6.7-5.48,2.76-5.48s2.79,1.88,2.79,5.48Z"/><path class="cls-8" d="M77.88,132.94a6.8,6.8,0,0,1-5.42-2.58l-2.48,6a14.1,14.1,0,0,0,8.28,2.38c6.11,0,9.43-3,9.43-8.14,0-8.35-10.34-6.29-10.34-9.46,0-1,.87-1.57,2.62-1.57a7.13,7.13,0,0,1,5.1,2.34l2.41-5.77a12.76,12.76,0,0,0-8-2.37c-5.83,0-8.87,3.6-8.87,7.86,0,8.93,10.33,6.07,10.33,9.46C80.91,132.28,79.87,132.94,77.88,132.94Z"/><rect class="cls-8" x="91.63" y="114.37" width="6.88" height="23.71"/><path class="cls-8" d="M122.18,125.93c0-9-3.42-12.19-9.63-12.19s-9.64,3.18-9.64,12.19v12.15h6.91v-5.73h5.55v5.73h6.81Zm-6.81.8h-5.55v-1.29c0-3.6.7-5.48,2.76-5.48s2.79,1.88,2.79,5.48Z"/><polygon class="cls-8" points="138.94 126.45 133.32 114.37 126.58 114.37 126.58 138.08 132.62 138.08 132.62 126 138.24 138.08 144.98 138.08 144.98 114.37 138.94 114.37 138.94 126.45"/><path class="cls-8" d="M53.72,143.75a57.23,57.23,0,0,0-6.26.32v18.15h5.27V157.6c.54,0,1.07,0,1.55,0,4.68,0,7.17-2.51,7.17-6.92C61.45,145.67,58.19,143.75,53.72,143.75Zm.13,9.62a6.05,6.05,0,0,1-1.12-.08v-5.21a8.31,8.31,0,0,1,1.15-.08c1.31,0,2.06.77,2.06,2.7S55.24,153.37,53.85,153.37Z"/><path class="cls-8" d="M78.69,162.22v-9.3c0-6.9-2.62-9.33-7.37-9.33s-7.38,2.43-7.38,9.33v9.3h5.29v-4.38h4.25v4.38Zm-9.46-8.69v-1c0-2.75.53-4.19,2.11-4.19s2.14,1.44,2.14,4.19v1Z"/><path class="cls-8" d="M96.08,158.16l-4.47-2.75c-.45,2-1.36,2.72-2.41,2.72-1.79,0-2.32-1.92-2.32-5s.64-5,2.27-5c1.18,0,2.14.74,2.46,2.75L96,148.19c-.73-3-3-4.6-6.85-4.6-4.71,0-7.75,2.7-7.75,9.57,0,7.35,3.5,9.54,7.8,9.54C92.09,162.7,94.85,161.74,96.08,158.16Z"/><rect class="cls-8" x="98.62" y="144.07" width="5.27" height="18.16"/><polygon class="cls-8" points="119.55 144.07 107.33 144.07 107.33 162.22 112.6 162.22 112.6 156.1 118.19 156.1 118.46 151.72 112.6 151.72 112.6 148.69 119.29 148.69 119.55 144.07"/><rect class="cls-8" x="122.25" y="144.07" width="5.27" height="18.16"/><path class="cls-8" d="M138.11,158.13c-1.79,0-2.33-1.92-2.33-5s.65-5,2.28-5c1.17,0,2.14.74,2.46,2.75l4.38-2.75c-.72-3-3.05-4.6-6.84-4.6-4.71,0-7.76,2.7-7.76,9.57,0,7.35,3.51,9.54,7.81,9.54,2.89,0,5.64-1,6.87-4.54l-4.46-2.75C140.06,157.41,139.15,158.13,138.11,158.13Z"/><path class="cls-8" d="M58.52,181.59v-7c0-5.17-2-7-5.53-7s-5.53,1.82-5.53,7v7h4V178.3h3.19v3.29Zm-7.09-6.52v-.74c0-2.06.4-3.14,1.58-3.14s1.61,1.08,1.61,3.14v.74Z"/><polygon class="cls-8" points="74.38 167.98 69.87 167.98 67.78 175.68 65.76 167.98 61.39 167.98 60.65 181.59 64.18 181.59 64.5 175.03 66.28 181.59 69.27 181.59 71.07 175.03 71.39 181.59 75.12 181.59 74.38 167.98"/><polygon class="cls-8" points="86.26 171.45 86.46 167.98 77.31 167.98 77.31 181.59 86.26 181.59 86.46 178.12 81.25 178.12 81.25 176.4 85.62 176.4 85.82 173.11 81.25 173.11 81.25 171.45 86.26 171.45"/><path class="cls-8" d="M100.11,178.12a3,3,0,0,1-2.81-1.68,4.21,4.21,0,0,0,1.93-3.89c0-2.83-1.82-4.81-5.65-4.81a46.9,46.9,0,0,0-4.83.24v13.61h4v-4.27h.74l.64.84c1.9,2.53,2.68,3.47,5.83,3.47Zm-6.71-4h-.7V171a6.28,6.28,0,0,1,.9-.08,1.35,1.35,0,0,1,1.48,1.54C95.08,173.59,94.58,174.13,93.4,174.13Z"/><rect class="cls-8" x="101.96" y="167.98" width="3.95" height="13.61"/><path class="cls-8" d="M113.8,171.07c.88,0,1.6.56,1.84,2.06l3.29-2.06c-.54-2.23-2.29-3.45-5.13-3.45-3.53,0-5.81,2-5.81,7.17,0,5.51,2.62,7.16,5.85,7.16,2.16,0,4.23-.72,5.15-3.41l-3.35-2.06c-.34,1.5-1,2-1.8,2-1.34,0-1.74-1.44-1.74-3.73S112.58,171.07,113.8,171.07Z"/><path class="cls-8" d="M131.9,181.59v-7c0-5.17-2-7-5.54-7s-5.53,1.82-5.53,7v7h4V178.3H128v3.29Zm-7.1-6.52v-.74c0-2.06.4-3.14,1.58-3.14s1.61,1.08,1.61,3.14v.74Z"/><polygon class="cls-8" points="141.52 174.91 138.29 167.98 134.42 167.98 134.42 181.59 137.89 181.59 137.89 174.65 141.12 181.59 144.98 181.59 144.98 167.98 141.52 167.98 141.52 174.91"/><path class="cls-8" d="M116.51,45.31a29.25,29.25,0,0,0-2.37-6.68,36.52,36.52,0,0,0-6.24,4.91,38.76,38.76,0,0,1,3,6.19A52,52,0,0,1,116.51,45.31Z"/><path class="cls-8" d="M94.12,88.68c-.25-.32-11.79,4.31-24.07,3.07a31.41,31.41,0,0,1-15.54-5.87c-3.37,2.37-6.53,5-6.53,5a56.66,56.66,0,0,0,26.08,6.58A35,35,0,0,0,85.6,94.69C89.16,92.82,94.37,89,94.12,88.68Z"/><path class="cls-8" d="M83.58,84.52c3.73,1.12,10.07,2,10.54,1.32.56-.86-2.28-18.14-11-28.51C74.65,46.76,59.9,40,59.9,40s-2.39,20.43,5.36,31.56A35,35,0,0,0,83.58,84.52Z"/><path class="cls-8" d="M96.29,77.16c.55-.13,2.63-13.45,11.92-24.3-3.88-10.53-10.8-19.75-11.92-21.32-1.12,1.57-8,10.79-11.92,21.32C93.66,63.71,95.74,77.28,96.29,77.16Z"/><path class="cls-8" d="M84.55,43.54a36.83,36.83,0,0,0-6.25-4.91,29.47,29.47,0,0,0-2.36,6.68,51.15,51.15,0,0,1,5.56,4.42A39.82,39.82,0,0,1,84.55,43.54Z"/><path class="cls-8" d="M70.87,89.05a44.7,44.7,0,0,0,8.34.74c4,0,12.34-1.62,12.22-2.09s-16.38-.73-25-8.2c-3.47-3-7.66-9.42-9.38-13.09-8.33,0-13,2.91-13,2.91S56.55,86.34,70.87,89.05Z"/><path class="cls-8" d="M126,79.5c-8.63,7.47-24.9,7.72-25,8.2s8.19,2.09,12.22,2.09a44.73,44.73,0,0,0,8.35-.74c14.32-2.71,26.83-19.73,26.83-19.73s-4.68-2.91-13-2.91C133.68,70.08,129.5,76.51,126,79.5Z"/><path class="cls-8" d="M137.94,85.88a31.49,31.49,0,0,1-15.55,5.87C110.12,93,98.58,88.36,98.33,88.68s5,4.14,8.51,6a35.1,35.1,0,0,0,11.55,2.72,56.66,56.66,0,0,0,26.08-6.58S141.31,88.25,137.94,85.88Z"/><path class="cls-8" d="M109.35,57.33C100.61,67.7,97.77,85,98.33,85.84c.46.71,6.81-.2,10.54-1.32a35,35,0,0,0,18.32-13C134.94,60.38,132.55,40,132.55,40S117.79,46.76,109.35,57.33Z"/></g></svg>