<svg xmlns="http://www.w3.org/2000/svg" viewBox="0 0 650 1277.27"><defs><style>.cls-1{fill:#f7f7f7;}.cls-2{fill:#c6802d;}.cls-3{fill:#465249;}.cls-4{fill:#c5802a;}.cls-5{fill:#e2dec9;}.cls-6{fill:#020000;}</style></defs><g id="BACKGROUNDS"><rect class="cls-1" y="627.02" width="650" height="325.25"/><rect class="cls-1" width="650" height="302.02"/><rect class="cls-2" y="1277.27" width="650" height="514.44"/></g><g id="ARTWORK"><polygon class="cls-3" points="325 302.02 0 302.02 0 627.02 325 627.02 650 627.02 650 302.02 325 302.02"/><polygon class="cls-3" points="325 952.27 0 952.27 0 1277.27 325 1277.27 650 1277.27 650 952.27 325 952.27"/><polygon class="cls-2" points="57.98 477.73 89.01 477.73 90.63 465.88 85.73 465.88 85.73 459.54 91.45 459.54 92.54 451.58 87.5 451.58 87.5 445.24 93.43 445.24 94.99 434.07 101.39 434.07 99.83 445.24 105.69 445.24 107.25 434.07 113.72 434.07 112.16 445.24 116.96 445.24 116.96 426.75 57.98 426.75 57.98 477.73"/><polygon class="cls-2" points="95.48 477.73 101.32 477.73 102.89 465.88 97.04 465.88 95.48 477.73"/><polygon class="cls-2" points="110.18 459.54 116.96 459.54 116.96 451.58 111.27 451.58 110.18 459.54"/><polygon class="cls-2" points="97.92 459.54 103.78 459.54 104.87 451.58 99.01 451.58 97.92 459.54"/><polygon class="cls-2" points="107.72 477.73 116.96 477.73 116.96 465.88 109.36 465.88 107.72 477.73"/><path class="cls-2" d="M152.48,452.53c4.77-1.91,6.13-4.84,6.13-10,0-8.38-4.84-12.13-12.4-12.13H128.44v47.34h17.09c10.08,0,14.85-4.29,14.85-13.89C160.38,457,156.9,453.55,152.48,452.53Zm-14-13.76h4.9c3.48,0,5,1.64,5,5.11s-1.22,5.45-4.83,5.45h-5Zm5.31,30.65h-5.31V457.37h5.31c4.36,0,5.65,2.17,5.65,5.92C149.41,467.51,147.71,469.42,143.76,469.42Z"/><path class="cls-2" d="M179,471.26c-1.77,0-2.32-.34-2.32-3V427.87h-9.6v39.64c0,7.56,1.22,11,8.44,11a16.86,16.86,0,0,0,5.59-1l-1-6.27A9.14,9.14,0,0,1,179,471.26Z"/><path class="cls-2" d="M199,442a22.84,22.84,0,0,0-13.48,4.22L189,452.8c2.66-1.56,5.72-3,9.06-3s3.88,1.5,3.88,5v1.29h-2.11c-10.35,0-15.12,3.27-15.12,11.38,0,6.87,3,11.16,10.28,11.16a10.32,10.32,0,0,0,8-3.61l.95,2.73h7.56V453.28C211.53,445.11,207.72,442,199,442Zm2.93,28.13a6.27,6.27,0,0,1-4.29,1.84c-2.52,0-3.4-1.23-3.4-4.7,0-3.75,1-5.32,7.21-5.32h.48Z"/><path class="cls-2" d="M233.54,470.85c-3.95,0-5.18-2.11-5.18-10.83s1.36-10.28,4.9-10.28a6.73,6.73,0,0,1,5.32,2.58l4.7-6.26a14.8,14.8,0,0,0-10.83-4c-9.54,0-14.51,5.24-14.51,18.12,0,12.66,4.84,18.45,14.92,18.45a14.51,14.51,0,0,0,10.48-3.95l-4-6.4C237.56,469.83,236.26,470.85,233.54,470.85Z"/><polygon class="cls-2" points="276.92 442.93 266.23 442.93 258.6 457.98 268.41 477.73 278.83 477.73 268.27 457.16 276.92 442.93"/><rect class="cls-2" x="248.93" y="427.87" width="9.6" height="49.85"/><polygon class="cls-2" points="305.4 448.38 294.09 448.38 294.09 430.39 283.88 430.39 283.88 477.73 294.09 477.73 294.09 457.09 305.4 457.09 305.4 477.73 315.61 477.73 315.61 430.39 305.4 430.39 305.4 448.38"/><path class="cls-2" d="M331.15,427.33a5.79,5.79,0,1,0,5.85,5.79A5.78,5.78,0,0,0,331.15,427.33Z"/><polygon class="cls-2" points="322.43 449.19 326.38 450.14 326.38 477.73 336.05 477.73 336.05 442.93 322.43 442.93 322.43 449.19"/><path class="cls-2" d="M357.57,456.14c-3.88-1.09-4.9-1.43-4.9-3.68,0-1.91,1.36-2.72,3.47-2.72a15.5,15.5,0,0,1,7.29,1.7l2.38-7.22A23.37,23.37,0,0,0,355.12,442c-7.42,0-11.85,3.61-11.85,10.56,0,6.53,3.2,9.26,8.31,10.76,4.43,1.29,5.92,1.84,5.92,4.29,0,2.11-1.49,3.06-4.69,3.06a15.39,15.39,0,0,1-8.18-2.58l-3.06,7.28a25.38,25.38,0,0,0,12.8,3.2c8.86,0,12.74-4.22,12.74-11.51S363,457.64,357.57,456.14Z"/><path class="cls-2" d="M386.79,471.32c-1.7,0-2.58-.67-2.58-3.67V450.21h6.4v-7.29h-6.4V432.78l-9.61,1.63v8.51h-3.54v7.29h3.54V469.9c0,6.67,3.89,8.71,9.81,8.71a14.69,14.69,0,0,0,6.67-1.49l-1.29-6.54A8,8,0,0,1,386.79,471.32Z"/><path class="cls-2" d="M410.23,442c-9.61,0-15.12,5-15.12,18.12s5.51,18.45,15.12,18.45,15.12-5.1,15.12-18.18S419.83,442,410.23,442Zm.06,29.49c-3.81,0-4.83-2.25-4.83-11.1,0-9.26,1-11.24,4.77-11.24s4.83,1.77,4.83,11C415.06,469.08,414,471.53,410.29,471.53Z"/><path class="cls-2" d="M440.74,446.88l-.88-4H432v34.81h9.61V452.94a7.47,7.47,0,0,1,5-1.64,6.66,6.66,0,0,1,3.47,1l1.7-9.6a13,13,0,0,0-2.72-.35A10.19,10.19,0,0,0,440.74,446.88Z"/><path class="cls-2" d="M472.07,460.57c-.81,3.4-1.22,6-1.56,8.24h-.07a65.39,65.39,0,0,0-1.57-8l-4.29-17.85H454.5L465,477.73h2.32c-1.84,3.95-3.68,5.11-9.81,6.06l1.91,7.83c9.94-1.16,13.21-3.4,16.27-13.48l10.56-35.22H476.16Z"/><path class="cls-2" d="M507,430.39H491.69v47.34h15.67c13.48,0,18-8.58,18-24.18C525.34,436.32,518.93,430.39,507,430.39ZM506.74,469h-4.83V439h4.63c5.59,0,7.76,2.45,7.76,14.23C514.3,466.49,512.26,469,506.74,469Z"/><polygon class="cls-2" points="531.26 436.05 535.83 437.07 535.83 471.12 531.26 472.14 531.26 477.73 550.81 477.73 550.81 472.14 546.25 471.12 546.25 437.07 550.81 436.05 550.81 430.39 531.26 430.39 531.26 436.05"/><path class="cls-2" d="M579.22,430.39H568.66l-13.48,47.34H565.6l2.31-9.6H579l2.18,9.6H592Zm-9.4,30,2-8a82.29,82.29,0,0,0,1.84-9.87h.07a76.77,76.77,0,0,0,1.7,9.87l1.84,8Z"/><path class="cls-3" d="M260.36,53.35h0V246.67H371.08V53.35H260.36Zm110.3,192.89H260.79v-63.5H370.66Z"/><path d="M269.2,192.14h2.06c1.3,0,2.29.59,2.29,1.89s-1,2-2.44,2h-.5v2H269.2Zm1.92,2.79c.7,0,1-.28,1-.88s-.3-.85-1-.85h-.54v1.73Z"/><path d="M274.52,192.14h2.07c1.42,0,2.22.59,2.22,1.71a1.55,1.55,0,0,1-1.27,1.59v0a2.9,2.9,0,0,1,.71.86l1,1.65h-1.54l-1-1.66c-.38-.59-.48-.64-.71-.64h-.07V198h-1.42Zm2,2.55c.59,0,.87-.28.87-.75s-.28-.74-.92-.74h-.56v1.49Z"/><path d="M280.15,192.14h1.43V198h-1.43Z"/><path d="M283.51,192.14h1.38l1.09,3.47c.12.41.24.88.27,1h0c0-.11.16-.58.28-1l1.14-3.47h1.38l.79,5.83h-1.44l-.33-2.75c0-.43-.09-.77-.09-.86h0c0,.1-.11.45-.24.84l-.86,2.77h-1.39l-.86-2.77c-.1-.36-.2-.75-.23-.84h0c0,.1,0,.48-.07.87L284,198H282.7Z"/><path d="M292.53,192.14h1.36l2.29,5.83h-1.54l-.34-1h-2.23l-.34,1H290.3Zm1.37,3.73-.42-1.2a7.66,7.66,0,0,1-.29-1h0c0,.11-.13.54-.3,1l-.42,1.2Z"/><path d="M297,192.14h2.07c1.42,0,2.23.59,2.23,1.71a1.56,1.56,0,0,1-1.28,1.59v0a2.76,2.76,0,0,1,.71.86l1.05,1.65h-1.55l-1-1.66c-.38-.59-.47-.64-.71-.64h-.07V198H297Zm2,2.55c.59,0,.87-.28.87-.75s-.28-.74-.92-.74h-.56v1.49Z"/><path d="M303.67,195.77l-1.93-3.63h1.57l1.13,2.32h0l1.12-2.32H307l-1.86,3.63V198h-1.42Z"/><path d="M309,195.05a2.89,2.89,0,0,1,3.07-3,3.13,3.13,0,0,1,1.78.47l-.62,1a2.15,2.15,0,0,0-1.19-.33c-1,0-1.54.78-1.54,1.81s.51,1.89,1.57,1.89a1.89,1.89,0,0,0,1.27-.44l.58,1a3.06,3.06,0,0,1-1.88.62A2.87,2.87,0,0,1,309,195.05Z"/><path d="M314.26,195.06a2.92,2.92,0,0,1,3.06-3,3,3,0,1,1,0,6.05A2.94,2.94,0,0,1,314.26,195.06Zm4.62,0c0-1-.43-1.9-1.52-1.9s-1.6.85-1.6,1.86.48,1.93,1.56,1.93S318.88,196.07,318.88,195.06Z"/><path d="M321.44,192.14h1.43v4.7H325V198h-3.56Z"/><path d="M325.4,195.06a2.92,2.92,0,0,1,3.06-3,3,3,0,1,1,0,6.05A2.94,2.94,0,0,1,325.4,195.06Zm4.62,0c0-1-.43-1.9-1.52-1.9s-1.6.85-1.6,1.86.48,1.93,1.56,1.93S330,196.07,330,195.06Z"/><path d="M332.56,192.14h2.06c1.42,0,2.23.59,2.23,1.71a1.55,1.55,0,0,1-1.27,1.59v0a3.07,3.07,0,0,1,.71.86l1,1.65h-1.54l-1-1.66c-.37-.59-.47-.64-.71-.64H334V198h-1.42Zm2,2.55c.59,0,.87-.28.87-.75s-.28-.74-.92-.74H334v1.49Z"/><path d="M269.3,211.14h1.79c1.3,0,2.05.58,2.05,1.62a1.52,1.52,0,0,1-1.48,1.55v0a2.61,2.61,0,0,1,.65.79l1.28,1.85h-1.11l-1.12-1.65c-.56-.81-.65-.88-1-.88h-.08V217h-1Zm1.76,2.56c.75,0,1.09-.32,1.09-.9s-.36-.88-1.15-.88h-.71v1.78Z"/><path d="M274.14,214.05a2.93,2.93,0,0,1,3.07-3,3,3,0,0,1,1.88.54l-.46.73a2.23,2.23,0,0,0-1.44-.44,1.94,1.94,0,0,0-2,2.15,2,2,0,0,0,2,2.25,2.11,2.11,0,0,0,1.21-.29v-1.36H277.2v-.79h2.12v2.68a3.61,3.61,0,0,1-2.18.58A2.9,2.9,0,0,1,274.14,214.05Z"/><path d="M280.71,211.14h1.77c1.08,0,2,.37,2,1.45a1.28,1.28,0,0,1-1,1.32h0a1.42,1.42,0,0,1,1.28,1.42c0,1.2-.92,1.63-2.24,1.63h-1.74Zm1.65,2.44c.76,0,1.1-.27,1.1-.86s-.37-.8-1.08-.8h-.69v1.66Zm.05,2.61c.86,0,1.28-.26,1.28-.9s-.35-1-1.22-1h-.78v1.86Z"/><path d="M287.3,218.34l2.27-4.83h-2.5v-.78h3.56v.55l-2.54,5.45Z"/><path d="M291.21,214.86a2.16,2.16,0,0,1,2.23-2.23,2.12,2.12,0,0,1,2.23,2.21,2.17,2.17,0,0,1-2.25,2.24A2.13,2.13,0,0,1,291.21,214.86Zm3.46,0c0-.85-.43-1.47-1.25-1.47s-1.22.59-1.22,1.45.43,1.48,1.24,1.48S294.67,215.72,294.67,214.86Z"/><path d="M296.83,217.28c0-.4-.45-.44-.45-.95a.57.57,0,0,1,.61-.57.74.74,0,0,1,.72.83,2.79,2.79,0,0,1-.62,1.61h-.62A1.88,1.88,0,0,0,296.83,217.28Z"/><path d="M300.36,215.54a1.93,1.93,0,0,1,1.17-1.6c-.72-.42-1-.86-1-1.41a1.6,1.6,0,0,1,1.73-1.5c1.12,0,1.78.61,1.78,1.44,0,.55-.38,1-1.09,1.39.81.44,1.22.94,1.22,1.62,0,1-.8,1.6-1.9,1.6C301,217.08,300.36,216.37,300.36,215.54Zm2.84-.06c0-.38-.26-.73-1-1.15-.6.37-.86.72-.86,1.16a.86.86,0,0,0,1,.85A.84.84,0,0,0,303.2,215.48Zm-.11-3a.8.8,0,0,0-1.6,0c0,.34.21.64.81,1C302.85,213.15,303.09,212.83,303.09,212.52Z"/><path d="M305.9,213.56l-1,.31-.19-.74,1.39-.4h.72V217h-.92Z"/><path d="M308.45,217.28c0-.4-.45-.44-.45-.95a.57.57,0,0,1,.61-.57.74.74,0,0,1,.72.83,2.79,2.79,0,0,1-.62,1.61h-.62A1.79,1.79,0,0,0,308.45,217.28Z"/><path d="M312,218.34l2.27-4.83h-2.5v-.78h3.56v.55l-2.54,5.45Z"/><path d="M317.91,217h-2.73v-.59l2.85-3.65h.81v3.51h.94V217h-.94v1.55h-.93Zm0-.73V214h0l-1.69,2.21Z"/><path d="M268.94,224.56a2.86,2.86,0,0,1,2.95-3,3,3,0,0,1,1.7.45l-.47.73a2.14,2.14,0,0,0-1.26-.36,1.93,1.93,0,0,0-1.87,2.16c0,1.19.62,2.23,1.9,2.23a2.11,2.11,0,0,0,1.37-.46l.43.69a3,3,0,0,1-4.75-2.43Z"/><path d="M275.17,221.65h.95l1.3,3.77c.15.45.25.8.32,1h0c.07-.23.18-.59.33-1l1.32-3.77h.95l.8,5.84h-1l-.43-3.37q-.08-.63-.09-.84h0c0,.16-.12.44-.25.83l-1.17,3.38h-1L276,224.11l-.26-.83h0c0,.17,0,.46-.08.85l-.41,3.36h-.9Z"/><path d="M283.41,225.28l-2-3.63h1.1l1.38,2.71h0l1.37-2.71h1l-1.89,3.63v2.21h-1Z"/><path d="M287.19,221.65h1v2.69l2.16-2.69h1.11l-2.23,2.73,2.36,3.11h-1.19l-2.21-2.93v2.93h-1Z"/><path d="M292.13,223.84a.67.67,0,1,1,.67.65A.65.65,0,0,1,292.13,223.84Zm0,3.07a.67.67,0,0,1,1.34,0,.67.67,0,1,1-1.34,0Z"/><path d="M296.1,225.08a3.32,3.32,0,0,1,3.55-3.53l.21.75a3,3,0,0,0-2.06.68,2.28,2.28,0,0,0-.66,1.38,1.9,1.9,0,0,1,1.18-.39,1.65,1.65,0,0,1,1.77,1.75,1.85,1.85,0,0,1-1.95,1.88C296.67,227.6,296.1,226.33,296.1,225.08Zm3,.73c0-.71-.33-1.11-1-1.11a1.58,1.58,0,0,0-1.05.37v.15c0,.93.32,1.64,1.08,1.64A1,1,0,0,0,299.1,225.81Z"/><path d="M300.85,228.37a3.29,3.29,0,0,0,2.14-.69,2,2,0,0,0,.68-1.31,1.94,1.94,0,0,1-1.19.38,1.67,1.67,0,0,1-1.77-1.76,1.87,1.87,0,0,1,2-1.85c1.49,0,2,1.29,2,2.53,0,2.07-1.31,3.44-3.65,3.44Zm2.87-2.69v-.16c0-.91-.32-1.64-1.07-1.64a1,1,0,0,0-1,1.08.94.94,0,0,0,1,1.07A1.72,1.72,0,0,0,303.72,225.68Z"/><path d="M306,227.8c0-.41-.45-.44-.45-1a.58.58,0,0,1,.61-.58.75.75,0,0,1,.72.84,2.81,2.81,0,0,1-.62,1.61h-.62A1.79,1.79,0,0,0,306,227.8Z"/><path d="M309.43,229.07l.17-.76a2.08,2.08,0,0,0,.56.07c.8,0,1.49-.42,1.49-1.23S311,226,310.22,226a3.28,3.28,0,0,0-.56,0l.19-2.78h2.69V224h-1.85l-.09,1.28a1.81,1.81,0,0,1,2,1.84c0,1.17-.93,2-2.51,2A3.86,3.86,0,0,1,309.43,229.07Z"/><path d="M313.26,227.09c.76-.59,2.43-1.79,2.43-2.57,0-.38-.24-.61-.74-.61a1.55,1.55,0,0,0-1.06.47l-.48-.59a2.48,2.48,0,0,1,1.65-.65c.93,0,1.63.38,1.63,1.23s-1.21,1.85-1.94,2.39l.53,0h1.8v.75h-3.82Z"/><path d="M318.31,227.8c0-.41-.45-.44-.45-1a.58.58,0,0,1,.61-.58.75.75,0,0,1,.72.84,2.81,2.81,0,0,1-.62,1.61H318A1.79,1.79,0,0,0,318.31,227.8Z"/><path d="M321.78,225.08a3.33,3.33,0,0,1,3.56-3.53l.2.75a3,3,0,0,0-2.05.68,2.23,2.23,0,0,0-.66,1.38A1.9,1.9,0,0,1,324,224a1.65,1.65,0,0,1,1.77,1.75,1.85,1.85,0,0,1-1.95,1.88C322.36,227.6,321.78,226.33,321.78,225.08Zm3,.73c0-.71-.33-1.11-1-1.11a1.61,1.61,0,0,0-1.06.37v.15c0,.93.33,1.64,1.09,1.64A1,1,0,0,0,324.79,225.81Z"/><path d="M326.24,229.09l.14-.76a2.78,2.78,0,0,0,.6.06c.82,0,1.49-.38,1.49-1.08s-.65-1-1.58-1v-.68c.63,0,1.41-.42,1.41-1.06,0-.41-.26-.64-.76-.64a1.39,1.39,0,0,0-1,.42l-.45-.6a2.28,2.28,0,0,1,1.57-.59c1,0,1.59.58,1.59,1.27a1.56,1.56,0,0,1-1.18,1.39h0a1.49,1.49,0,0,1,1.36,1.45c0,1.18-1,1.88-2.4,1.88A5.23,5.23,0,0,1,326.24,229.09Z"/><path d="M330.68,227.8c0-.41-.46-.44-.46-1a.59.59,0,0,1,.62-.58.76.76,0,0,1,.72.84,2.83,2.83,0,0,1-.63,1.61h-.61A1.88,1.88,0,0,0,330.68,227.8Z"/><path d="M334.18,229.09l.14-.76a3,3,0,0,0,.61.06c.81,0,1.49-.38,1.49-1.08s-.65-1-1.58-1v-.68c.62,0,1.41-.42,1.41-1.06,0-.41-.26-.64-.76-.64a1.37,1.37,0,0,0-1,.42l-.45-.6a2.28,2.28,0,0,1,1.57-.59c1,0,1.59.58,1.59,1.27a1.56,1.56,0,0,1-1.18,1.39h0a1.49,1.49,0,0,1,1.36,1.45c0,1.18-1.05,1.88-2.4,1.88A5.52,5.52,0,0,1,334.18,229.09Z"/><path d="M338,226.05a1.93,1.93,0,0,1,1.17-1.59c-.72-.42-1-.86-1-1.41a1.59,1.59,0,0,1,1.73-1.5c1.12,0,1.78.6,1.78,1.44,0,.55-.38,1-1.09,1.39.81.44,1.22.94,1.22,1.62,0,1-.8,1.6-1.9,1.6C338.66,227.6,338,226.89,338,226.05Zm2.84-.05c0-.38-.26-.74-1-1.16-.6.38-.86.73-.86,1.17a.87.87,0,0,0,1,.85A.84.84,0,0,0,340.85,226Zm-.11-3a.8.8,0,0,0-1.6,0c0,.34.21.64.81,1C340.5,223.67,340.74,223.35,340.74,223Z"/><path class="cls-4" d="M379,53.35h0V246.67H489.69V53.35H379Zm110.3,192.89H379.4v-63.5H489.27Z"/><path d="M387.78,197.51l.58-1a2.23,2.23,0,0,0,1.23.42c.55,0,.84-.25.84-.58s-.61-.55-1.29-.9a1.82,1.82,0,0,1-1.22-1.77,1.75,1.75,0,0,1,1.95-1.67,2.82,2.82,0,0,1,1.76.5l-.55,1a2.38,2.38,0,0,0-1.12-.35c-.44,0-.7.18-.7.53s.46.52,1.08.8c.77.34,1.45.74,1.45,1.8s-.81,1.79-2.16,1.79A3,3,0,0,1,387.78,197.51Z"/><path d="M392.8,192.14h3.49v1.15h-2.08v1.13h1.84v1.09h-1.84v1.31h2.14V198H392.8Z"/><path d="M397.16,195.05a2.89,2.89,0,0,1,3.07-3,3.19,3.19,0,0,1,1.79.47l-.63,1a2.13,2.13,0,0,0-1.19-.33c-1,0-1.54.78-1.54,1.81s.52,1.89,1.57,1.89a1.94,1.94,0,0,0,1.28-.44l.58,1a3.12,3.12,0,0,1-1.89.62A2.87,2.87,0,0,1,397.16,195.05Z"/><path d="M402.44,195.06a2.92,2.92,0,0,1,3.06-3,3,3,0,1,1,0,6.05A2.93,2.93,0,0,1,402.44,195.06Zm4.61,0c0-1-.42-1.9-1.52-1.9s-1.6.85-1.6,1.86.48,1.93,1.57,1.93S407.05,196.07,407.05,195.06Z"/><path d="M409.59,192.14H411l1.89,2.71a12,12,0,0,1,.64,1h0c0-.06,0-.5,0-1v-2.78h1.28V198h-1.29L411.45,195c-.36-.5-.54-.83-.6-.91h0a7.58,7.58,0,0,1,0,.81v3h-1.28Z"/><path d="M416.18,192.14h1.9c2.29,0,3.34,1.15,3.34,2.83s-1.07,3-3.39,3h-1.85Zm2,4.71a1.61,1.61,0,0,0,1.79-1.84c0-1.21-.58-1.75-1.83-1.75h-.5v3.59Z"/><path d="M423.83,192.14h1.36l2.29,5.83h-1.54l-.34-1h-2.23l-.34,1H421.6Zm1.38,3.73-.43-1.2a7.66,7.66,0,0,1-.29-1h0c0,.11-.13.54-.3,1l-.42,1.2Z"/><path d="M428.28,192.14h2.07c1.42,0,2.23.59,2.23,1.71a1.56,1.56,0,0,1-1.27,1.59v0a3.07,3.07,0,0,1,.71.86l1,1.65h-1.54l-1-1.66c-.37-.59-.47-.64-.71-.64h-.07V198h-1.42Zm2,2.55c.58,0,.86-.28.86-.75s-.28-.74-.92-.74h-.56v1.49Z"/><path d="M435,195.77,433,192.14h1.57l1.13,2.32h0l1.12-2.32h1.38l-1.86,3.63V198H435Z"/><path d="M440.29,195.05a2.89,2.89,0,0,1,3.07-3,3.13,3.13,0,0,1,1.78.47l-.62,1a2.13,2.13,0,0,0-1.19-.33c-1,0-1.54.78-1.54,1.81s.52,1.89,1.57,1.89a1.94,1.94,0,0,0,1.28-.44l.57,1a3.06,3.06,0,0,1-1.88.62A2.87,2.87,0,0,1,440.29,195.05Z"/><path d="M445.57,195.06a2.92,2.92,0,0,1,3.05-3,3,3,0,1,1,0,6.05A2.93,2.93,0,0,1,445.57,195.06Zm4.61,0c0-1-.43-1.9-1.52-1.9s-1.6.85-1.6,1.86.48,1.93,1.56,1.93S450.18,196.07,450.18,195.06Z"/><path d="M452.74,192.14h1.43v4.7h2.13V198h-3.56Z"/><path d="M456.7,195.06a2.92,2.92,0,0,1,3.06-3,3,3,0,1,1,0,6.05A2.94,2.94,0,0,1,456.7,195.06Zm4.62,0c0-1-.43-1.9-1.52-1.9s-1.6.85-1.6,1.86.48,1.93,1.56,1.93S461.32,196.07,461.32,195.06Z"/><path d="M463.86,192.14h2.06c1.42,0,2.23.59,2.23,1.71a1.55,1.55,0,0,1-1.27,1.59v0a2.9,2.9,0,0,1,.71.86l1,1.65h-1.54l-1-1.66c-.38-.59-.48-.64-.71-.64h-.07V198h-1.42Zm2,2.55c.59,0,.87-.28.87-.75s-.28-.74-.92-.74h-.56v1.49Z"/><path d="M388.33,211.14h1.78c1.3,0,2.05.58,2.05,1.62a1.52,1.52,0,0,1-1.48,1.55v0a2.61,2.61,0,0,1,.65.79l1.28,1.85H391.5l-1.11-1.65c-.57-.81-.66-.88-1-.88h-.08V217h-1Zm1.75,2.56c.75,0,1.09-.32,1.09-.9s-.35-.88-1.14-.88h-.71v1.78Z"/><path d="M393.16,214.05a2.93,2.93,0,0,1,3.07-3,3,3,0,0,1,1.89.54l-.47.73a2.23,2.23,0,0,0-1.44-.44,1.93,1.93,0,0,0-2,2.15c0,1.19.6,2.25,2,2.25a2.11,2.11,0,0,0,1.21-.29v-1.36h-1.16v-.79h2.12v2.68a3.61,3.61,0,0,1-2.18.58A2.9,2.9,0,0,1,393.16,214.05Z"/><path d="M399.74,211.14h1.76c1.09,0,2,.37,2,1.45a1.27,1.27,0,0,1-1,1.32h0a1.42,1.42,0,0,1,1.29,1.42c0,1.2-.92,1.63-2.25,1.63h-1.73Zm1.64,2.44c.77,0,1.1-.27,1.1-.86s-.37-.8-1.08-.8h-.69v1.66Zm.06,2.61c.85,0,1.27-.26,1.27-.9s-.34-1-1.22-1h-.78v1.86Z"/><path d="M407.35,213.56l-1,.31-.19-.74,1.39-.4h.72V217h-.92Z"/><path d="M409.44,217.85a3.36,3.36,0,0,0,2.14-.68,2.06,2.06,0,0,0,.67-1.32,1.93,1.93,0,0,1-1.19.39,1.66,1.66,0,0,1-1.76-1.76,1.87,1.87,0,0,1,2-1.85c1.5,0,2,1.28,2,2.52,0,2.08-1.32,3.44-3.66,3.44Zm2.86-2.69V215c0-.91-.31-1.64-1.07-1.64a1,1,0,0,0-.95,1.08c0,.65.33,1.07,1,1.07A1.64,1.64,0,0,0,412.3,215.16Z"/><path d="M414,215.54a1.91,1.91,0,0,1,1.17-1.6c-.72-.42-1-.86-1-1.41a1.59,1.59,0,0,1,1.72-1.5c1.13,0,1.78.61,1.78,1.44,0,.55-.37,1-1.08,1.39.8.44,1.21.94,1.21,1.62,0,1-.79,1.6-1.9,1.6S414,216.37,414,215.54Zm2.84-.06c0-.38-.26-.73-1-1.15-.6.37-.86.72-.86,1.16a.86.86,0,0,0,1,.85A.84.84,0,0,0,416.87,215.48Zm-.11-3a.73.73,0,0,0-.8-.76.74.74,0,0,0-.81.74c0,.34.21.64.82,1C416.52,213.15,416.76,212.83,416.76,212.52Z"/><path d="M419.13,217.28c0-.4-.45-.44-.45-.95a.57.57,0,0,1,.61-.57.74.74,0,0,1,.72.83,2.79,2.79,0,0,1-.62,1.61h-.62A1.88,1.88,0,0,0,419.13,217.28Z"/><path d="M423.69,213.56l-1,.31-.19-.74,1.38-.4h.73V217h-.92Z"/><path d="M425.53,216.57c.76-.59,2.44-1.79,2.44-2.57,0-.37-.25-.61-.75-.61a1.55,1.55,0,0,0-1.06.47l-.48-.58a2.45,2.45,0,0,1,1.66-.66c.92,0,1.63.38,1.63,1.23s-1.21,1.85-1.94,2.4c0,0,.31,0,.52,0h1.8V217h-3.82Z"/><path d="M429.89,215.54a1.92,1.92,0,0,1,1.16-1.6c-.72-.42-1-.86-1-1.41a1.6,1.6,0,0,1,1.73-1.5c1.12,0,1.78.61,1.78,1.44,0,.55-.38,1-1.09,1.39.81.44,1.22.94,1.22,1.62,0,1-.8,1.6-1.9,1.6C430.53,217.08,429.89,216.37,429.89,215.54Zm2.84-.06c0-.38-.27-.73-1-1.15-.59.37-.86.72-.86,1.16a.87.87,0,0,0,1,.85A.84.84,0,0,0,432.73,215.48Zm-.12-3a.8.8,0,0,0-1.6,0c0,.34.21.64.81,1C432.37,213.15,432.61,212.83,432.61,212.52Z"/><path d="M435,217.28c0-.4-.46-.44-.46-.95a.57.57,0,0,1,.61-.57.74.74,0,0,1,.72.83,2.79,2.79,0,0,1-.62,1.61h-.61A1.88,1.88,0,0,0,435,217.28Z"/><path d="M441.08,217h-2.73v-.59l2.85-3.65H442v3.51h.93V217H442v1.55h-.93Zm0-.73V214h0l-1.69,2.21Z"/><path d="M443.35,218.57l.14-.76a2.67,2.67,0,0,0,.6.07c.82,0,1.49-.39,1.49-1.09s-.65-1-1.57-1v-.68c.62,0,1.41-.42,1.41-1.06,0-.4-.27-.63-.77-.63a1.42,1.42,0,0,0-1,.41l-.45-.6a2.29,2.29,0,0,1,1.57-.58c1,0,1.59.58,1.59,1.27a1.55,1.55,0,0,1-1.18,1.38h0a1.48,1.48,0,0,1,1.36,1.46c0,1.17-1.05,1.87-2.4,1.87A5.23,5.23,0,0,1,443.35,218.57Z"/><path d="M388,224.56a2.86,2.86,0,0,1,2.94-3,3,3,0,0,1,1.7.45l-.46.73a2.19,2.19,0,0,0-1.26-.36,1.93,1.93,0,0,0-1.88,2.16c0,1.19.62,2.23,1.9,2.23a2.11,2.11,0,0,0,1.37-.46l.43.69a2.95,2.95,0,0,1-4.74-2.43Z"/><path d="M394.19,221.65h.95l1.3,3.77c.15.45.26.8.33,1h0c.07-.23.18-.59.34-1l1.31-3.77h1l.79,5.84h-1l-.43-3.37c-.06-.42-.09-.7-.1-.84h0c0,.16-.12.44-.25.83l-1.17,3.38h-1l-1.18-3.38c-.13-.38-.21-.67-.27-.83h0c0,.17,0,.46-.08.85l-.42,3.36h-.9Z"/><path d="M402.43,225.28l-1.95-3.63h1.11l1.37,2.71h0l1.38-2.71h1l-1.89,3.63v2.21h-1Z"/><path d="M406.21,221.65h1v2.69l2.15-2.69h1.11l-2.23,2.73,2.37,3.11h-1.2l-2.2-2.93v2.93h-1Z"/><path d="M411.16,223.84a.64.64,0,0,1,.66-.65.65.65,0,1,1-.66.65Zm0,3.07a.64.64,0,0,1,.66-.65.65.65,0,0,1,.67.65.67.67,0,0,1-.67.67A.66.66,0,0,1,411.16,226.91Z"/><path d="M415,227.09c.76-.59,2.43-1.79,2.43-2.57,0-.38-.24-.61-.74-.61a1.55,1.55,0,0,0-1.06.47l-.49-.59a2.53,2.53,0,0,1,1.66-.65c.93,0,1.63.38,1.63,1.23s-1.21,1.85-1.94,2.39l.53,0h1.8v.75H415Z"/><path d="M419.44,225.38a2.16,2.16,0,0,1,2.23-2.24,2.12,2.12,0,0,1,2.23,2.21,2.17,2.17,0,0,1-2.24,2.25A2.13,2.13,0,0,1,419.44,225.38Zm3.46,0c0-.85-.43-1.47-1.24-1.47s-1.22.58-1.22,1.44.42,1.48,1.23,1.48S422.9,226.24,422.9,225.38Z"/><path d="M425.07,227.8c0-.41-.46-.44-.46-1a.58.58,0,0,1,.61-.58.75.75,0,0,1,.72.84,2.81,2.81,0,0,1-.62,1.61h-.61A1.88,1.88,0,0,0,425.07,227.8Z"/><path d="M428.53,229.07l.16-.76a2.08,2.08,0,0,0,.56.07c.8,0,1.49-.42,1.49-1.23s-.61-1.16-1.42-1.16a3.13,3.13,0,0,0-.56,0l.18-2.78h2.69V224h-1.85l-.09,1.28a1.81,1.81,0,0,1,2,1.84c0,1.17-.92,2-2.51,2A3.71,3.71,0,0,1,428.53,229.07Z"/><path d="M432.42,229.09l.14-.76a2.87,2.87,0,0,0,.6.06c.82,0,1.49-.38,1.49-1.08s-.64-1-1.57-1v-.68c.62,0,1.41-.42,1.41-1.06,0-.41-.27-.64-.77-.64a1.39,1.39,0,0,0-1,.42l-.45-.6a2.3,2.3,0,0,1,1.57-.59c1,0,1.59.58,1.59,1.27a1.56,1.56,0,0,1-1.17,1.39h0a1.48,1.48,0,0,1,1.35,1.45c0,1.18-1.05,1.88-2.4,1.88A5.34,5.34,0,0,1,432.42,229.09Z"/><path d="M436.86,227.8c0-.41-.45-.44-.45-1a.58.58,0,0,1,.61-.58.75.75,0,0,1,.72.84,2.81,2.81,0,0,1-.62,1.61h-.62A1.88,1.88,0,0,0,436.86,227.8Z"/><path d="M440.46,228.37a3.28,3.28,0,0,0,2.13-.69,2,2,0,0,0,.68-1.31,1.94,1.94,0,0,1-1.19.38,1.66,1.66,0,0,1-1.76-1.76,1.87,1.87,0,0,1,2-1.85c1.49,0,2,1.29,2,2.53,0,2.07-1.31,3.44-3.65,3.44Zm2.86-2.69v-.16c0-.91-.32-1.64-1.07-1.64a1,1,0,0,0-.95,1.08c0,.65.33,1.07,1,1.07A1.72,1.72,0,0,0,443.32,225.68Z"/><path d="M445.11,228.37a3.31,3.31,0,0,0,2.14-.69,2,2,0,0,0,.67-1.31,1.92,1.92,0,0,1-1.19.38A1.66,1.66,0,0,1,445,225a1.87,1.87,0,0,1,2-1.85c1.5,0,2,1.29,2,2.53,0,2.07-1.32,3.44-3.66,3.44Zm2.87-2.69v-.16c0-.91-.31-1.64-1.07-1.64a1,1,0,0,0-1,1.08c0,.65.33,1.07,1,1.07A1.75,1.75,0,0,0,448,225.68Z"/><path d="M450.23,227.8c0-.41-.46-.44-.46-1a.58.58,0,0,1,.62-.58.75.75,0,0,1,.71.84,2.81,2.81,0,0,1-.62,1.61h-.61A1.88,1.88,0,0,0,450.23,227.8Z"/><path d="M456.32,227.49h-2.73v-.6l2.85-3.64h.81v3.5h.94v.74h-.94V229h-.93Zm0-.74v-2.2h0l-1.69,2.2Z"/><path class="cls-5" d="M608.3,53.35H497.58V246.67H608.3V53.35ZM498,246.24v-63.5H607.87v63.5Z"/><path d="M506.34,197.51l.58-1a2.23,2.23,0,0,0,1.23.42c.55,0,.84-.25.84-.58s-.61-.55-1.29-.9a1.82,1.82,0,0,1-1.22-1.77,1.75,1.75,0,0,1,1.95-1.67,2.82,2.82,0,0,1,1.76.5l-.55,1a2.38,2.38,0,0,0-1.12-.35c-.44,0-.7.18-.7.53s.46.52,1.08.8c.77.34,1.45.74,1.45,1.8s-.81,1.79-2.16,1.79A3,3,0,0,1,506.34,197.51Z"/><path d="M511.36,192.14h3.49v1.15h-2.08v1.13h1.84v1.09h-1.84v1.31h2.14V198h-3.55Z"/><path d="M515.72,195.05a2.89,2.89,0,0,1,3.07-3,3.19,3.19,0,0,1,1.79.47l-.63,1a2.13,2.13,0,0,0-1.19-.33c-1,0-1.54.78-1.54,1.81s.52,1.89,1.57,1.89a1.94,1.94,0,0,0,1.28-.44l.58,1a3.12,3.12,0,0,1-1.89.62A2.87,2.87,0,0,1,515.72,195.05Z"/><path d="M521,195.06a2.92,2.92,0,0,1,3-3,3,3,0,1,1,0,6.05A2.93,2.93,0,0,1,521,195.06Zm4.61,0c0-1-.42-1.9-1.52-1.9s-1.6.85-1.6,1.86S523,197,524.05,197,525.61,196.07,525.61,195.06Z"/><path d="M528.15,192.14h1.43l1.89,2.71a12,12,0,0,1,.64,1h0c0-.06,0-.5,0-1v-2.78h1.28V198h-1.29L530,195c-.36-.5-.54-.83-.6-.91h0a7.58,7.58,0,0,1,0,.81v3h-1.28Z"/><path d="M534.74,192.14h1.9c2.29,0,3.34,1.15,3.34,2.83s-1.07,3-3.39,3h-1.85Zm2,4.71a1.61,1.61,0,0,0,1.79-1.84c0-1.21-.58-1.75-1.83-1.75h-.5v3.59Z"/><path d="M542.39,192.14h1.36L546,198H544.5l-.34-1h-2.23l-.34,1h-1.43Zm1.38,3.73-.43-1.2a7.66,7.66,0,0,1-.29-1h0c0,.11-.13.54-.3,1l-.42,1.2Z"/><path d="M546.84,192.14h2.07c1.42,0,2.23.59,2.23,1.71a1.56,1.56,0,0,1-1.27,1.59v0a3.07,3.07,0,0,1,.71.86l1,1.65h-1.54l-1-1.66c-.38-.59-.47-.64-.71-.64h-.07V198h-1.42Zm2,2.55c.58,0,.86-.28.86-.75s-.28-.74-.92-.74h-.56v1.49Z"/><path d="M553.53,195.77l-1.93-3.63h1.57l1.13,2.32h0l1.12-2.32h1.38L555,195.77V198h-1.42Z"/><path d="M558.85,195.05a2.89,2.89,0,0,1,3.07-3,3.13,3.13,0,0,1,1.78.47l-.62,1a2.13,2.13,0,0,0-1.19-.33c-1,0-1.54.78-1.54,1.81s.51,1.89,1.57,1.89a1.94,1.94,0,0,0,1.28-.44l.57,1a3.06,3.06,0,0,1-1.88.62A2.87,2.87,0,0,1,558.85,195.05Z"/><path d="M564.13,195.06a2.92,2.92,0,0,1,3-3,3,3,0,1,1,0,6.05A2.93,2.93,0,0,1,564.13,195.06Zm4.61,0c0-1-.43-1.9-1.52-1.9s-1.6.85-1.6,1.86.48,1.93,1.56,1.93S568.74,196.07,568.74,195.06Z"/><path d="M571.3,192.14h1.43v4.7h2.13V198H571.3Z"/><path d="M575.26,195.06a2.92,2.92,0,0,1,3.06-3,3,3,0,1,1,0,6.05A2.94,2.94,0,0,1,575.26,195.06Zm4.62,0c0-1-.43-1.9-1.52-1.9s-1.6.85-1.6,1.86.48,1.93,1.56,1.93S579.88,196.07,579.88,195.06Z"/><path d="M582.42,192.14h2.06c1.42,0,2.23.59,2.23,1.71a1.55,1.55,0,0,1-1.27,1.59v0a2.9,2.9,0,0,1,.71.86l1,1.65h-1.54l-1-1.66c-.38-.59-.48-.64-.71-.64h-.07V198h-1.42Zm2,2.55c.59,0,.87-.28.87-.75s-.28-.74-.92-.74h-.56v1.49Z"/><path d="M506.89,211.14h1.78c1.3,0,2.05.58,2.05,1.62a1.52,1.52,0,0,1-1.48,1.55v0a2.61,2.61,0,0,1,.65.79l1.28,1.85h-1.11L509,215.32c-.57-.81-.66-.88-1-.88h-.07V217h-1Zm1.75,2.56c.75,0,1.09-.32,1.09-.9s-.36-.88-1.14-.88h-.71v1.78Z"/><path d="M511.72,214.05a2.93,2.93,0,0,1,3.07-3,3,3,0,0,1,1.89.54l-.47.73a2.23,2.23,0,0,0-1.44-.44,1.93,1.93,0,0,0-2,2.15c0,1.19.6,2.25,2,2.25a2.11,2.11,0,0,0,1.21-.29v-1.36h-1.16v-.79h2.12v2.68a3.61,3.61,0,0,1-2.18.58A2.9,2.9,0,0,1,511.72,214.05Z"/><path d="M518.3,211.14h1.76c1.09,0,2,.37,2,1.45a1.27,1.27,0,0,1-1,1.32h0a1.42,1.42,0,0,1,1.29,1.42c0,1.2-.92,1.63-2.25,1.63H518.3Zm1.64,2.44c.77,0,1.1-.27,1.1-.86s-.37-.8-1.08-.8h-.69v1.66Zm.06,2.61c.85,0,1.27-.26,1.27-.9s-.34-1-1.22-1h-.78v1.86Z"/><path d="M524.7,216.57c.77-.59,2.44-1.79,2.44-2.57,0-.37-.25-.61-.74-.61a1.59,1.59,0,0,0-1.07.47l-.48-.58a2.49,2.49,0,0,1,1.66-.66c.93,0,1.63.38,1.63,1.23s-1.21,1.85-1.94,2.4c0,0,.32,0,.53,0h1.79V217H524.7Z"/><path d="M529.05,216.57c.76-.59,2.44-1.79,2.44-2.57,0-.37-.25-.61-.75-.61a1.57,1.57,0,0,0-1.06.47l-.48-.58a2.49,2.49,0,0,1,1.66-.66c.92,0,1.63.38,1.63,1.23s-1.21,1.85-1.94,2.4c0,0,.31,0,.53,0h1.79V217h-3.82Z"/><path d="M533.49,218.34l2.27-4.83h-2.5v-.78h3.56v.55l-2.55,5.45Z"/><path d="M537.51,217.28c0-.4-.46-.44-.46-.95a.58.58,0,0,1,.62-.57.74.74,0,0,1,.71.83,2.79,2.79,0,0,1-.62,1.61h-.61A1.88,1.88,0,0,0,537.51,217.28Z"/><path d="M540.86,216.57c.76-.59,2.43-1.79,2.43-2.57,0-.37-.24-.61-.74-.61a1.55,1.55,0,0,0-1.06.47l-.49-.58a2.49,2.49,0,0,1,1.66-.66c.93,0,1.63.38,1.63,1.23s-1.21,1.85-1.94,2.4c0,0,.32,0,.53,0h1.8V217h-3.82Z"/><path d="M545.2,216.57c.77-.59,2.44-1.79,2.44-2.57,0-.37-.25-.61-.75-.61a1.59,1.59,0,0,0-1.06.47l-.48-.58a2.49,2.49,0,0,1,1.66-.66c.93,0,1.63.38,1.63,1.23s-1.21,1.85-1.94,2.4c0,0,.32,0,.53,0H549V217H545.2Z"/><path d="M549.53,218.57l.14-.76a2.78,2.78,0,0,0,.61.07c.81,0,1.49-.39,1.49-1.09s-.65-1-1.58-1v-.68c.62,0,1.41-.42,1.41-1.06,0-.4-.26-.63-.76-.63a1.4,1.4,0,0,0-1,.41l-.45-.6a2.26,2.26,0,0,1,1.57-.58c1,0,1.58.58,1.58,1.27a1.56,1.56,0,0,1-1.17,1.38h0a1.49,1.49,0,0,1,1.36,1.46c0,1.17-1,1.87-2.4,1.87A5.4,5.4,0,0,1,549.53,218.57Z"/><path d="M554,217.28c0-.4-.46-.44-.46-.95a.57.57,0,0,1,.61-.57.74.74,0,0,1,.72.83,2.79,2.79,0,0,1-.62,1.61h-.61A1.88,1.88,0,0,0,554,217.28Z"/><path d="M557.32,216.57c.77-.59,2.44-1.79,2.44-2.57,0-.37-.25-.61-.74-.61a1.59,1.59,0,0,0-1.07.47l-.48-.58a2.49,2.49,0,0,1,1.66-.66c.93,0,1.63.38,1.63,1.23s-1.21,1.85-1.94,2.4c0,0,.32,0,.53,0h1.79V217h-3.82Z"/><path d="M561.77,214.86a2.16,2.16,0,0,1,2.23-2.23,2.12,2.12,0,0,1,2.23,2.21,2.17,2.17,0,0,1-2.25,2.24A2.13,2.13,0,0,1,561.77,214.86Zm3.46,0c0-.85-.43-1.47-1.25-1.47s-1.21.59-1.21,1.45.42,1.48,1.23,1.48S565.23,215.72,565.23,214.86Z"/><path d="M566.71,216.57c.76-.59,2.44-1.79,2.44-2.57,0-.37-.25-.61-.75-.61a1.55,1.55,0,0,0-1.06.47l-.48-.58a2.45,2.45,0,0,1,1.66-.66c.92,0,1.63.38,1.63,1.23s-1.21,1.85-1.94,2.4c0,0,.31,0,.52,0h1.8V217h-3.82Z"/><path d="M506.53,224.56a2.86,2.86,0,0,1,2.94-3,3,3,0,0,1,1.7.45l-.46.73a2.2,2.2,0,0,0-1.27-.36,1.93,1.93,0,0,0-1.87,2.16c0,1.19.62,2.23,1.9,2.23a2.11,2.11,0,0,0,1.37-.46l.43.69a2.95,2.95,0,0,1-4.74-2.43Z"/><path d="M512.75,221.65h1l1.3,3.77c.15.45.26.8.33,1h0c.07-.23.18-.59.34-1l1.31-3.77h1l.79,5.84h-1l-.43-3.37c-.06-.42-.09-.7-.1-.84h0c0,.16-.12.44-.25.83l-1.17,3.38h-1l-1.18-3.38c-.13-.38-.22-.67-.27-.83h0c0,.17,0,.46-.08.85l-.42,3.36H512Z"/><path d="M521,225.28l-2-3.63h1.11l1.37,2.71h0l1.38-2.71h1L522,225.28v2.21h-1Z"/><path d="M524.77,221.65h1v2.69l2.15-2.69H529l-2.23,2.73,2.37,3.11H528l-2.2-2.93v2.93h-1Z"/><path d="M529.72,223.84a.64.64,0,0,1,.66-.65.65.65,0,1,1-.66.65Zm0,3.07a.64.64,0,0,1,.66-.65.65.65,0,0,1,.67.65.67.67,0,0,1-.67.67A.66.66,0,0,1,529.72,226.91Z"/><path d="M534.76,224.07l-1,.32-.2-.75,1.39-.39h.73v4.24h-.93Z"/><path d="M537.81,224.07l-1,.32-.2-.75,1.39-.39h.73v4.24h-.93Z"/><path d="M540.37,227.8c0-.41-.46-.44-.46-1a.58.58,0,0,1,.61-.58.75.75,0,0,1,.72.84,2.81,2.81,0,0,1-.62,1.61H540A1.88,1.88,0,0,0,540.37,227.8Z"/><path d="M543.9,226.05a1.91,1.91,0,0,1,1.16-1.59c-.72-.42-1-.86-1-1.41a1.59,1.59,0,0,1,1.73-1.5c1.12,0,1.78.6,1.78,1.44,0,.55-.38,1-1.09,1.39.81.44,1.22.94,1.22,1.62,0,1-.8,1.6-1.9,1.6S543.9,226.89,543.9,226.05Zm2.84-.05c0-.38-.27-.74-1-1.16-.59.38-.86.73-.86,1.17a.87.87,0,0,0,1,.85A.85.85,0,0,0,546.74,226Zm-.12-3a.8.8,0,0,0-1.6,0c0,.34.21.64.81,1C546.39,223.67,546.62,223.35,546.62,223Z"/><path d="M549,227.8c0-.41-.46-.44-.46-1a.58.58,0,0,1,.62-.58.75.75,0,0,1,.71.84,2.81,2.81,0,0,1-.62,1.61h-.61A1.88,1.88,0,0,0,549,227.8Z"/><path d="M552.35,227.09c.76-.59,2.43-1.79,2.43-2.57,0-.38-.24-.61-.74-.61a1.55,1.55,0,0,0-1.06.47l-.49-.59a2.53,2.53,0,0,1,1.66-.65c.93,0,1.63.38,1.63,1.23s-1.21,1.85-1.94,2.39l.53,0h1.8v.75h-3.82Z"/><path d="M557.81,224.07l-1,.32-.2-.75,1.39-.39h.72v4.24h-.92Z"/><path d="M560.37,227.8c0-.41-.46-.44-.46-1a.58.58,0,0,1,.61-.58.75.75,0,0,1,.72.84,2.81,2.81,0,0,1-.62,1.61H560A1.88,1.88,0,0,0,560.37,227.8Z"/><path d="M563.81,225.38a2.16,2.16,0,0,1,2.23-2.24,2.12,2.12,0,0,1,2.23,2.21A2.17,2.17,0,0,1,566,227.6,2.13,2.13,0,0,1,563.81,225.38Zm3.46,0c0-.85-.43-1.47-1.24-1.47s-1.22.58-1.22,1.44.42,1.48,1.23,1.48S567.27,226.24,567.27,225.38Z"/><path d="M43.38,69.72h4.95c4,0,6.13,1.24,6.13,5.19,0,3.34-1.17,5.47-5.84,5.47H47v6.19H43.38Zm5.19,7.73c1.45,0,2.16-.48,2.16-2.28s-.68-2.4-2-2.4H47v4.68Z"/><path d="M56.78,74.18h2.79l.32,1.41a3.61,3.61,0,0,1,3-1.63,4.73,4.73,0,0,1,1,.12l-.61,3.42A2.41,2.41,0,0,0,62,77.16a2.72,2.72,0,0,0-1.8.58v8.83H56.78Z"/><path d="M66.65,76.75l-1.41-.34V74.18h4.85V86.57H66.65Zm-.34-6a2.06,2.06,0,1,1,2.06,2A2.06,2.06,0,0,1,66.31,70.71Z"/><path d="M73.07,74.18h2.79l.27,1.14a4.69,4.69,0,0,1,3.34-1.45,2.73,2.73,0,0,1,2.67,1.43,4.77,4.77,0,0,1,3.37-1.43c1.91,0,3,.84,3,3.34v9.36H85.12V78c0-1.17-.39-1.39-1-1.39a2.62,2.62,0,0,0-1.6.71v9.26H79.08V78c0-1.17-.36-1.39-1-1.39a2.56,2.56,0,0,0-1.6.73v9.24H73.07Z"/><path d="M90.74,82.91c0-2.89,1.7-4,5.38-4h.75V78.4c0-1.24-.21-1.77-1.38-1.77a6.49,6.49,0,0,0-3.22,1.06L91,75.37a8.16,8.16,0,0,1,4.8-1.5c3.1,0,4.46,1.09,4.46,4v8.71H97.6l-.34-1a3.67,3.67,0,0,1-2.86,1.28C91.81,86.88,90.74,85.35,90.74,82.91Zm6.13,1V81H96.7c-2.2,0-2.56.55-2.56,1.89s.31,1.67,1.21,1.67A2.2,2.2,0,0,0,96.87,83.87Z"/><path d="M103.13,74.18h2.78l.32,1.41a3.61,3.61,0,0,1,3-1.63,4.73,4.73,0,0,1,1,.12l-.61,3.42a2.41,2.41,0,0,0-1.23-.34,2.72,2.72,0,0,0-1.8.58v8.83h-3.41Z"/><path d="M112.22,88.72c2.18-.34,2.83-.75,3.49-2.15h-.83l-3.73-12.39h3.59l1.52,6.35a23.36,23.36,0,0,1,.56,2.86h0c.12-.8.26-1.72.55-2.93l1.46-6.28h3.59l-3.76,12.53c-1.09,3.59-2.26,4.39-5.79,4.8Z"/><path d="M129.74,69.72h8.85V72.8h-5.21v3.51h4.09v3h-4.09v7.28h-3.64Z"/><path d="M139.68,80.31c0-4.65,2-6.44,5.38-6.44s5.38,1.86,5.38,6.54-2,6.47-5.38,6.47S139.68,85,139.68,80.31Zm7.1,0c0-3.27-.39-3.9-1.72-3.9s-1.7.7-1.7,4,.37,4,1.72,4S146.78,83.49,146.78,80.31Z"/><path d="M152.81,74.18h2.79l.29,1.19a4.78,4.78,0,0,1,3.49-1.5c2.11,0,3.23.89,3.23,3.41v9.29h-3.45V78.06c0-1.19-.43-1.46-1.13-1.46a2.64,2.64,0,0,0-1.8.73v9.24h-3.42Z"/><path d="M164.55,74.18h1.26v-3l3.41-.58v3.61h2.28v2.59h-2.28V83c0,1.06.32,1.31.92,1.31a2.86,2.86,0,0,0,1.07-.27l.46,2.33a5.2,5.2,0,0,1-2.37.53c-2.11,0-3.49-.73-3.49-3.1v-7h-1.26Z"/><path d="M42.45,101.24V95.59h1.82v5.87c0,.79.14,1.16.93,1.16a1.74,1.74,0,0,0,1.16-.39V95.59h1.82V104h-1.3l-.23-.58a2.29,2.29,0,0,1-1.8.73C43.37,104.17,42.45,103.36,42.45,101.24Z"/><path d="M49.77,97.82h1.39l.15.6a2.37,2.37,0,0,1,1.74-.75c1.06,0,1.61.44,1.61,1.71V104H52.94V99.76c0-.59-.22-.72-.57-.72a1.31,1.31,0,0,0-.89.36V104H49.77Z"/><path d="M56.4,99.11l-.71-.17V97.82h2.43V104H56.4Zm-.17-3a1,1,0,1,1,1,1A1,1,0,0,1,56.23,96.09Z"/><path d="M59.21,97.82h.63V96.31L61.55,96v1.8h1.14v1.3H61.55v3.1c0,.54.15.66.46.66a1.32,1.32,0,0,0,.53-.14l.23,1.17a2.62,2.62,0,0,1-1.19.26c-1,0-1.74-.36-1.74-1.55v-3.5h-.63Z"/><path d="M63.87,95.59h2.48c2,0,3.06.62,3.06,2.6,0,1.67-.58,2.74-2.92,2.74h-.8V104H63.87Zm2.6,3.87c.72,0,1.08-.24,1.08-1.14s-.34-1.2-1-1.2h-.85v2.34Z"/><path d="M70.54,97.82h1.39l.16.71a1.83,1.83,0,0,1,1.49-.82,2,2,0,0,1,.49.07l-.31,1.7a1.22,1.22,0,0,0-.61-.17,1.29,1.29,0,0,0-.9.3V104H70.54Z"/><path d="M74.71,100.89c0-2.33,1-3.22,2.69-3.22s2.69.93,2.69,3.27-1,3.23-2.69,3.23S74.71,103.22,74.71,100.89Zm3.55,0c0-1.64-.19-2-.86-2s-.85.35-.85,2,.18,2,.86,2S78.26,102.48,78.26,100.89Z"/><path d="M81.1,99.81h2.77v1.72H81.1Z"/><path d="M85.24,95.59H88.4a2,2,0,0,1,2.21,2.16,1.61,1.61,0,0,1-1.09,1.78,1.83,1.83,0,0,1,1.4,2c0,1.71-.84,2.48-2.64,2.48h-3ZM87.92,99c.64,0,.86-.34.86-1s-.27-.91-.89-.91H87V99Zm0,3.58c.7,0,1-.34,1-1.09s-.23-1.06-1-1.06H87v2.15Z"/><path d="M91.83,100.89c0-2.33,1-3.22,2.69-3.22s2.69.93,2.69,3.27-1,3.23-2.69,3.23S91.83,103.22,91.83,100.89Zm3.55,0c0-1.64-.19-2-.86-2s-.84.35-.84,2,.18,2,.86,2S95.38,102.48,95.38,100.89Z"/><path d="M98.4,102.2v-7h1.71v7.18c0,.47.1.54.41.54l.21,0,.17,1.12a3.08,3.08,0,0,1-1,.18C98.62,104.15,98.4,103.54,98.4,102.2Z"/><path d="M101.62,101c0-2.6.67-3.32,2.07-3.32a2,2,0,0,1,1.41.58v-3.1h1.71V104h-1.39l-.15-.58a2,2,0,0,1-1.51.73C102.45,104.17,101.62,103.42,101.62,101Zm3.48,1.48V99.38a1.17,1.17,0,0,0-.8-.34c-.68,0-.83.34-.83,1.92s.14,1.84.76,1.84A1.22,1.22,0,0,0,105.1,102.47Z"/><path d="M42.29,120.21V115.7h1.45v4.69c0,.63.12.93.75.93a1.43,1.43,0,0,0,.93-.31V115.7h1.45v6.73h-1l-.19-.46a1.83,1.83,0,0,1-1.44.59C43,122.56,42.29,121.91,42.29,120.21Z"/><path d="M47.75,122.1l.43-1a2.22,2.22,0,0,0,1.17.37c.45,0,.67-.14.67-.44s-.22-.43-.85-.61A1.42,1.42,0,0,1,48,118.86c0-1,.63-1.5,1.69-1.5a3.28,3.28,0,0,1,1.52.31l-.34,1a2.27,2.27,0,0,0-1-.24c-.3,0-.49.12-.49.39s.14.37.7.52c.76.21,1.35.52,1.35,1.56s-.55,1.64-1.81,1.64A3.55,3.55,0,0,1,47.75,122.1Z"/><path d="M52.09,119.93c0-1.87.78-2.57,2.08-2.57,1.49,0,2.07.81,2.07,2.63v.4H53.57c0,.9.3,1.09.9,1.09a1.67,1.67,0,0,0,1.08-.42l.59.91a2.4,2.4,0,0,1-1.65.59C52.84,122.56,52.09,121.79,52.09,119.93Zm1.48-.47h1.28c0-.8-.11-1.12-.64-1.12S53.61,118.57,53.57,119.46Z"/><path d="M59,117.48h.5v-.59c0-1.41.7-1.63,1.44-1.63a2.39,2.39,0,0,1,1.14.24l-.33.93a1,1,0,0,0-.48-.11c-.28,0-.41.13-.41.46v.7h.84v1h-.84v3.91H59.51v-3.91H59Z"/><path d="M62.27,119.93c0-1.86.79-2.57,2.15-2.57s2.15.74,2.15,2.61-.78,2.59-2.15,2.59S62.27,121.79,62.27,119.93Zm2.84,0c0-1.3-.15-1.56-.69-1.56s-.68.28-.68,1.6.15,1.58.69,1.58S65.11,121.2,65.11,119.93Z"/><path d="M67.54,117.48h1.11l.13.56a1.46,1.46,0,0,1,1.19-.65,2,2,0,0,1,.39,0l-.25,1.37a.91.91,0,0,0-.49-.14,1.06,1.06,0,0,0-.72.24v3.52H67.54Z"/><path d="M74.44,116.94H73V115.7h4.34v1.24H75.87v5.49H74.44Z"/><path d="M78.47,118.51l-.56-.14v-.89h1.94v5H78.47Zm-.13-2.41a.82.82,0,1,1,.82.81A.82.82,0,0,1,78.34,116.1Z"/><path d="M80.67,117.48h.51v-1.21l1.36-.23v1.44h.91v1h-.91V121c0,.43.13.52.37.52a1.12,1.12,0,0,0,.43-.1l.18.93a2.15,2.15,0,0,1-1,.21c-.84,0-1.39-.29-1.39-1.24v-2.8h-.51Z"/><path d="M84.33,121v-5.64h1.36v5.75c0,.37.08.42.33.42h.17l.13.89a2.24,2.24,0,0,1-.79.15C84.5,122.54,84.33,122.06,84.33,121Z"/><path d="M86.92,119.93c0-1.87.77-2.57,2.07-2.57,1.49,0,2.07.81,2.07,2.63v.4H88.4c0,.9.29,1.09.89,1.09a1.68,1.68,0,0,0,1.09-.42L91,122a2.4,2.4,0,0,1-1.65.59C87.66,122.56,86.92,121.79,86.92,119.93Zm1.48-.47h1.28c0-.8-.12-1.12-.64-1.12S88.44,118.57,88.4,119.46Z"/><path d="M94,119.08c0-2.61,1-3.51,2.68-3.51a2.7,2.7,0,0,1,1.73.53l-.57,1.1a1.65,1.65,0,0,0-1.08-.4c-.94,0-1.16.43-1.16,2.19s.34,2.34,1.17,2.34a1.5,1.5,0,0,0,1.12-.48l.63,1.06a2.49,2.49,0,0,1-1.81.65C94.88,122.56,94,121.51,94,119.08Z"/><path d="M99.11,121c0-1.15.68-1.62,2.15-1.62h.3v-.18c0-.5-.08-.71-.55-.71a2.54,2.54,0,0,0-1.29.43l-.49-.93a3.23,3.23,0,0,1,1.92-.6c1.24,0,1.78.43,1.78,1.59v3.48h-1.07l-.14-.38a1.47,1.47,0,0,1-1.14.51C99.54,122.56,99.11,122,99.11,121Zm2.45.39v-1.17h-.06c-.88,0-1,.23-1,.76s.13.67.48.67A.89.89,0,0,0,101.56,121.36Z"/><path d="M104,117.48h1.11l.13.56a1.47,1.47,0,0,1,1.19-.65,1.86,1.86,0,0,1,.39,0l-.24,1.37a1,1,0,0,0-.5-.14,1.06,1.06,0,0,0-.72.24v3.52H104Z"/><path d="M107.32,120c0-2.07.53-2.65,1.64-2.65a1.67,1.67,0,0,1,1.14.46v-2.48h1.36v7.09h-1.11l-.12-.46a1.56,1.56,0,0,1-1.21.59C108,122.56,107.32,122,107.32,120Zm2.78,1.18v-2.47a1,1,0,0,0-.64-.27c-.55,0-.67.27-.67,1.54s.11,1.47.61,1.47A1,1,0,0,0,110.1,121.19Z"/><path d="M112.25,122.1l.44-1a2.19,2.19,0,0,0,1.16.37c.46,0,.67-.14.67-.44s-.21-.43-.85-.61a1.42,1.42,0,0,1-1.18-1.53c0-1,.63-1.5,1.69-1.5a3.25,3.25,0,0,1,1.52.31l-.34,1a2.27,2.27,0,0,0-1-.24c-.3,0-.49.12-.49.39s.15.37.7.52c.76.21,1.35.52,1.35,1.56s-.55,1.64-1.81,1.64A3.55,3.55,0,0,1,112.25,122.1Z"/><path d="M116.78,123.13c.41-.13.65-.33.66-.65a.84.84,0,0,1-.69-.85.79.79,0,0,1,.8-.82,1,1,0,0,1,1,1.11,1.77,1.77,0,0,1-1.54,1.89Z"/><path d="M122.06,115.7h1.46v2.56h1.6V115.7h1.46v6.73h-1.46V119.5h-1.6v2.93h-1.46Z"/><path d="M127.65,119.93c0-1.87.77-2.57,2.07-2.57,1.49,0,2.07.81,2.07,2.63v.4h-2.66c.05.9.29,1.09.89,1.09a1.72,1.72,0,0,0,1.09-.42l.59.91a2.4,2.4,0,0,1-1.65.59C128.39,122.56,127.65,121.79,127.65,119.93Zm1.48-.47h1.28c0-.8-.12-1.12-.64-1.12S129.17,118.57,129.13,119.46Z"/><path d="M132.45,121c0-1.15.68-1.62,2.16-1.62h.3v-.18c0-.5-.09-.71-.56-.71a2.48,2.48,0,0,0-1.28.43l-.5-.93a3.23,3.23,0,0,1,1.92-.6c1.24,0,1.78.43,1.78,1.59v3.48H135.2l-.14-.38a1.47,1.47,0,0,1-1.14.51C132.88,122.56,132.45,122,132.45,121Zm2.46.39v-1.17h-.07c-.88,0-1,.23-1,.76s.13.67.49.67A.93.93,0,0,0,134.91,121.36Z"/><path d="M137.17,120c0-2.07.53-2.65,1.64-2.65a1.67,1.67,0,0,1,1.14.46v-2.48h1.36v7.09H140.2l-.12-.46a1.54,1.54,0,0,1-1.21.59C137.83,122.56,137.17,122,137.17,120Zm2.78,1.18v-2.47a1,1,0,0,0-.64-.27c-.55,0-.67.27-.67,1.54s.12,1.47.61,1.47A1,1,0,0,0,140,121.19Z"/><path d="M142.29,119.93c0-1.87.77-2.57,2.07-2.57,1.49,0,2.07.81,2.07,2.63v.4h-2.66c0,.9.29,1.09.89,1.09a1.72,1.72,0,0,0,1.09-.42l.59.91a2.4,2.4,0,0,1-1.65.59C143,122.56,142.29,121.79,142.29,119.93Zm1.48-.47h1.28c0-.8-.12-1.12-.64-1.12S143.81,118.57,143.77,119.46Z"/><path d="M147.36,117.48h1.11l.13.56a1.46,1.46,0,0,1,1.19-.65,2,2,0,0,1,.39,0l-.25,1.37a.91.91,0,0,0-.49-.14,1.06,1.06,0,0,0-.72.24v3.52h-1.36Z"/><path d="M150.45,122.1l.44-1a2.16,2.16,0,0,0,1.16.37c.45,0,.67-.14.67-.44s-.22-.43-.85-.61a1.42,1.42,0,0,1-1.18-1.53c0-1,.63-1.5,1.69-1.5a3.25,3.25,0,0,1,1.52.31l-.34,1a2.27,2.27,0,0,0-1-.24c-.3,0-.49.12-.49.39s.14.37.7.52c.76.21,1.35.52,1.35,1.56s-.55,1.64-1.81,1.64A3.55,3.55,0,0,1,150.45,122.1Z"/><path d="M156.9,121c0-1.15.67-1.62,2.15-1.62h.3v-.18c0-.5-.09-.71-.55-.71a2.48,2.48,0,0,0-1.29.43L157,118a3.25,3.25,0,0,1,1.92-.6c1.24,0,1.78.43,1.78,1.59v3.48h-1.07l-.14-.38a1.47,1.47,0,0,1-1.14.51C157.32,122.56,156.9,122,156.9,121Zm2.45.39v-1.17h-.07c-.88,0-1,.23-1,.76s.13.67.49.67A.93.93,0,0,0,159.35,121.36Z"/><path d="M161.82,117.48h1.12l.11.48a1.92,1.92,0,0,1,1.4-.6c.84,0,1.29.35,1.29,1.36v3.71h-1.38V119c0-.47-.18-.58-.46-.58a1.05,1.05,0,0,0-.71.29v3.69h-1.37Z"/><path d="M166.66,120c0-2.07.53-2.65,1.65-2.65a1.64,1.64,0,0,1,1.13.46v-2.48h1.37v7.09h-1.12l-.11-.46a1.56,1.56,0,0,1-1.22.59C167.32,122.56,166.66,122,166.66,120Zm2.78,1.18v-2.47a1,1,0,0,0-.64-.27c-.54,0-.67.27-.67,1.54s.12,1.47.61,1.47A1,1,0,0,0,169.44,121.19Z"/><path d="M175.5,116.94h-1.45V115.7h4.34v1.24h-1.45v5.49H175.5Z"/><path d="M179.52,118.51l-.56-.14v-.89h1.94v5h-1.38Zm-.13-2.41a.83.83,0,1,1,.82.81A.82.82,0,0,1,179.39,116.1Z"/><path d="M181.73,117.48h.5v-1.21l1.37-.23v1.44h.91v1h-.91V121c0,.43.12.52.36.52a1.12,1.12,0,0,0,.43-.1l.18.93a2.15,2.15,0,0,1-.95.21c-.84,0-1.39-.29-1.39-1.24v-2.8h-.5Z"/><path d="M185.38,121v-5.64h1.37v5.75c0,.37.07.42.33.42h.16l.14.89a2.36,2.36,0,0,1-.8.15C185.55,122.54,185.38,122.06,185.38,121Z"/><path d="M188,119.93c0-1.87.77-2.57,2.07-2.57,1.5,0,2.08.81,2.08,2.63v.4h-2.67c.05.9.29,1.09.89,1.09a1.68,1.68,0,0,0,1.09-.42l.59.91a2.4,2.4,0,0,1-1.65.59C188.71,122.56,188,121.79,188,119.93Zm1.48-.47h1.28c0-.8-.12-1.12-.64-1.12S189.48,118.57,189.44,119.46Z"/><path d="M192.63,122.1l.44-1a2.19,2.19,0,0,0,1.16.37c.46,0,.67-.14.67-.44s-.21-.43-.84-.61a1.42,1.42,0,0,1-1.19-1.53c0-1,.63-1.5,1.69-1.5a3.22,3.22,0,0,1,1.52.31l-.34,1a2.26,2.26,0,0,0-1-.24c-.3,0-.5.12-.5.39s.15.37.7.52c.76.21,1.36.52,1.36,1.56s-.56,1.64-1.82,1.64A3.55,3.55,0,0,1,192.63,122.1Z"/><path d="M197.12,121.67a.86.86,0,0,1,.86-.86.87.87,0,0,1,.89.86.89.89,0,0,1-.89.88A.88.88,0,0,1,197.12,121.67Z"/><path d="M42.75,177.34l1-1.62a5.68,5.68,0,0,0,3.88,1.4c2.23,0,3-1,3-2.74,0-2-1.14-2.62-3.17-3.39-2.77-1.07-4-2.18-4-5s1.8-4.31,4.71-4.31a6.43,6.43,0,0,1,4,1.16l-.92,1.74a4.81,4.81,0,0,0-3-1c-1.6,0-2.62.66-2.62,2.33s.65,2.18,2.67,3c2.59,1,4.62,2,4.62,5.35,0,2.47-1.23,4.78-5.18,4.78A7.86,7.86,0,0,1,42.75,177.34Z"/><path d="M55.86,172.64c0-4.61,1.89-6.38,4.75-6.38s4.54,1.65,4.54,6v.82H58.09c0,3.32.78,4.15,2.79,4.15a4.21,4.21,0,0,0,2.86-1.14l1.14,1.5a5.74,5.74,0,0,1-4,1.41C57.66,179,55.86,177.19,55.86,172.64Zm2.26-1.09h4.82c0-2.79-.63-3.64-2.37-3.64C59.16,167.91,58.29,168.64,58.12,171.55Z"/><path d="M67.79,172.64c0-4.63,1.84-6.38,4.85-6.38a4.5,4.5,0,0,1,3.44,1.38l-1.21,1.46A2.9,2.9,0,0,0,72.56,168c-1.84,0-2.54.8-2.54,4.61s.77,4.63,2.71,4.63A3.07,3.07,0,0,0,75,176.15l1.29,1.38A4.58,4.58,0,0,1,72.61,179C69.51,179,67.79,177,67.79,172.64Z"/><path d="M78.38,172.64c0-4.56,2-6.38,4.92-6.38s5,1.82,5,6.38-2,6.4-4.94,6.4S78.38,177.19,78.38,172.64Zm7.68,0c0-3.75-.89-4.75-2.74-4.75s-2.71,1-2.71,4.73.9,4.75,2.74,4.75S86.06,176.39,86.06,172.66Z"/><path d="M91.81,166.58h1.62l.32,1.5a5.26,5.26,0,0,1,3.71-1.82,2.65,2.65,0,0,1,2.93,3v9.5H98.3v-8.85c0-1.38-.38-1.76-1.48-1.76a4.94,4.94,0,0,0-2.93,1.45v9.16H91.81Z"/><path d="M103.93,172.73c0-4.55,1.33-6.47,4.16-6.47a4.76,4.76,0,0,1,3.23,1.48v-6.57h2.08v17.55h-1.62l-.34-1.26a4.47,4.47,0,0,1-3.37,1.58C105.74,179,103.93,177.73,103.93,172.73Zm7.39,3.2v-6.56a4.11,4.11,0,0,0-2.69-1.31c-1.72,0-2.47.63-2.47,4.53s.63,4.65,2.27,4.65A4,4,0,0,0,111.32,175.93Z"/><path d="M116.84,175.25c0-2.76,1.63-4,5.6-4h1v-1c0-1.35-.17-2.18-1.75-2.18a7.53,7.53,0,0,0-3.54,1.12l-.8-1.6a8.51,8.51,0,0,1,4.56-1.34c2.38,0,3.61,1.07,3.61,3.66v8.8H123.9l-.34-1.21A4.18,4.18,0,0,1,120.5,179C118.18,179,116.84,177.75,116.84,175.25Zm6.6.68v-3.22h-.73c-3,0-3.64.78-3.64,2.54,0,1.6.51,2.14,1.7,2.14A3.7,3.7,0,0,0,123.44,175.93Z"/><path d="M129.71,166.58h1.63l.34,1.72a4.43,4.43,0,0,1,3.42-1.94,1.11,1.11,0,0,1,.43.07l-.24,2.23a2.52,2.52,0,0,0-.73-.09,3.8,3.8,0,0,0-2.76,1.23v8.92h-2.09Z"/><path d="M138.17,182c2-.51,2.67-1.06,3.35-3.32H141l-3.78-12.14h2.28l2,7.15c.27,1,.56,2.4.73,3.32h0a31.13,31.13,0,0,1,.76-3.32l2.15-7.15h2.16l-4,12.53c-1.17,3.59-2.21,4.12-4.71,4.63Z"/><path d="M156,162h8.31v1.92h-6.08V169h4.94v1.92h-4.94v7.8H156Z"/><path d="M166.34,172.64c0-4.56,2-6.38,4.92-6.38s5,1.82,5,6.38-2,6.4-4.94,6.4S166.34,177.19,166.34,172.64Zm7.68,0c0-3.75-.9-4.75-2.74-4.75s-2.71,1-2.71,4.73.89,4.75,2.74,4.75S174,176.39,174,172.66Z"/><path d="M179.77,166.58h1.62l.31,1.5a5.29,5.29,0,0,1,3.71-1.82,2.66,2.66,0,0,1,2.94,3v9.5h-2.09v-8.85c0-1.38-.39-1.76-1.48-1.76a4.92,4.92,0,0,0-2.93,1.45v9.16h-2.08Z"/><path d="M191.35,166.58h1.38v-3.13l2.09-.46v3.59h2.49v1.69h-2.49v8c0,.77.31,1.11,1,1.11a3.33,3.33,0,0,0,1.33-.34l.42,1.56a4.42,4.42,0,0,1-1.92.46c-1.65,0-2.91-.66-2.91-2.6v-8.17h-1.38Z"/><path d="M42.8,193.77v-6h1.11v5.76c0,1.22.23,1.78,1.29,1.78a2.65,2.65,0,0,0,1.83-.77v-6.77h1.11v8.35h-.82l-.19-.77a2.93,2.93,0,0,1-2.05.93C43.91,196.33,42.8,195.71,42.8,193.77Z"/><path d="M50.4,190.1h.81l.16.75a2.66,2.66,0,0,1,1.85-.91,1.33,1.33,0,0,1,1.47,1.48v4.75h-1v-4.42c0-.69-.2-.89-.74-.89a2.48,2.48,0,0,0-1.47.73v4.58h-1Z"/><path d="M57.12,190.91l-.89-.14v-.67h1.94v6.07H57.12Zm-.21-2.68a.73.73,0,1,1,.71.74A.71.71,0,0,1,56.91,188.23Z"/><path d="M59.78,190.1h.69v-1.56l1-.23v1.79h1.25V191H61.51v4c0,.38.16.55.5.55a1.56,1.56,0,0,0,.66-.17l.21.78a2.19,2.19,0,0,1-1,.23c-.82,0-1.45-.33-1.45-1.3V191h-.69Z"/><path d="M64.56,187.82H67a2.26,2.26,0,0,1,2.55,2.5c0,1.62-.75,2.58-2.41,2.58H65.68v3.27H64.56ZM67,192c.93,0,1.38-.4,1.38-1.58s-.41-1.6-1.43-1.6H65.68V192Z"/><path d="M71.23,190.1H72l.17.86a2.22,2.22,0,0,1,1.71-1,.51.51,0,0,1,.22,0L74,191.14a1.5,1.5,0,0,0-.37,0,1.91,1.91,0,0,0-1.38.62v4.46h-1Z"/><path d="M75.18,193.13c0-2.28,1-3.19,2.46-3.19s2.5.91,2.5,3.19-1,3.2-2.48,3.2S75.18,195.41,75.18,193.13Zm3.84,0c0-1.88-.45-2.37-1.37-2.37s-1.36.48-1.36,2.36.45,2.38,1.37,2.38S79,195,79,193.14Z"/><path d="M84.28,192.5c0-3.09.92-4.86,2.71-5.72l.35.64c-1.29.83-1.88,2.21-1.88,5.06s.62,4.18,1.88,5l-.34.64C85.25,197.25,84.28,195.49,84.28,192.5Z"/><path d="M89,187.82h2.33c1.58,0,2.58.75,2.58,2.33a2,2,0,0,1-1.59,2.22c.42.15.75.54,1,1.4l.86,2.4H93l-.84-2.35c-.36-1-.71-1.22-1.27-1.22h-.79v3.57H89Zm2.28,3.87c1.11,0,1.46-.49,1.46-1.53s-.36-1.38-1.46-1.38H90.12v2.91Z"/><path d="M95.37,193.13c0-2.3.95-3.19,2.38-3.19s2.26.83,2.26,3v.41H96.49c0,1.66.38,2.08,1.39,2.08a2.14,2.14,0,0,0,1.43-.57l.57.75a2.88,2.88,0,0,1-2,.7C96.27,196.33,95.37,195.41,95.37,193.13Zm1.13-.54h2.41c0-1.4-.31-1.82-1.19-1.82C97,190.77,96.58,191.13,96.5,192.59Z"/><path d="M101.3,196.9a1.44,1.44,0,0,1,.81-1.28,1,1,0,0,1-.46-.85,1.52,1.52,0,0,1,.67-1.26,1.79,1.79,0,0,1-.78-1.6,1.9,1.9,0,0,1,2.17-2,2.64,2.64,0,0,1,.94.16h1.79v.63l-.82.22a2.16,2.16,0,0,1,.23,1c0,1.29-.81,1.92-2.13,1.92a3.07,3.07,0,0,1-.77-.09,1.23,1.23,0,0,0-.36.74c0,.18.11.32.43.32h1c1.36,0,2.18.57,2.18,1.78s-.77,2-2.48,2S101.3,197.92,101.3,196.9Zm1-.1c0,.63.21,1,1.41,1,1,0,1.43-.34,1.43-1.11s-.42-.83-1.05-.83h-1.32A1.15,1.15,0,0,0,102.34,196.8Zm2.44-4.88c0-.86-.34-1.14-1.09-1.14s-1.07.31-1.07,1.16.37,1.13,1.08,1.13S104.78,192.74,104.78,191.92Z"/><path d="M107.85,194.78V190.1h1.05v4.35c0,.72.24,1,.78,1a2.43,2.43,0,0,0,1.46-.73V190.1h1v6.07h-.81l-.16-.75a2.55,2.55,0,0,1-1.8.91A1.44,1.44,0,0,1,107.85,194.78Z"/><path d="M114.33,194.82V187.4h1V195c0,.3.13.42.42.42l.24,0,.15.75a2.39,2.39,0,0,1-.75.13C114.65,196.29,114.33,195.88,114.33,194.82Z"/><path d="M117.27,194.44c0-1.38.81-2,2.8-2h.5v-.48c0-.68-.09-1.09-.88-1.09a3.84,3.84,0,0,0-1.77.56l-.4-.8a4.3,4.3,0,0,1,2.28-.67c1.19,0,1.81.54,1.81,1.83v4.4h-.81l-.17-.6a2.1,2.1,0,0,1-1.53.76A1.67,1.67,0,0,1,117.27,194.44Zm3.3.34v-1.61h-.37c-1.52,0-1.82.39-1.82,1.27s.26,1.07.85,1.07A1.85,1.85,0,0,0,120.57,194.78Z"/><path d="M123.71,190.1h.81l.17.86a2.21,2.21,0,0,1,1.71-1,.44.44,0,0,1,.21,0l-.12,1.11a1.42,1.42,0,0,0-.36,0,1.9,1.9,0,0,0-1.38.62v4.46h-1Z"/><path d="M127.47,197.46c1.26-.8,1.88-2.09,1.88-5s-.59-4.23-1.88-5.06l.36-.64c1.78.86,2.7,2.63,2.7,5.72s-1,4.75-2.72,5.6Z"/><path d="M42.57,217.71V213h.89v4.61c0,1,.19,1.42,1,1.42a2.08,2.08,0,0,0,1.46-.62V213h.89v6.68h-.65L46,219a2.31,2.31,0,0,1-1.64.75C43.46,219.76,42.57,219.26,42.57,217.71Z"/><path d="M48,219.23l.35-.62a2.25,2.25,0,0,0,1.3.45c.66,0,.86-.26.86-.72s-.25-.65-1-.86a1.43,1.43,0,0,1-1.24-1.5c0-.71.46-1.33,1.52-1.33a2.64,2.64,0,0,1,1.35.32l-.29.66a2,2,0,0,0-1-.27c-.52,0-.76.18-.76.6s.2.57.87.75,1.42.5,1.42,1.59-.57,1.46-1.71,1.46A2.75,2.75,0,0,1,48,219.23Z"/><path d="M52.38,217.2c0-1.84.76-2.55,1.9-2.55s1.81.66,1.81,2.41v.33H53.27c0,1.33.31,1.66,1.12,1.66a1.7,1.7,0,0,0,1.14-.46l.46.6a2.29,2.29,0,0,1-1.62.57C53.1,219.76,52.38,219,52.38,217.2Zm.9-.44h1.93c0-1.11-.25-1.45-1-1.45S53.35,215.6,53.28,216.76Z"/><path d="M59.38,214.77h.54V214c0-1.11.57-1.44,1.28-1.44a1.77,1.77,0,0,1,1,.26l-.29.63a1.2,1.2,0,0,0-.6-.16c-.41,0-.57.21-.57.7v.78h.91v.68h-.91v4.18h-.83v-4.18h-.54Z"/><path d="M62.48,217.2c0-1.82.79-2.55,2-2.55s2,.73,2,2.55-.8,2.56-2,2.56S62.48,219,62.48,217.2Zm3.08,0c0-1.5-.36-1.9-1.1-1.9s-1.08.39-1.08,1.89.35,1.9,1.09,1.9S65.56,218.7,65.56,217.21Z"/><path d="M67.86,214.77h.65l.13.69a1.78,1.78,0,0,1,1.37-.77.47.47,0,0,1,.17,0l-.1.89a.88.88,0,0,0-.29,0,1.51,1.51,0,0,0-1.1.49v3.57h-.83Z"/><path d="M74.37,219.16l-.14.47h-.64v-7h.83v2.67a1.79,1.79,0,0,1,1.3-.63c.93,0,1.65.52,1.65,2.52,0,1.82-.53,2.59-1.66,2.59A1.87,1.87,0,0,1,74.37,219.16Zm2.11-1.93c0-1.56-.25-1.86-.91-1.86a1.64,1.64,0,0,0-1.15.57v2.62a1.61,1.61,0,0,0,1.07.48C76.18,219,76.48,218.79,76.48,217.23Z"/><path d="M78.49,217.2c0-1.82.79-2.55,2-2.55s2,.73,2,2.55-.79,2.56-2,2.56S78.49,219,78.49,217.2Zm3.07,0c0-1.5-.36-1.9-1.09-1.9s-1.09.39-1.09,1.89.36,1.9,1.1,1.9S81.56,218.7,81.56,217.21Z"/><path d="M83.6,217.24c0-1.83.53-2.59,1.67-2.59a1.91,1.91,0,0,1,1.29.59v-2.63h.83v7h-.65l-.14-.5a1.8,1.8,0,0,1-1.34.63C84.33,219.76,83.6,219.23,83.6,217.24Zm3,1.28v-2.63a1.68,1.68,0,0,0-1.08-.52c-.69,0-1,.25-1,1.81s.25,1.86.91,1.86A1.63,1.63,0,0,0,86.56,218.52Z"/><path d="M88.92,221a1.55,1.55,0,0,0,1.34-1.33h-.2l-1.52-4.86h.92l.81,2.86c.11.39.22,1,.29,1.33h0c.07-.35.16-.85.3-1.33l.86-2.86h.87l-1.61,5c-.47,1.44-.88,1.65-1.88,1.86Z"/><path d="M95.77,217.2c0-1.85.73-2.55,1.94-2.55a1.77,1.77,0,0,1,1.37.55l-.48.58a1.16,1.16,0,0,0-.92-.42c-.74,0-1,.32-1,1.84s.31,1.85,1.08,1.85a1.27,1.27,0,0,0,.9-.45l.51.55a1.83,1.83,0,0,1-1.45.61C96.46,219.76,95.77,218.94,95.77,217.2Z"/><path d="M100,217.2c0-1.82.78-2.55,2-2.55s2,.73,2,2.55-.8,2.56-2,2.56S100,219,100,217.2Zm3.07,0c0-1.5-.36-1.9-1.1-1.9s-1.08.39-1.08,1.89.36,1.9,1.09,1.9S103,218.7,103,217.21Z"/><path d="M105.32,214.77H106l.13.56a1.85,1.85,0,0,1,1.35-.68c.93,0,1.66.52,1.66,2.52,0,1.82-.54,2.59-1.67,2.59a1.87,1.87,0,0,1-1.29-.55v2.37h-.83Zm2.89,2.46c0-1.56-.25-1.86-.91-1.86a1.64,1.64,0,0,0-1.15.57v2.62a1.61,1.61,0,0,0,1.08.48C107.91,219,108.21,218.79,108.21,217.23Z"/><path d="M110.37,221a1.57,1.57,0,0,0,1.34-1.33h-.21L110,214.77h.91l.81,2.86c.11.39.23,1,.3,1.33h0a10.41,10.41,0,0,1,.3-1.33l.86-2.86H114l-1.61,5c-.46,1.44-.88,1.65-1.88,1.86Z"/><path d="M117.19,218.24c0-1.1.65-1.61,2.24-1.61h.4v-.38c0-.54-.07-.87-.7-.87a3,3,0,0,0-1.41.44l-.32-.64a3.38,3.38,0,0,1,1.82-.53c1,0,1.44.43,1.44,1.46v3.52H120l-.13-.48a1.66,1.66,0,0,1-1.22.61A1.35,1.35,0,0,1,117.19,218.24Zm2.64.28v-1.29h-.29c-1.22,0-1.45.31-1.45,1s.2.86.67.86A1.48,1.48,0,0,0,119.83,218.52Z"/><path d="M122.38,214.77H123l.13.61a2.09,2.09,0,0,1,1.48-.73,1.06,1.06,0,0,1,1.17,1.18v3.8H125v-3.54c0-.55-.16-.7-.59-.7a2,2,0,0,0-1.18.58v3.66h-.83Z"/><path d="M127.26,217.24c0-1.83.53-2.59,1.66-2.59a1.89,1.89,0,0,1,1.29.59v-2.63h.84v7h-.65l-.14-.5a1.82,1.82,0,0,1-1.35.63C128,219.76,127.26,219.23,127.26,217.24Zm3,1.28v-2.63a1.65,1.65,0,0,0-1.07-.52c-.69,0-1,.25-1,1.81s.25,1.86.91,1.86A1.62,1.62,0,0,0,130.21,218.52Z"/><path d="M134.77,217.2c0-1.82.79-2.55,2-2.55s2,.73,2,2.55-.79,2.56-2,2.56S134.77,219,134.77,217.2Zm3.07,0c0-1.5-.36-1.9-1.09-1.9s-1.09.39-1.09,1.89.36,1.9,1.1,1.9S137.84,218.7,137.84,217.21Z"/><path d="M139.67,214.77h.55v-1.25l.83-.18v1.43h1v.68h-1v3.19c0,.31.13.45.4.45A1.33,1.33,0,0,0,142,219l.17.62a1.72,1.72,0,0,1-.77.19c-.66,0-1.16-.27-1.16-1v-3.27h-.55Z"/><path d="M143.35,212.61h.83v2.71a2.07,2.07,0,0,1,1.43-.67,1.06,1.06,0,0,1,1.17,1.18v3.8H146v-3.54c0-.55-.16-.7-.59-.7a2,2,0,0,0-1.18.58v3.66h-.83Z"/><path d="M148.16,217.2c0-1.84.76-2.55,1.9-2.55s1.81.66,1.81,2.41v.33h-2.82c0,1.33.31,1.66,1.12,1.66a1.7,1.7,0,0,0,1.14-.46l.45.6a2.27,2.27,0,0,1-1.61.57C148.88,219.76,148.16,219,148.16,217.2Zm.9-.44H151c0-1.11-.25-1.45-1-1.45S149.13,215.6,149.06,216.76Z"/><path d="M153.25,214.77h.65l.13.69a1.8,1.8,0,0,1,1.37-.77.4.4,0,0,1,.17,0l-.09.89a1,1,0,0,0-.29,0,1.51,1.51,0,0,0-1.11.49v3.57h-.83Z"/><path d="M42.25,228.87c0-1.82.53-2.59,1.67-2.59a1.91,1.91,0,0,1,1.29.59v-2.62H46v7h-.65l-.14-.5a1.76,1.76,0,0,1-1.34.63C43,231.39,42.25,230.87,42.25,228.87Zm3,1.28v-2.63a1.65,1.65,0,0,0-1.08-.52c-.69,0-1,.25-1,1.81s.25,1.86.91,1.86A1.59,1.59,0,0,0,45.21,230.15Z"/><path d="M47.43,228.83c0-1.84.75-2.55,1.9-2.55s1.81.66,1.81,2.42V229H48.32c0,1.32.31,1.65,1.11,1.65a1.7,1.7,0,0,0,1.15-.45l.45.6a2.26,2.26,0,0,1-1.61.56C48.15,231.39,47.43,230.65,47.43,228.83Zm.9-.43h1.93c0-1.12-.25-1.46-.95-1.46S48.4,227.23,48.33,228.4Z"/><path d="M52,226.41h.56v-1.25l.83-.19v1.44h1v.68h-1v3.19c0,.31.13.44.4.44a1.58,1.58,0,0,0,.53-.13l.16.62a1.77,1.77,0,0,1-.76.18c-.66,0-1.16-.26-1.16-1v-3.26H52Z"/><path d="M55.39,229.88c0-1.11.65-1.62,2.24-1.62H58v-.38c0-.54-.06-.87-.69-.87a3,3,0,0,0-1.42.45l-.32-.64a3.44,3.44,0,0,1,1.82-.54c1,0,1.45.43,1.45,1.47v3.51h-.65l-.14-.48a1.66,1.66,0,0,1-1.22.61A1.33,1.33,0,0,1,55.39,229.88Zm2.63.27v-1.29h-.29c-1.22,0-1.45.31-1.45,1s.2.85.68.85A1.48,1.48,0,0,0,58,230.15Z"/><path d="M60.85,227.06l-.72-.12v-.53h1.55v4.85h-.83Zm-.18-2.14a.59.59,0,1,1,.57.59A.57.57,0,0,1,60.67,224.92Z"/><path d="M63.42,230.18v-5.93h.83v6.08c0,.25.11.34.34.34l.19,0,.12.6a1.83,1.83,0,0,1-.6.11C63.68,231.36,63.42,231,63.42,230.18Z"/><path d="M65.78,228.83c0-1.84.76-2.55,1.9-2.55s1.81.66,1.81,2.42V229H66.67c0,1.32.31,1.65,1.12,1.65a1.69,1.69,0,0,0,1.14-.45l.46.6a2.3,2.3,0,0,1-1.62.56C66.5,231.39,65.78,230.65,65.78,228.83Zm.9-.43h1.93c0-1.12-.25-1.46-1-1.46S66.75,227.23,66.68,228.4Z"/><path d="M70.61,228.87c0-1.82.53-2.59,1.67-2.59a1.88,1.88,0,0,1,1.28.59v-2.62h.84v7h-.65l-.14-.5a1.78,1.78,0,0,1-1.34.63C71.34,231.39,70.61,230.87,70.61,228.87Zm3,1.28v-2.63a1.63,1.63,0,0,0-1.07-.52c-.69,0-1,.25-1,1.81s.25,1.86.91,1.86A1.55,1.55,0,0,0,73.56,230.15Z"/><path d="M78.81,227.06l-.72-.12v-.53h1.55v4.85h-.83Zm-.17-2.14a.59.59,0,1,1,.57.59A.57.57,0,0,1,78.64,224.92Z"/><path d="M81.36,226.41H82l.13.6a2.09,2.09,0,0,1,1.48-.73,1.06,1.06,0,0,1,1.17,1.19v3.79H84v-3.53c0-.56-.16-.71-.59-.71a2,2,0,0,0-1.18.58v3.66h-.83Z"/><path d="M86,226.41h.53v-.78c0-1.11.57-1.44,1.29-1.44a1.82,1.82,0,0,1,1,.26l-.29.63a1.16,1.16,0,0,0-.6-.15c-.4,0-.57.2-.57.69v.79h.91v.68h-.91v4.17h-.83v-4.17H86Z"/><path d="M89.09,228.83c0-1.82.78-2.55,2-2.55s2,.73,2,2.55-.79,2.56-2,2.56S89.09,230.65,89.09,228.83Zm3.07,0c0-1.5-.36-1.9-1.09-1.9s-1.09.39-1.09,1.89.36,1.9,1.09,1.9S92.16,230.33,92.16,228.84Z"/><path d="M94.46,226.41h.65l.13.69a1.78,1.78,0,0,1,1.37-.78.4.4,0,0,1,.17,0l-.09.89a1,1,0,0,0-.29,0,1.52,1.52,0,0,0-1.11.5v3.56h-.83Z"/><path d="M98,226.41h.65l.12.6a2,2,0,0,1,1.41-.73,1,1,0,0,1,1,.69,2.19,2.19,0,0,1,1.43-.69,1,1,0,0,1,1.11,1.19v3.79h-.83v-3.53c0-.56-.13-.71-.53-.71a1.93,1.93,0,0,0-1.1.54v3.7h-.83v-3.53c0-.56-.14-.71-.53-.71a1.89,1.89,0,0,0-1.1.58v3.66H98Z"/><path d="M105.08,229.88c0-1.11.64-1.62,2.23-1.62h.4v-.38c0-.54-.07-.87-.7-.87a2.93,2.93,0,0,0-1.41.45l-.32-.64a3.41,3.41,0,0,1,1.82-.54c1,0,1.44.43,1.44,1.47v3.51h-.64l-.14-.48a1.66,1.66,0,0,1-1.22.61A1.33,1.33,0,0,1,105.08,229.88Zm2.63.27v-1.29h-.29c-1.22,0-1.45.31-1.45,1s.2.85.67.85A1.48,1.48,0,0,0,107.71,230.15Z"/><path d="M109.79,226.41h.55v-1.25l.83-.19v1.44h1v.68h-1v3.19c0,.31.13.44.4.44a1.52,1.52,0,0,0,.53-.13l.17.62a1.86,1.86,0,0,1-.77.18c-.66,0-1.16-.26-1.16-1v-3.26h-.55Z"/><path d="M113.74,227.06l-.71-.12v-.53h1.55v4.85h-.84Zm-.17-2.14a.59.59,0,1,1,.57.59A.57.57,0,0,1,113.57,224.92Z"/><path d="M116,228.83c0-1.82.79-2.55,2-2.55s2,.73,2,2.55-.8,2.56-2,2.56S116,230.65,116,228.83Zm3.07,0c0-1.5-.35-1.9-1.09-1.9s-1.09.39-1.09,1.89.36,1.9,1.1,1.9S119,230.33,119,228.84Z"/><path d="M121.33,226.41H122l.13.6a2.11,2.11,0,0,1,1.48-.73,1.06,1.06,0,0,1,1.17,1.19v3.79h-.83v-3.53c0-.56-.15-.71-.59-.71a2,2,0,0,0-1.17.58v3.66h-.84Z"/><path d="M126.29,230.68a.66.66,0,1,1,.66.67A.66.66,0,0,1,126.29,230.68Z"/><rect class="cls-3" x="41.7" y="141.17" width="180.3" height="0.4"/><path class="cls-4" d="M70.47,1056.16c0-4.15-2.18-6.29-4.86-6.83,3-1.18,3.85-3.06,3.85-6.29,0-5.44-3.26-7.33-7.29-7.33h-12v29.2H61.38C67.91,1064.91,70.47,1062.15,70.47,1056.16Zm-13.15-14.5h2.34a2.24,2.24,0,0,1,2.51,2.56c0,1.8-.75,2.84-2.47,2.84H57.32Zm0,17.3v-6.2h2.55c2.18,0,2.72,1.22,2.72,3,0,2.22-.88,3.18-2.64,3.18Z"/><polygon class="cls-4" points="92.55 1058.71 84.04 1058.71 84.04 1035.71 76.84 1035.71 76.84 1064.91 92.55 1064.91 92.55 1058.71"/><path class="cls-4" d="M105.62,1060.05h5.74l1,4.86h7.71l-7.54-29.2h-7.42l-8,29.2h7.46Zm2.26-10.22a36.27,36.27,0,0,0,.71-5.07h0a37.42,37.42,0,0,0,.63,5.07l1,4.86h-3.48Z"/><path class="cls-4" d="M135.82,1065.46c4.11,0,6.37-1.3,8.05-2.9l-3.1-5.32a5.89,5.89,0,0,1-4.65,2c-2.64,0-4.15-1.21-4.15-9.38,0-7.46.75-8.54,4.15-8.54a6.73,6.73,0,0,1,4.52,1.71l2.77-5.65c-1.55-1.3-4.28-2.22-7.75-2.22-7.17,0-11.78,3-11.78,15.16C123.88,1061.22,127.74,1065.46,135.82,1065.46Z"/><polygon class="cls-4" points="156.98 1050.21 163.1 1064.91 171.39 1064.91 163.56 1049.08 170.43 1035.71 162.68 1035.71 156.98 1048.28 156.98 1035.71 149.65 1035.71 149.65 1064.91 156.98 1064.91 156.98 1050.21"/><polygon class="cls-4" points="57.52 1099.18 62.97 1099.18 62.97 1111.45 70.3 1111.45 70.3 1082.26 62.97 1082.26 62.97 1092.98 57.52 1092.98 57.52 1082.26 50.19 1082.26 50.19 1111.45 57.52 1111.45 57.52 1099.18"/><polygon class="cls-4" points="90.08 1107.43 87.27 1106.72 87.27 1086.99 90.08 1086.28 90.08 1082.26 77 1082.26 77 1086.28 79.81 1086.99 79.81 1106.72 77 1107.43 77 1111.45 90.08 1111.45 90.08 1107.43"/><path class="cls-4" d="M106.79,1092.9c-2.3-.63-2.76-1.3-2.76-2.85,0-1.34.92-2.26,2.85-2.26a9.11,9.11,0,0,1,5.11,1.29l2.51-5.4a15.48,15.48,0,0,0-8.29-2c-5.58,0-9.64,2.68-9.64,9,0,6.16,3.39,8,8.25,9.34,2.31.63,3.23,1.09,3.23,2.89s-1.22,2.89-3.73,2.89a12.48,12.48,0,0,1-6.66-2.13l-2.26,5.73A18.25,18.25,0,0,0,105,1112c7.88,0,10.68-3.6,10.68-9.68C115.71,1095.62,111.57,1094.2,106.79,1092.9Z"/><polygon class="cls-4" points="120.16 1088.46 126.19 1088.46 126.19 1111.45 133.39 1111.45 133.39 1088.46 139.43 1088.46 139.43 1082.26 120.16 1082.26 120.16 1088.46"/><path class="cls-4" d="M156,1081.71c-7.91,0-12,4.23-12,15.17s4,15.12,11.94,15.12,11.86-4.19,11.86-15.12S163.89,1081.71,156,1081.71Zm-.08,24.34c-3.1,0-3.94-1.84-3.94-9.3,0-7.29.84-9.13,3.94-9.13s3.94,1.76,3.94,9.05C159.83,1104.17,159,1106.05,155.89,1106.05Z"/><path class="cls-4" d="M189.82,1098.22c3.15-.88,5-2.6,5-7.54,0-5.32-2.47-8.42-10.81-8.42h-9.55v29.19h7.33v-11.64h.67c2.35,0,2.81.63,3.44,3.27l2,8.37h7.79l-2-7.74C192.92,1100.86,191.88,1098.84,189.82,1098.22Zm-5.32-3.73h-2.68v-6.16h2.64c1.8,0,2.64.71,2.64,2.85C187.1,1093.48,186.47,1094.49,184.5,1094.49Z"/><path class="cls-4" d="M213.54,1082.26l-2.1,5.32a27.72,27.72,0,0,0-1.47,5.27,24.43,24.43,0,0,0-1.5-5.4l-2-5.19h-8l7.54,16.5v12.69h7.33v-12.86l7.92-16.33Z"/><path class="cls-4" d="M64,1140.36a65.52,65.52,0,0,0-.84,6.79h0a49.35,49.35,0,0,0-.88-6.79l-2.56-11.56H50.19V1158h6.25v-10.68c0-4-.34-9.35-.59-12h0c.38,2.85,1.09,7.75,1.89,11.06l1.67,7h6.62l1.68-7.37c.83-3.65,1.55-7.75,1.92-10.73h0c-.21,2.56-.47,7.13-.47,11.9V1158h7v-29.2H66.11Z"/><path class="cls-4" d="M94.89,1128.26c-7.91,0-12,4.23-12,15.16s4,15.12,11.94,15.12,11.86-4.19,11.86-15.12S102.81,1128.26,94.89,1128.26Zm-.08,24.34c-3.1,0-3.94-1.85-3.94-9.3,0-7.29.84-9.14,3.94-9.14s3.94,1.76,3.94,9C98.75,1150.71,97.91,1152.6,94.81,1152.6Z"/><path class="cls-4" d="M127.11,1139.19a69,69,0,0,0,.67,7.54h0a54.53,54.53,0,0,0-2.39-6.58l-5.19-11.35h-6.79V1158H120v-9.51a53.64,53.64,0,0,0-.84-8.42h0c.59,1.84,1.51,4.4,2.39,6.49l4.9,11.44h7.25v-29.2h-6.58Z"/><polygon class="cls-4" points="139.93 1135 145.96 1135 145.96 1158 153.17 1158 153.17 1135 159.2 1135 159.2 1128.8 139.93 1128.8 139.93 1135"/><polygon class="cls-4" points="178.22 1139.53 172.77 1139.53 172.77 1128.8 165.44 1128.8 165.44 1158 172.77 1158 172.77 1145.72 178.22 1145.72 178.22 1158 185.55 1158 185.55 1128.8 178.22 1128.8 178.22 1139.53"/><path class="cls-4" d="M492.58,1049.33c3-1.18,3.85-3.06,3.85-6.29,0-5.44-3.27-7.33-7.29-7.33h-12v29.2h11.19c6.53,0,9.09-2.76,9.09-8.75C497.44,1052,495.26,1049.87,492.58,1049.33Zm-8.3-7.67h2.35a2.24,2.24,0,0,1,2.51,2.56c0,1.8-.75,2.84-2.47,2.84h-2.39Zm2.64,17.3h-2.64v-6.2h2.56c2.18,0,2.72,1.22,2.72,3C489.56,1058,488.68,1059,486.92,1059Z"/><polygon class="cls-4" points="511.01 1035.71 503.81 1035.71 503.81 1064.91 519.51 1064.91 519.51 1058.71 511.01 1058.71 511.01 1035.71"/><path class="cls-4" d="M532.08,1035.71l-8,29.2h7.46l1.09-4.86h5.74l1,4.86H547l-7.54-29.2Zm1.68,19,1.09-4.86a36.27,36.27,0,0,0,.71-5.07h0a34.45,34.45,0,0,0,.63,5.07l1,4.86Z"/><path class="cls-4" d="M562.79,1065.46c4.11,0,6.37-1.3,8-2.9l-3.1-5.32a5.88,5.88,0,0,1-4.65,2c-2.63,0-4.14-1.21-4.14-9.38,0-7.46.75-8.54,4.14-8.54a6.76,6.76,0,0,1,4.53,1.71l2.76-5.65c-1.55-1.3-4.27-2.22-7.75-2.22-7.16,0-11.77,3-11.77,15.16C550.85,1061.22,554.71,1065.46,562.79,1065.46Z"/><polygon class="cls-4" points="583.95 1050.21 590.06 1064.91 598.36 1064.91 590.52 1049.08 597.39 1035.71 589.64 1035.71 583.95 1048.28 583.95 1035.71 576.62 1035.71 576.62 1064.91 583.95 1064.91 583.95 1050.21"/><polygon class="cls-4" points="441.49 1092.98 436.05 1092.98 436.05 1082.26 428.71 1082.26 428.71 1111.45 436.05 1111.45 436.05 1099.18 441.49 1099.18 441.49 1111.45 448.82 1111.45 448.82 1082.26 441.49 1082.26 441.49 1092.98"/><polygon class="cls-4" points="468.6 1107.43 465.79 1106.72 465.79 1086.99 468.6 1086.28 468.6 1082.26 455.53 1082.26 455.53 1086.28 458.33 1086.99 458.33 1106.72 455.53 1107.43 455.53 1111.45 468.6 1111.45 468.6 1107.43"/><path class="cls-4" d="M485.31,1092.9c-2.3-.63-2.76-1.3-2.76-2.85,0-1.34.92-2.26,2.85-2.26a9.09,9.09,0,0,1,5.11,1.29l2.51-5.4a15.43,15.43,0,0,0-8.29-2c-5.58,0-9.64,2.68-9.64,9,0,6.16,3.39,8,8.25,9.34,2.31.63,3.23,1.09,3.23,2.89s-1.22,2.89-3.73,2.89a12.51,12.51,0,0,1-6.66-2.13l-2.26,5.73a18.25,18.25,0,0,0,9.63,2.56c7.88,0,10.69-3.6,10.69-9.68C494.24,1095.62,490.09,1094.2,485.31,1092.9Z"/><polygon class="cls-4" points="504.71 1111.45 511.92 1111.45 511.92 1088.46 517.95 1088.46 517.95 1082.26 498.68 1082.26 498.68 1088.46 504.71 1088.46 504.71 1111.45"/><path class="cls-4" d="M534.45,1112c7.92,0,11.86-4.19,11.86-15.12s-3.9-15.17-11.81-15.17-12,4.23-12,15.17S526.54,1112,534.45,1112Zm0-24.38c3.1,0,3.94,1.76,3.94,9.05,0,7.5-.84,9.38-3.94,9.38s-3.94-1.84-3.94-9.3C530.47,1089.46,531.31,1087.62,534.41,1087.62Z"/><path class="cls-4" d="M568.35,1098.22c3.14-.88,5-2.6,5-7.54,0-5.32-2.47-8.42-10.81-8.42H553v29.19h7.33v-11.64H561c2.35,0,2.81.63,3.44,3.27l2,8.37h7.79l-2-7.74C571.45,1100.86,570.4,1098.84,568.35,1098.22Zm-5.33-3.73h-2.68v-6.16H563c1.8,0,2.64.71,2.64,2.85C565.62,1093.48,565,1094.49,563,1094.49Z"/><path class="cls-4" d="M584.56,1111.45h7.33v-12.86l7.92-16.33h-7.75l-2.1,5.32a27,27,0,0,0-1.46,5.27,25,25,0,0,0-1.51-5.4l-2-5.19h-8l7.54,16.5Z"/><path class="cls-4" d="M476.78,1140.36a62.84,62.84,0,0,0-.83,6.79h-.05a46.45,46.45,0,0,0-.88-6.79l-2.55-11.56H463V1158h6.24v-10.68c0-4-.33-9.35-.58-12h0c.37,2.85,1.09,7.75,1.88,11.06l1.68,7h6.62l1.67-7.37c.84-3.65,1.55-7.75,1.93-10.73h0c-.21,2.56-.46,7.13-.46,11.9V1158h7v-29.2h-10.1Z"/><path class="cls-4" d="M507.7,1128.26c-7.92,0-12,4.23-12,15.16s4,15.12,11.94,15.12,11.85-4.19,11.85-15.12S515.62,1128.26,507.7,1128.26Zm-.08,24.34c-3.1,0-3.94-1.85-3.94-9.3,0-7.29.84-9.14,3.94-9.14s3.93,1.76,3.93,9C511.55,1150.71,510.72,1152.6,507.62,1152.6Z"/><path class="cls-4" d="M539.92,1139.19a69,69,0,0,0,.67,7.54h0a54.53,54.53,0,0,0-2.39-6.58L533,1128.8h-6.78V1158h6.57v-9.51a55.3,55.3,0,0,0-.83-8.42h0c.58,1.84,1.51,4.4,2.39,6.49l4.9,11.44h7.24v-29.2h-6.57Z"/><polygon class="cls-4" points="552.74 1135 558.77 1135 558.77 1158 565.98 1158 565.98 1135 572.01 1135 572.01 1128.8 552.74 1128.8 552.74 1135"/><polygon class="cls-4" points="591.03 1139.53 585.58 1139.53 585.58 1128.8 578.25 1128.8 578.25 1158 585.58 1158 585.58 1145.72 591.03 1145.72 591.03 1158 598.36 1158 598.36 1128.8 591.03 1128.8 591.03 1139.53"/><rect class="cls-2" x="238.23" y="781.49" width="252.98" height="38.85"/><rect class="cls-2" x="238.23" y="828.19" width="252.98" height="38.85"/><rect class="cls-2" x="238.23" y="734.73" width="252.98" height="38.85"/><path class="cls-6" d="M238.23,744.28h12c4,0,7.32,1.9,7.32,7.36,0,3.24-.88,5.13-3.87,6.31,2.69.55,4.88,2.69,4.88,6.85,0,6-2.57,8.79-9.12,8.79H238.23Zm9.54,11.4c1.73,0,2.48-1,2.48-2.86a2.24,2.24,0,0,0-2.52-2.56h-2.35v5.42Zm.26,11.94c1.76,0,2.65-1,2.65-3.19,0-1.81-.55-3-2.74-3h-2.56v6.22Z"/><path class="cls-6" d="M265,744.28h7.23v23.09h8.54v6.22H265Z"/><path class="cls-6" d="M293.35,744.28h7.45l7.57,29.31h-7.74l-1-4.88h-5.76l-1.09,4.88h-7.49ZM295,763.33h3.49l-1-4.88a34.56,34.56,0,0,1-.63-5.08h-.05a36.38,36.38,0,0,1-.71,5.08Z"/><path class="cls-6" d="M312.19,759c0-12.15,4.63-15.22,11.82-15.22,3.49,0,6.22.92,7.78,2.23L329,751.64a6.77,6.77,0,0,0-4.54-1.72c-3.41,0-4.16,1.09-4.16,8.58,0,8.2,1.51,9.41,4.16,9.41a5.94,5.94,0,0,0,4.67-2l3.11,5.34c-1.68,1.6-3.95,2.9-8.07,2.9C316.06,774.14,312.19,769.89,312.19,759Z"/><path class="cls-6" d="M338.05,744.28h7.36V756.9l5.72-12.62h7.78L352,757.7l7.87,15.89h-8.33l-6.14-14.76v14.76h-7.36Z"/><path class="cls-6" d="M238.23,791h7.36v10.77h5.46V791h7.36v29.31h-7.36V808h-5.46v12.32h-7.36Z"/><path class="cls-6" d="M265.14,816.27l2.82-.71V795.75l-2.82-.71v-4h13.12v4l-2.82.71v19.81l2.82.71v4H265.14Z"/><path class="cls-6" d="M283.6,818.29l2.27-5.76a12.51,12.51,0,0,0,6.69,2.14c2.52,0,3.74-1.13,3.74-2.9s-.93-2.27-3.24-2.9c-4.88-1.39-8.28-3.19-8.28-9.38,0-6.34,4.08-9,9.67-9a15.54,15.54,0,0,1,8.32,2l-2.52,5.43a9.09,9.09,0,0,0-5.13-1.31c-1.93,0-2.86.93-2.86,2.27,0,1.56.46,2.23,2.78,2.86,4.79,1.31,8.95,2.73,8.95,9.46,0,6.1-2.81,9.72-10.72,9.72A18.37,18.37,0,0,1,283.6,818.29Z"/><path class="cls-6" d="M314.51,797.22h-6.06V791h19.34v6.22h-6.05v23.09h-7.23Z"/><path class="cls-6" d="M332.38,805.68c0-11,4.07-15.22,12-15.22s11.86,4.24,11.86,15.22-3.95,15.18-11.9,15.18S332.38,816.61,332.38,805.68Zm15.89-.21c0-7.32-.84-9.09-3.95-9.09s-3.95,1.85-3.95,9.17c0,7.48.84,9.33,3.95,9.33S348.27,813,348.27,805.47Z"/><path class="cls-6" d="M363,791h9.59c8.36,0,10.84,3.11,10.84,8.45,0,5-1.89,6.69-5,7.57,2.06.63,3.11,2.65,3.87,5.51l2,7.78h-7.82l-2-8.41c-.63-2.65-1.1-3.28-3.45-3.28h-.67v11.69H363ZM373,803.28c2,0,2.6-1,2.6-3.32,0-2.15-.84-2.86-2.64-2.86h-2.65v6.18Z"/><path class="cls-6" d="M394.65,807.57,387.08,791h8l2,5.22a23.8,23.8,0,0,1,1.51,5.42,27.11,27.11,0,0,1,1.48-5.3l2.1-5.34H410L402,807.4v12.91h-7.36Z"/><path class="cls-6" d="M238.23,837.72h9.5l2.57,11.6a49.77,49.77,0,0,1,.88,6.82h0a66.07,66.07,0,0,1,.84-6.82l2.15-11.6h10.13V867h-7V856.18c0-4.8.25-9.38.46-11.94h0c-.38,3-1.09,7.1-1.93,10.76l-1.68,7.4h-6.65l-1.68-7.06c-.8-3.33-1.51-8.24-1.89-11.1h0c.26,2.69.59,8,.59,12.06V867h-6.26Z"/><path class="cls-6" d="M271.07,852.39c0-11,4.08-15.22,12-15.22S295,841.42,295,852.39s-3.95,15.18-11.9,15.18S271.07,863.33,271.07,852.39Zm15.89-.21c0-7.31-.84-9.08-3.95-9.08s-3.95,1.85-3.95,9.17c0,7.48.84,9.33,3.95,9.33S287,859.71,287,852.18Z"/><path class="cls-6" d="M301.64,837.72h6.81l5.22,11.39a55,55,0,0,1,2.39,6.61h0a69.62,69.62,0,0,1-.67-7.57V837.72H322V867h-7.27l-4.92-11.48c-.88-2.11-1.81-4.67-2.4-6.52h0a54.15,54.15,0,0,1,.84,8.45V867h-6.6Z"/><path class="cls-6" d="M334.35,843.94H328.3v-6.22h19.34v6.22h-6.05V867h-7.24Z"/><path class="cls-6" d="M353.91,837.72h7.35v10.76h5.47V837.72h7.36V867h-7.36V854.71h-5.47V867h-7.35Z"/><path class="cls-6" d="M425.15,888.24H218.79V689.05H425.15Zm-201.69-4.67h197V693.72h-197Z"/><path class="cls-2" d="M50.19,1227.09l.59-.81a3.12,3.12,0,0,0,2.22.86,1.81,1.81,0,0,0,2-1.65c0-1.19-1.11-1.68-2.24-2.24s-2.26-1.21-2.26-2.76a2.58,2.58,0,0,1,2.83-2.49,4,4,0,0,1,2.56.78l-.56.85a3.12,3.12,0,0,0-2-.68,1.54,1.54,0,0,0-1.7,1.48c0,1,.79,1.42,1.76,1.87,1.28.61,2.77,1.27,2.77,3.17,0,1.54-1.3,2.62-3.18,2.62A4,4,0,0,1,50.19,1227.09Z"/><path class="cls-2" d="M58.38,1226.23v-4.49H57.22v-.84h1.16v-2h1.06v2h1.77v.84H59.44v4.39c0,.7.21,1,.82,1a1.73,1.73,0,0,0,1-.31l.4.8a2.65,2.65,0,0,1-1.48.43A1.62,1.62,0,0,1,58.38,1226.23Z"/><path class="cls-2" d="M62.66,1226.2c0-1.85,2-2.41,3.74-2.41h.31v-.66c0-1-.44-1.46-1.41-1.46a2.62,2.62,0,0,0-1.82.76l-.57-.74a3.42,3.42,0,0,1,2.47-1,2.09,2.09,0,0,1,2.39,2.33v3.27a7.11,7.11,0,0,0,.16,1.59H66.87a5.67,5.67,0,0,1-.1-.84,2.77,2.77,0,0,1-2.11,1A1.85,1.85,0,0,1,62.66,1226.2Zm4,0v-1.58H66.4c-1.51,0-2.6.41-2.6,1.59a1,1,0,0,0,1,1A2.33,2.33,0,0,0,66.71,1226.16Z"/><path class="cls-2" d="M69.51,1224.41c0-2.4,1.49-3.69,3.23-3.69a3.32,3.32,0,0,1,2.15.7l-.51.81a2.5,2.5,0,0,0-1.65-.59c-1.45,0-2.08,1.2-2.08,2.74s.64,2.79,2.11,2.79a2.89,2.89,0,0,0,1.71-.59l.43.81a3.33,3.33,0,0,1-2.2.7C70.62,1228.09,69.51,1226.33,69.51,1224.41Z"/><path class="cls-2" d="M76.51,1217.39h1.07v10.52H76.51Zm1.14,6.61,2.89-3.1h1.28l-2.93,3.1,3.06,3.91h-1.3Z"/><path class="cls-2" d="M82.68,1224.36c0-2.06,1.28-3.64,3.15-3.64s2.77,1.24,2.77,3.16c0,.16,0,.32,0,.5H83.82c0,1.49.63,2.79,2.2,2.79a3.54,3.54,0,0,0,2-.63l.44.83a4.13,4.13,0,0,1-2.41.72C83.79,1228.09,82.68,1226.44,82.68,1224.36Zm4.82-.83c0-1-.48-1.89-1.69-1.89s-1.74.79-1.93,1.89Z"/><path class="cls-2" d="M89.81,1224.42c0-2.22,1.33-3.7,3.1-3.7a2.55,2.55,0,0,1,1.78.62v-3.95h1.07v9.09a7.38,7.38,0,0,0,.17,1.43H94.87a4.34,4.34,0,0,1-.14-.8,2.55,2.55,0,0,1-2,1C91,1228.09,89.81,1226.76,89.81,1224.42Zm4.88,1.74v-3.87a2.32,2.32,0,0,0-1.68-.65c-1.33,0-2.06,1.17-2.06,2.75s.57,2.73,2,2.73A2.28,2.28,0,0,0,94.69,1226.16Z"/><path class="cls-2" d="M101.54,1218.18h1.14V1227h3.83v1h-5Z"/><path class="cls-2" d="M108.45,1218.18h5v1h-3.86v3.13H113v1h-3.4V1227h4v1h-5.11Z"/><path class="cls-2" d="M115.78,1218.18h5.1v1h-4v3.13h3.45v1h-3.45v4.67h-1.14Z"/><path class="cls-2" d="M124.56,1219.14H121.8v-1h6.68v1h-2.77v8.77h-1.15Z"/><path class="cls-2" d="M509.54,1227.09l.59-.81a3.12,3.12,0,0,0,2.22.86,1.81,1.81,0,0,0,2-1.65c0-1.19-1.11-1.68-2.24-2.24s-2.27-1.21-2.27-2.76a2.59,2.59,0,0,1,2.84-2.49,4,4,0,0,1,2.56.78l-.56.85a3.12,3.12,0,0,0-2-.68,1.54,1.54,0,0,0-1.7,1.48c0,1,.79,1.42,1.75,1.87,1.29.61,2.78,1.27,2.78,3.17,0,1.54-1.3,2.62-3.19,2.62A4,4,0,0,1,509.54,1227.09Z"/><path class="cls-2" d="M517.73,1226.23v-4.49h-1.16v-.84h1.16v-2h1.06v2h1.77v.84h-1.77v4.39c0,.7.21,1,.82,1a1.76,1.76,0,0,0,.95-.31l.4.8a2.65,2.65,0,0,1-1.48.43A1.62,1.62,0,0,1,517.73,1226.23Z"/><path class="cls-2" d="M522,1226.2c0-1.85,2-2.41,3.74-2.41h.31v-.66c0-1-.44-1.46-1.41-1.46a2.6,2.6,0,0,0-1.82.76l-.57-.74a3.42,3.42,0,0,1,2.47-1,2.09,2.09,0,0,1,2.39,2.33v3.27a7.11,7.11,0,0,0,.16,1.59h-1.06a7.4,7.4,0,0,1-.11-.84,2.74,2.74,0,0,1-2.1,1A1.85,1.85,0,0,1,522,1226.2Zm4,0v-1.58h-.31c-1.51,0-2.6.41-2.6,1.59a1,1,0,0,0,1,1A2.35,2.35,0,0,0,526.06,1226.16Z"/><path class="cls-2" d="M528.86,1224.41c0-2.4,1.49-3.69,3.23-3.69a3.32,3.32,0,0,1,2.15.7l-.51.81a2.52,2.52,0,0,0-1.65-.59c-1.45,0-2.08,1.2-2.08,2.74s.64,2.79,2.11,2.79a2.89,2.89,0,0,0,1.71-.59l.43.81a3.35,3.35,0,0,1-2.2.7C530,1228.09,528.86,1226.33,528.86,1224.41Z"/><path class="cls-2" d="M535.86,1217.39h1.07v10.52h-1.07ZM537,1224l2.89-3.1h1.28l-2.93,3.1,3.06,3.91H540Z"/><path class="cls-2" d="M542,1224.36c0-2.06,1.28-3.64,3.15-3.64s2.77,1.24,2.77,3.16c0,.16,0,.32,0,.5h-4.75c0,1.49.62,2.79,2.2,2.79a3.54,3.54,0,0,0,2-.63l.44.83a4.17,4.17,0,0,1-2.42.72C543.14,1228.09,542,1226.44,542,1224.36Zm4.82-.83c0-1-.48-1.89-1.7-1.89s-1.74.79-1.93,1.89Z"/><path class="cls-2" d="M549.16,1224.42c0-2.22,1.33-3.7,3.1-3.7a2.55,2.55,0,0,1,1.78.62v-3.95h1.07v9.09a6.67,6.67,0,0,0,.17,1.43h-1.07a5.56,5.56,0,0,1-.13-.8,2.55,2.55,0,0,1-2,1C550.37,1228.09,549.16,1226.76,549.16,1224.42Zm4.88,1.74v-3.87a2.34,2.34,0,0,0-1.68-.65c-1.33,0-2.06,1.17-2.06,2.75s.57,2.73,2,2.73A2.28,2.28,0,0,0,554,1226.16Z"/><path class="cls-2" d="M560.91,1218.18h2.64c2,0,3.23,1,3.23,2.59s-1.18,2.45-2.73,2.54v0a5.44,5.44,0,0,1,1,1.21l2.41,3.36h-1.34l-2-2.76c-1.14-1.61-1.31-1.72-2-1.72h-.16v4.48h-1.14Zm2.6,4.31c1.45,0,2.1-.61,2.1-1.7s-.7-1.65-2.19-1.65h-1.37v3.35Z"/><path class="cls-2" d="M569.29,1218.18h1.14v9.73h-1.14Z"/><path class="cls-2" d="M572.67,1223a4.78,4.78,0,0,1,4.9-5,4.84,4.84,0,0,1,3.07.92l-.6.84a3.66,3.66,0,0,0-2.5-.81c-2.55,0-3.67,2-3.67,4s1.14,4.13,3.67,4.13a4.18,4.18,0,0,0,2.41-.6v-2.73h-2.09v-1h3.23v4.25a5.68,5.68,0,0,1-3.58,1A4.82,4.82,0,0,1,572.67,1223Z"/><path class="cls-2" d="M583.63,1218.18h1.14v4.12h5.51v-4.12h1.14v9.73h-1.14v-4.65h-5.51v4.65h-1.14Z"/><path class="cls-2" d="M595.89,1219.14h-2.76v-1h6.68v1H597v8.77h-1.15Z"/></g></svg>