<?xml version="1.0" encoding="utf-8"?>
<!-- Generator: Adobe Illustrator 25.2.3, SVG Export Plug-In . SVG Version: 6.00 Build 0)  -->
<svg version="1.1" xmlns="http://www.w3.org/2000/svg" xmlns:xlink="http://www.w3.org/1999/xlink" x="0px" y="0px"
	 viewBox="0 0 10 10" style="enable-background:new 0 0 10 10;" xml:space="preserve">
<style type="text/css">
	.st0{display:none;}
	.st1{display:inline;fill-rule:evenodd;clip-rule:evenodd;fill:#EC008C;}
	.st2{fill:#FFFFFF;}
	.st3{fill-rule:evenodd;clip-rule:evenodd;fill:#FFFFFF;}
</style>
<g id="BACKGROUND" class="st0">
	<rect class="st1" width="10" height="10"/>
</g>
<g id="ARTWORK">
</g>
<g id="PRODUCTION_NOTES">
	<path class="st3" d="M5,0C2.24,0,0,2.24,0,5c0,2.21,1.43,4.08,3.42,4.74C3.67,9.79,3.76,9.64,3.76,9.5c0-0.12,0-0.43-0.01-0.85
		c-1.39,0.3-1.68-0.67-1.68-0.67C1.84,7.41,1.51,7.25,1.51,7.25c-0.45-0.31,0.03-0.3,0.03-0.3c0.5,0.04,0.77,0.52,0.77,0.52
		c0.45,0.76,1.17,0.54,1.46,0.42c0.05-0.32,0.17-0.54,0.32-0.67C2.98,7.08,1.81,6.65,1.81,4.74C1.81,4.19,2,3.75,2.32,3.4
		C2.27,3.27,2.1,2.76,2.37,2.07c0,0,0.42-0.13,1.37,0.51C4.15,2.48,4.58,2.42,5,2.42c0.42,0,0.85,0.06,1.25,0.17
		c0.95-0.65,1.37-0.51,1.37-0.51c0.27,0.69,0.1,1.2,0.05,1.32C8,3.75,8.19,4.19,8.19,4.74c0,1.92-1.17,2.34-2.28,2.47
		c0.18,0.15,0.34,0.46,0.34,0.93c0,0.67-0.01,1.21-0.01,1.37c0,0.13,0.09,0.29,0.34,0.24C8.57,9.08,10,7.21,10,5C10,2.24,7.76,0,5,0
		z"/>
</g>
</svg>
