<?xml version="1.0" encoding="utf-8"?>
<!-- Generator: Adobe Illustrator 25.2.3, SVG Export Plug-In . SVG Version: 6.00 Build 0)  -->
<svg version="1.1" xmlns="http://www.w3.org/2000/svg" xmlns:xlink="http://www.w3.org/1999/xlink" x="0px" y="0px"
	 viewBox="0 0 10 10" style="enable-background:new 0 0 10 10;" xml:space="preserve">
<style type="text/css">
	.st0{display:none;}
	.st1{display:inline;fill-rule:evenodd;clip-rule:evenodd;fill:#EC008C;}
	.st2{fill:#FFFFFF;}
	.st3{fill-rule:evenodd;clip-rule:evenodd;fill:#FFFFFF;}
</style>
<g id="BACKGROUND" class="st0">
	<rect class="st1" width="10" height="10"/>
</g>
<g id="ARTWORK">
	<g>
		<path id="XMLID_10_" class="st2" d="M5,0.9c1.34,0,1.49,0.01,2.02,0.03c0.49,0.02,0.75,0.1,0.93,0.17c0.23,0.09,0.4,0.2,0.57,0.37
			C8.7,1.65,8.81,1.82,8.9,2.05c0.07,0.18,0.15,0.44,0.17,0.93C9.09,3.51,9.1,3.66,9.1,5c0,1.34-0.01,1.49-0.03,2.02
			C9.05,7.51,8.97,7.77,8.9,7.95c-0.09,0.23-0.2,0.4-0.37,0.57C8.35,8.7,8.18,8.81,7.95,8.9C7.77,8.97,7.51,9.05,7.02,9.07
			C6.49,9.09,6.34,9.1,5,9.1c-1.34,0-1.49-0.01-2.02-0.03C2.49,9.05,2.23,8.97,2.05,8.9c-0.23-0.09-0.4-0.2-0.58-0.37
			C1.3,8.35,1.19,8.18,1.1,7.95C1.03,7.77,0.95,7.51,0.93,7.02C0.91,6.49,0.9,6.34,0.9,5c0-1.34,0.01-1.49,0.03-2.02
			c0.02-0.49,0.1-0.75,0.17-0.93c0.09-0.23,0.2-0.4,0.37-0.57C1.65,1.3,1.82,1.19,2.05,1.1c0.18-0.07,0.44-0.15,0.93-0.17
			C3.51,0.91,3.67,0.9,5,0.9 M5,0C3.64,0,3.47,0.01,2.94,0.03c-0.53,0.02-0.9,0.11-1.21,0.23C1.4,0.39,1.12,0.56,0.84,0.84
			C0.56,1.12,0.39,1.4,0.26,1.72C0.14,2.04,0.05,2.41,0.03,2.94C0.01,3.47,0,3.64,0,5c0,1.36,0.01,1.53,0.03,2.06
			c0.02,0.53,0.11,0.9,0.23,1.21c0.13,0.33,0.3,0.61,0.58,0.89C1.12,9.44,1.4,9.61,1.72,9.74c0.32,0.12,0.68,0.21,1.21,0.23
			C3.47,9.99,3.64,10,5,10c1.36,0,1.53-0.01,2.06-0.03c0.53-0.02,0.9-0.11,1.21-0.23c0.33-0.13,0.61-0.3,0.89-0.58
			C9.44,8.88,9.61,8.6,9.74,8.28c0.12-0.32,0.21-0.68,0.23-1.21C9.99,6.53,10,6.36,10,5c0-1.36-0.01-1.53-0.03-2.06
			c-0.02-0.53-0.11-0.9-0.23-1.21C9.61,1.4,9.44,1.12,9.16,0.84C8.88,0.56,8.6,0.39,8.28,0.26C7.96,0.14,7.59,0.05,7.06,0.03
			C6.53,0.01,6.36,0,5,0"/>
		<path id="XMLID_9_" class="st2" d="M8.27,2.33c0,0.35-0.31,0.64-0.67,0.6C7.33,2.9,7.1,2.67,7.07,2.4
			c-0.04-0.36,0.24-0.67,0.6-0.67C8,1.73,8.27,2,8.27,2.33"/>
		<path class="st2" d="M5,2.5C3.62,2.5,2.5,3.62,2.5,5c0,1.38,1.12,2.5,2.5,2.5c1.38,0,2.5-1.12,2.5-2.5C7.5,3.62,6.38,2.5,5,2.5z
			 M5,6.67C4.08,6.67,3.33,5.92,3.33,5c0-0.92,0.75-1.67,1.67-1.67c0.92,0,1.67,0.75,1.67,1.67C6.67,5.92,5.92,6.67,5,6.67z"/>
	</g>
</g>
<g id="PRODUCTION_NOTES">
</g>
</svg>
