<?xml version="1.0" encoding="utf-8"?>
<!-- Generator: Adobe Illustrator 25.2.3, SVG Export Plug-In . SVG Version: 6.00 Build 0)  -->
<svg version="1.1" xmlns="http://www.w3.org/2000/svg" xmlns:xlink="http://www.w3.org/1999/xlink" x="0px" y="0px"
	 viewBox="0 0 10 10" style="enable-background:new 0 0 10 10;" xml:space="preserve">
<style type="text/css">
	.st0{display:none;}
	.st1{display:inline;fill-rule:evenodd;clip-rule:evenodd;fill:#EC008C;}
	.st2{fill:#FFFFFF;}
	.st3{fill-rule:evenodd;clip-rule:evenodd;fill:#FFFFFF;}
</style>
<g id="BACKGROUND" class="st0">
	<rect class="st1" width="10" height="10"/>
</g>
<g id="ARTWORK">
	<path class="st2" d="M7.95,0H2.05C0.92,0,0,0.92,0,2.05v5.89C0,9.08,0.92,10,2.05,10h5.89C9.08,10,10,9.08,10,7.95V2.05
		C10,0.92,9.08,0,7.95,0z M3,8.61H1.5V3.79H3V8.61z M2.25,3.13c-0.48,0-0.87-0.39-0.87-0.87c0-0.48,0.39-0.87,0.87-0.87
		c0.48,0,0.87,0.39,0.87,0.87C3.12,2.74,2.73,3.13,2.25,3.13z M8.62,8.61h-1.5V6.27c0-0.56-0.01-1.28-0.78-1.28
		c-0.78,0-0.9,0.61-0.9,1.24v2.39h-1.5V3.79h1.44v0.66H5.4c0.2-0.38,0.69-0.78,1.42-0.78c1.52,0,1.8,1,1.8,2.3V8.61z"/>
</g>
<g id="PRODUCTION_NOTES">
</g>
</svg>
