<?xml version="1.0" encoding="utf-8"?>
<!-- Generator: Adobe Illustrator 25.2.3, SVG Export Plug-In . SVG Version: 6.00 Build 0)  -->
<svg version="1.1" xmlns="http://www.w3.org/2000/svg" xmlns:xlink="http://www.w3.org/1999/xlink" x="0px" y="0px"
	 viewBox="0 0 14 10" style="enable-background:new 0 0 14 10;" xml:space="preserve">
<style type="text/css">
	.st0{display:none;}
	.st1{display:inline;fill-rule:evenodd;clip-rule:evenodd;fill:#EC008C;}
	.st2{fill:#FFFFFF;}
	.st3{fill-rule:evenodd;clip-rule:evenodd;fill:#FFFFFF;}
</style>
<g id="BACKGROUND" class="st0">
	<rect class="st1" width="14" height="10"/>
</g>
<g id="ARTWORK">
	<g>
		<path class="st2" d="M13.08,0.08C12.94,0.03,12.8,0,12.64,0H1.36c-0.16,0-0.3,0.03-0.44,0.08L7,5.2L13.08,0.08z"/>
		<path class="st2" d="M13.91,0.78L9.54,4.46l4.37,4.74C13.96,9.08,14,8.96,14,8.83V1.17C14,1.03,13.96,0.9,13.91,0.78z"/>
		<path class="st2" d="M0.09,0.78C0.04,0.9,0,1.03,0,1.17v7.67C0,8.96,0.04,9.08,0.09,9.2l4.37-4.74L0.09,0.78z"/>
		<path class="st2" d="M7,6.6L5.3,5.16L0.91,9.92C1.05,9.97,1.2,10,1.36,10h11.28c0.16,0,0.31-0.03,0.45-0.08L8.7,5.16L7,6.6z"/>
	</g>
</g>
<g id="PRODUCTION_NOTES">
</g>
</svg>
