<svg id="branding_apahm" xmlns="http://www.w3.org/2000/svg" xmlns:xlink="http://www.w3.org/1999/xlink" viewBox="0 0 420 155"><defs><style>.cls-1{fill:none;}.cls-2{fill:#60bcea;}.cls-3{clip-path:url(#clip-path);}.cls-4{clip-path:url(#clip-path-2);}.cls-5{fill:#f5b217;}.cls-6{fill:#2b678b;}.cls-7{fill:#e5565a;}.cls-8{fill:#659256;}.cls-9{fill:#e0c3cf;opacity:0.5;}.cls-10{fill:#fff;}</style><clipPath id="clip-path"><rect class="cls-1" x="132.5" y="-132.5" width="155" height="420" transform="translate(132.5 287.5) rotate(-90)"/></clipPath><clipPath id="clip-path-2"><rect class="cls-1" x="110.38" y="-111.17" width="198.45" height="420.8" transform="translate(110.38 308.83) rotate(-90)"/></clipPath></defs><rect class="cls-2" width="420" height="155"/><g class="cls-3"><g class="cls-4"><ellipse class="cls-5" cx="257.16" cy="-12.76" rx="134.54" ry="127.24"/><ellipse class="cls-6" cx="100.36" cy="95.8" rx="151.19" ry="142.98"/><ellipse class="cls-7" cx="215.7" cy="209.47" rx="134.54" ry="127.24"/><ellipse class="cls-8" cx="369.67" cy="114.37" rx="134.54" ry="127.24"/></g><path class="cls-9" d="M347.06,157.88a16.4,16.4,0,0,1-12.3,16c-8.92,2.45-18.29-2.42-20.88-10.86A14.05,14.05,0,0,1,315.56,151a16.64,16.64,0,0,1,11.23-7.66,22.13,22.13,0,0,1,17,3.4,11.49,11.49,0,0,1,2.27,5.2c.18.73.37,1.48.61,2.23A17.68,17.68,0,0,1,347.06,157.88Zm-33.71.8A14.83,14.83,0,0,0,314,163c2.57,8.37,11.86,13.21,20.71,10.78a16.52,16.52,0,0,0,10-7.56,17,17,0,0,0,1.82-12.06c-.24-.74-.43-1.49-.62-2.22a11.33,11.33,0,0,0-2.23-5.14,22,22,0,0,0-16.87-3.37,16.54,16.54,0,0,0-11.15,7.6A13.71,13.71,0,0,0,313.35,158.68Z"/><path class="cls-9" d="M354.6,156.72c0,1.68-.06,3.37-.16,5.05a22.56,22.56,0,0,1-3.05,8.45,23.7,23.7,0,0,1-6.47,6.93,24.83,24.83,0,0,1-8.79,4,21.59,21.59,0,0,1-14.29-.26,24.8,24.8,0,0,1-11.39-8.25,22.68,22.68,0,0,1-4.23-8.31,22,22,0,0,1-.52-8.91,17,17,0,0,1,3.58-8.35,39.29,39.29,0,0,1,17-9.79A29.09,29.09,0,0,1,345,138C352.86,140.19,354.6,148.16,354.6,156.72Zm-49,1.91a21.8,21.8,0,0,0,.75,5.67,22.44,22.44,0,0,0,4.2,8.27c6,7.89,16.73,11.45,25.54,8.47a25,25,0,0,0,8.76-4h0a23.43,23.43,0,0,0,6.43-6.89,22.41,22.41,0,0,0,3-8.39c.61-10.23,0-21-9.4-23.61-11-4.48-25.59-.77-35.54,9a16.88,16.88,0,0,0-3.54,8.28A21.36,21.36,0,0,0,305.6,158.63Z"/><path class="cls-9" d="M365.38,144.5a74.76,74.76,0,0,1-.78,9.16c-.17,1.27-.32,2.47-.43,3.6a36.5,36.5,0,0,1-.89,8.21,31.58,31.58,0,0,1-8.2,14.92h0a34.15,34.15,0,0,1-7,5.51,37.42,37.42,0,0,1-31.52,1.82,33.87,33.87,0,0,1-11.66-7.59A30.42,30.42,0,0,1,297.46,168a34,34,0,0,1-1.36-8.07,30.47,30.47,0,0,1,.75-8.19c4.22-9,12.8-16.24,24.17-20.32,12.93-4.65,27.42-4.46,37.81.47C364.05,134,365.38,139,365.38,144.5ZM355,180.3a31.44,31.44,0,0,0,8.18-14.86,36.86,36.86,0,0,0,.88-8.19c.11-1.13.27-2.33.43-3.61,1-8.17,2.34-18.35-5.7-21.63-10.36-4.92-24.81-5.1-37.7-.47-11.34,4.07-19.9,11.26-24.1,20.24a30.54,30.54,0,0,0-.74,8.15,33.68,33.68,0,0,0,1.36,8c2.91,9,9.66,15.95,19,19.64A37.25,37.25,0,0,0,348,185.78a33.7,33.7,0,0,0,7-5.48Z"/><path class="cls-9" d="M379.2,133c0,3.88-1.31,8.38-2.65,13-1.72,5.92-3.5,12-2.77,17.41h0A39.65,39.65,0,0,1,371,173.89a41.19,41.19,0,0,1-5.78,9.74,39.24,39.24,0,0,1-8.41,7.9c-7.07,4.24-15.37,6.3-25.37,6.28-7.49,0-15.71-1.19-25.88-3.69a26.19,26.19,0,0,1-14.89-11.77,32.79,32.79,0,0,1-4.46-18.08,54.38,54.38,0,0,1,.15-10.48,29.73,29.73,0,0,1,3.27-10.48h0c10.05-10,24-17.61,39.39-21.37s30.85-3.38,43.5,1.15C377.56,125.13,379.2,128.67,379.2,133Zm-5.72,27.82c0-4.72,1.49-9.86,2.94-14.85,2.83-9.73,5.5-18.93-3.94-22.77-26.2-9.37-61.78-.69-82.74,20.18a29.45,29.45,0,0,0-3.25,10.42,54.26,54.26,0,0,0-.15,10.47c-.48,11.68,5.27,25.4,19.26,29.73,15.47,3.8,35.26,6.94,51.14-2.58a38.71,38.71,0,0,0,8.38-7.87,41.12,41.12,0,0,0,5.76-9.71,39.45,39.45,0,0,0,2.77-10.42A18.62,18.62,0,0,1,373.48,160.82Z"/><path class="cls-9" d="M396.52,124c0,3.76-2.58,8.57-5.29,13.63-3.48,6.49-7.43,13.86-6.71,20.45a64.58,64.58,0,0,1-1.08,9.89,49.6,49.6,0,0,1-8.07,18.9,51.08,51.08,0,0,1-7,8c-12.2,8.26-30,12.43-47.58,11.16-18.39-1.32-33.88-8.29-42.5-19.13-4.85-6.23-6.89-14.74-5.72-24,1.06-8.4,4.73-16.46,9.83-21.57a85.38,85.38,0,0,1,23-17.66,110.39,110.39,0,0,1,28.76-10.53A105.4,105.4,0,0,1,364.67,111a77.77,77.77,0,0,1,28.07,7.24,6.08,6.08,0,0,1,3.78,5.78ZM384.3,156.47c0-6.2,3.61-12.92,6.82-18.91s6.22-11.59,5-15.5a6.29,6.29,0,0,0-3.43-3.72c-33-16-84.52-5.19-110.16,23.14-10.46,10.5-14.43,32.14-4.1,45.38,8.6,10.82,24.06,17.77,42.41,19.09,17.57,1.27,35.32-2.89,47.48-11.13a50.37,50.37,0,0,0,6.94-8,49.12,49.12,0,0,0,8.05-18.85,64.16,64.16,0,0,0,1.08-9.86A14.35,14.35,0,0,1,384.3,156.47Z"/><path class="cls-9" d="M414.94,116.31a9.8,9.8,0,0,1-1,4.09,78.92,78.92,0,0,1-7.31,11.92c-4.83,6.93-9.81,14.1-11.07,23.1-.31,2-.53,4.06-.75,6s-.43,3.84-.72,5.76a58.7,58.7,0,0,1-8.6,22.89h0a60.61,60.61,0,0,1-7.88,9.92h0c-14.55,8-33,12.61-51.24,13.12,18-.53,36.37-5.12,51.17-13.23a59.74,59.74,0,0,0,7.86-9.89A58.78,58.78,0,0,0,394,167.2c.28-1.92.5-3.87.71-5.76s.45-4,.75-6c1.26-9,6.26-16.22,11.09-23.17a79.5,79.5,0,0,0,7.31-11.89c1.4-3.1,1.25-5.94-.45-8.44-4.38-6.42-17.51-8.82-25-8.41-43.84,1.77-88.14,7.15-115.22,34.18a64.31,64.31,0,0,0-13.43,22.65c-2.27,6.78-4.07,16.5.32,24.3,8.94,15.88,27.14,24.78,47.84,27.59a82.85,82.85,0,0,1-26.67-7.93c-9.54-4.87-16.7-11.46-21.28-19.6-4.41-7.83-2.62-17.6-.33-24.41a64.64,64.64,0,0,1,13.46-22.69c12.66-12.65,29.93-21.46,52.8-27,20.86-5,43.3-6.48,62.5-7.26a44,44,0,0,1,14.06,1.74c3.7,1.1,8.62,3.15,11.05,6.72A7.86,7.86,0,0,1,414.94,116.31Z"/><path class="cls-9" d="M432.34,114.62c0,5.58-6.64,11.69-12.53,17.1a67.7,67.7,0,0,0-7.55,7.64A42.21,42.21,0,0,0,405.35,161a84.12,84.12,0,0,1-1.42,11,68.83,68.83,0,0,1-8.27,21.38,65.08,65.08,0,0,1-6.89,9.59c-27,21.69-63.88,15.28-96.39,9.62l-4.54-.79a143,143,0,0,1-27.59-7c-10.77-4.09-17.56-9-20.18-14.49-1.95-4.11-1.54-8.57,1.22-13.28,2.74-5,4.71-10.71,6.62-16.23s3.82-11.08,6.48-15.9c3-5.4,6.6-9.24,11.05-11.74,25-14.7,51.88-29.29,79.62-36.46,15.16-3.93,29.42-5.23,42.37-3.88A86.79,86.79,0,0,1,428,107.71c2.75,1.91,4.16,4,4.33,6.45C432.34,114.31,432.34,114.47,432.34,114.62Zm-36.79,78.67A68.66,68.66,0,0,0,403.8,172a84.25,84.25,0,0,0,1.42-11,42.42,42.42,0,0,1,6.93-21.67,68.24,68.24,0,0,1,7.58-7.66c5.86-5.39,12.48-11.48,12.48-17,0-.15,0-.3,0-.45-.16-2.39-1.56-4.46-4.27-6.35-48.4-33.21-106.66-7.4-162.42,25.43-9.88,5.54-13.57,16.24-17.48,27.57-1.91,5.52-3.88,11.24-6.63,16.26-2.74,4.66-3.14,9.09-1.21,13.16,2.61,5.49,9.37,10.34,20.1,14.42a143.62,143.62,0,0,0,27.57,7l4.54.78c32.48,5.66,69.3,12.06,96.28-9.58A65.42,65.42,0,0,0,395.55,193.29Z"/><path class="cls-9" d="M442.31,117.68c0,6.36-5.59,12.16-11.49,18.28-6.35,6.59-13.56,14.07-14.9,23.48A89.31,89.31,0,0,1,414.64,172a78.21,78.21,0,0,1-8.83,24.58,76.08,76.08,0,0,1-7.58,11.1h0c-13.66,9.73-30.13,15-50.35,16-17.83.9-36.15-1.49-53.88-3.8-5.95-.78-11.57-1.51-17.18-2.13a103.27,103.27,0,0,1-28.5-7c-10-4.09-17.54-9.37-21.86-15.27a20.42,20.42,0,0,1-3.87-16.93c1.88-8.36,6.26-17.22,13-26.31a157.63,157.63,0,0,1,22.16-23.55c6.62-6.57,14.54-11.59,24.93-15.8,9.17-3.71,18.79-6.22,29-8.87,14.64-3.82,29.78-7.76,43.34-15.58,8.53-4.88,20.2-7.35,32.86-7,12.37.38,24.51,3.41,34.18,8.52a44.22,44.22,0,0,1,13.94,11,27.12,27.12,0,0,1,6.2,15.09A11.1,11.1,0,0,1,442.31,117.68Zm-36.62,78.85A77.63,77.63,0,0,0,414.51,172a89,89,0,0,0,1.28-12.56c1.35-9.46,8.57-17,14.94-23.56s12.33-12.8,11.34-19.7c-.81-10.36-7.94-19.6-20.07-26-20.29-10.73-49.68-11.42-66.92-1.57-13.58,7.83-28.72,11.78-43.37,15.59-20.24,5.27-39.35,10.25-53.86,24.64-19.83,17.53-31.66,34.28-35.14,49.79a20.32,20.32,0,0,0,3.84,16.84c4.31,5.88,11.85,11.14,21.81,15.22a103.44,103.44,0,0,0,28.46,7c5.61.61,11.24,1.34,17.19,2.12,34.5,4.5,73.61,9.6,104.13-12.14A75.73,75.73,0,0,0,405.69,196.53Z"/><path class="cls-9" d="M460.09,110.57a14.53,14.53,0,0,1-1.37,5.81h0a167.27,167.27,0,0,1-11.36,12.3c-10.66,10.8-20.73,21-21.18,36.29a85.21,85.21,0,0,1-1.7,11.79A88.15,88.15,0,0,1,416,199.84a89.91,89.91,0,0,1-6.71,10.64v0c-16.16,12.11-36.66,18.71-62.68,20.19-22.79,1.29-46.18-1.39-68.8-4-5.31-.61-10.32-1.19-15.31-1.71a59.77,59.77,0,0,1-18.8-5.14,71.13,71.13,0,0,1-17.16-11c-11-9.52-18.6-21.85-21.25-34.71-1.33-3.15.71-7.65,4.55-10,11.16-5.34,17.43-14.39,23.5-23.14,3.55-5.11,7.21-10.4,11.8-14.83,6-5.7,13.66-10.23,23.3-13.86,8.6-3.25,18.07-5.51,27.23-7.71,8.18-2,16.63-4,24.67-6.73,5.46-2.52,8.27-7.45,11-12.21,2.44-4.29,4.74-8.34,8.77-9.85a73.51,73.51,0,0,1,30.05-5,112.1,112.1,0,0,1,30.69,5.84c21.61,7.06,42,19.16,57.28,28.91A6.29,6.29,0,0,1,460.09,110.57Zm-1.48,5.75c1.53-3.38,2.29-8.19-.63-10.66-34.54-22-79.16-45.22-117.9-29.73-4,1.5-6.28,5.53-8.71,9.79-2.72,4.78-5.54,9.73-11,12.27-8.05,2.75-16.51,4.78-24.69,6.74-19,4.56-37,8.87-50.47,21.53-4.58,4.42-8.24,9.71-11.78,14.81-6.08,8.77-12.37,17.83-23.54,23.19-3.79,2.32-5.81,6.74-4.5,9.85,5.36,25.91,30.44,48.2,57.1,50.75,5,.52,10,1.1,15.31,1.71,44.63,5.13,95.21,10.94,131.38-16.17a91.74,91.74,0,0,0,6.7-10.62,88.35,88.35,0,0,0,8.51-23A87,87,0,0,0,426,165c.2-6.88,2.44-13.41,6.85-20,3.94-5.85,9.24-11.22,14.37-16.41C451.13,124.67,455.14,120.61,458.61,116.32Z"/><path class="cls-9" d="M469.28,112.4c0,8.51-7.09,15.24-14.59,22.35C446,143,437,151.52,437,164v.22a125.32,125.32,0,0,1-1.83,13.11,97.46,97.46,0,0,1-9.08,25.73A95.85,95.85,0,0,1,418.8,215v0c-9.17,7.54-20.48,12.51-34.57,15.2-12.56,2.39-26.09,2.79-39.17,3.17-9.63.28-19.59.57-29,1.66-5.22.75-9.77,3-14.17,5.23-5.54,2.77-10.78,5.39-16.59,4.5-14.38-1.93-30.07-7.3-44.19-15.13-15-8.3-27-18.63-34.91-29.86a56.42,56.42,0,0,1-8.7-18.35,42.79,42.79,0,0,1-.39-19.8c2.21-8.46,11-15.18,20.26-22.3,6.37-4.87,12.95-9.92,17.9-15.86,4.29-3.42,8.71-7,13.73-8.84,5.79-2.36,11.82-4.48,17.66-6.53,23.16-8.14,47.11-16.55,59.7-41.76,2.29-4.3,6.3-7.08,11.93-8.26,4.85-1,11-.89,18.36.41,13.18,2.32,28.07,8,39.57,12.69a229.33,229.33,0,0,0,22.87,7.32c11.54,3.28,23.48,6.67,32.84,11.66,10.6,5.66,16.28,12.63,17.37,21.31C469.27,111.78,469.28,112.09,469.28,112.4ZM436.87,164c0-5.59,1.84-10.91,5.61-16.27,3.36-4.79,7.82-9,12.13-13.1,7.47-7.09,14.54-13.79,14.54-22.25,0-.31,0-.61,0-.92-1.09-8.63-6.74-15.57-17.31-21.2-9.34-5-21.27-8.38-32.81-11.66a224.47,224.47,0,0,1-22.88-7.32c-11.49-4.69-26.37-10.36-39.55-12.69-7.31-1.29-13.47-1.42-18.3-.41-5.59,1.18-9.58,3.94-11.84,8.2a62.71,62.71,0,0,1-11.33,16A70.49,70.49,0,0,1,300.7,93.66c-10.41,6.26-22.42,10.48-34,14.57-5.83,2-11.86,4.17-17.65,6.52-5,1.89-9.42,5.41-13.69,8.81-4.95,5.95-11.54,11-17.91,15.88-9.27,7.1-18,13.81-20.21,22.22-2.78,12.7.28,25.5,9.07,38,15.64,22.33,48.14,40.81,79,44.94,5.77.89,11-1.72,16.51-4.49,4.41-2.2,9-4.48,14.21-5.24,9.45-1.09,19.41-1.38,29-1.66,26.18-.77,53.26-1.56,73.66-18.34A96.28,96.28,0,0,0,426,203a97.56,97.56,0,0,0,9.06-25.7,127.41,127.41,0,0,0,1.84-13.09A1.48,1.48,0,0,1,436.87,164Z"/><path class="cls-9" d="M479.06,115.26c0,1.89-.8,4.07-2.44,6.67-2.21,3.54-5.79,7.56-9.57,11.81-8.84,9.95-19.85,22.32-20,35.93A106.06,106.06,0,0,1,445,182a107.2,107.2,0,0,1-8.76,24.29,104.63,104.63,0,0,1-6.64,11.38,46.64,46.64,0,0,1-13.38,10.62A61.78,61.78,0,0,1,400.41,234c-11.18,2.54-23.68,2.91-35.77,3.26-12.64.37-25.71.75-37.44,3.6-4.68,1.31-7.84,5.17-10.9,8.9-3.21,3.93-6.25,7.63-10.84,8.43a52.33,52.33,0,0,1-24.39,1.24,72.38,72.38,0,0,1-22.51-8.56c-14.26-8.1-27.24-20.33-38.05-31.23-1.79-1.76-3.72-3.6-5.76-5.56-9.13-8.75-20.5-19.63-27.27-30.67-3.71-6-5.69-11.49-6-16.61a22,22,0,0,1,5.33-16c8.39-9.72,19.92-17.26,32.13-25.26,4.69-3.07,9.55-6.25,14.2-9.56,9.19-5.47,19.35-8.29,29.17-11C275,101.47,287,98.12,296.41,89.47c4.28-4.53,4.79-11.07,5.28-17.39.38-4.83.73-9.4,2.66-13.08,2.18-4.17,6-6.47,12-7.24,27.82-4,60.23-.71,89.59,9.1-29.39-9.71-62.06-13-89.57-9-13.15,1.67-13.85,10.67-14.59,20.2-.5,6.34-1,12.9-5.32,17.48-9.4,8.67-21.45,12-34.2,15.56-9.82,2.73-20,5.55-29.14,11-4.65,3.31-9.51,6.49-14.2,9.56-12.2,8-23.72,15.53-32.1,25.23-7.4,9-7.16,19.59.73,32.46,6.76,11,18.12,21.89,27.25,30.64,2,1.95,4,3.8,5.76,5.56,25.32,25.52,53.13,47.84,84.83,38.51,4.55-.79,7.57-4.48,10.77-8.38,3.07-3.75,6.25-7.63,11-8.95,11.74-2.84,24.82-3.23,37.47-3.6,24.12-.71,49.05-1.44,64.86-19.54a104.21,104.21,0,0,0,6.62-11.36A107.45,107.45,0,0,0,444.88,182a105.34,105.34,0,0,0,2.06-12.35c.06-6.07,2.24-12.39,6.67-19.32,3.86-6,8.9-11.69,13.34-16.68,6.35-7.14,12-13.46,12-18.42a5.63,5.63,0,0,0-.61-2.61,90.29,90.29,0,0,0-19.48-23.15,89,89,0,0,1,19.6,23.09A5.85,5.85,0,0,1,479.06,115.26Z"/><path class="cls-9" d="M494,107.66c0,6.14-7.2,13.56-14.8,21.38-8.05,8.3-17.18,17.71-19.19,27.11-.32,1.88-.58,3.6-.82,5.26-.39,2.69-.76,5.22-1.39,8.1a115.1,115.1,0,0,1-11.39,40.06A74.78,74.78,0,0,1,438.91,222c-7.49,8.32-17.56,13.87-30.79,17-11.69,2.73-24.38,3.28-36.66,3.81-6.24.27-12.14.53-17.9,1-9.84.87-15.58,8-20.64,14.23-3,3.76-5.91,7.31-9.27,8.92a67.94,67.94,0,0,1-22.25,6.51A64.22,64.22,0,0,1,280,272.1c-12.85-3-26.11-9.91-39.38-20.64-25.59-20.67-47-51.69-60.8-73.23a70.56,70.56,0,0,1-7.78-15.69c-2.17-6.49-2.54-12-1.1-16.38s4.76-7.64,9.83-9.55c2.88-1.38,5.73-2.72,8.48-4,14.06-6.65,27.35-12.93,40.65-21.76,7.7-4.73,16.23-7.25,24.49-9.68s16.78-4.93,24.46-9.65c.67-.71,1.42-1.4,2.15-2.06,2.18-2,4.43-4.06,4.69-6.88a80.25,80.25,0,0,0-.64-10.28c-.52-5-1.06-10.07-.16-14.39a13.65,13.65,0,0,1,8.42-10.26A103.8,103.8,0,0,1,335,37.13c12.81-.49,25.93,1.29,40.11,5.47,26.24,7.72,51.45,22.32,75.82,36.44,12.6,7.3,24.49,14.19,36.39,20.1,4,2.06,6.13,4.46,6.59,7.34A6.56,6.56,0,0,1,494,107.66Zm-47.7,101.85A117.86,117.86,0,0,0,455.54,183a113.78,113.78,0,0,0,2.11-13.48c.62-2.88,1-5.42,1.38-8.09.25-1.67.5-3.39.82-5.27,2-9.44,11.16-18.86,19.23-27.18s15.68-16.16,14.66-22.45c-.45-2.84-2.59-5.21-6.52-7.25-11.9-5.91-23.8-12.8-36.39-20.1-49.64-28.75-101-58.49-157.44-31.42a13.4,13.4,0,0,0-8.34,10.17c-.9,4.31-.36,9.42.16,14.36a80.33,80.33,0,0,1,.64,10.3c-.26,2.87-2.54,5-4.74,7-.72.67-1.48,1.36-2.15,2.07h0c-7.7,4.72-16.23,7.24-24.49,9.67s-16.78,4.94-24.46,9.66c-13.31,8.83-26.6,15.12-40.67,21.77-2.75,1.3-5.6,2.65-8.48,4-5,1.9-8.32,5.08-9.76,9.47-3.72,11.36,5.85,27.33,8.87,32,13.84,21.53,35.19,52.54,60.77,73.2,28.51,23,56.39,28.23,82.87,15.46,3.33-1.6,6.19-5.14,9.22-8.88,5.08-6.29,10.83-13.41,20.73-14.28,5.76-.52,11.66-.78,17.91-1,24.91-1.07,50.66-2.19,67.35-20.73A75.22,75.22,0,0,0,446.27,209.51Z"/><path class="cls-9" d="M504.11,103.67c0,3.81-1.69,8.2-5.12,13.37a143.89,143.89,0,0,1-12.25,15.11c-4.26,4.82-8.29,9.38-10.89,13.48-.7,1.54-1.51,3.08-2.3,4.56-2.06,3.92-4,7.63-4.36,11.81-.07.75-.13,1.5-.2,2.26-.32,3.45-.64,7-1.1,10.55a126.16,126.16,0,0,1-11.36,38,86.07,86.07,0,0,1-6.77,11.9c-6.89,7.95-15.87,13.45-27.45,16.83-10.31,3-21.68,4.1-32.68,5.15-12.24,1.16-24.89,2.37-36.07,6.25-6.62,2.48-7.53,8-8.5,13.92-.72,4.37-1.46,8.88-4.72,12.09a36.53,36.53,0,0,1-18.95,10,53.32,53.32,0,0,1-21.34-.69c-15.1-3.25-30.39-11.46-40.57-17.35a251.15,251.15,0,0,1-33.86-23.23,206.11,206.11,0,0,1-29-28.75c-18.42-22.47-29.49-46.76-32.9-72.19-1.06-6.56,2-12,4.79-15.45a32.88,32.88,0,0,1,13.67-9.84c5.33-1.74,11.32-3.41,17.65-5.19,12.78-3.58,27.26-7.63,39.54-13.15,14.09-6.32,23.1-13.59,27.55-22.22,4.14-8,4.31-17.46.51-28v0l0,0a80.17,80.17,0,0,1,20.7-16.87,75.32,75.32,0,0,1,23.15-8.27c14.8-2.74,31.8-1.56,50.52,3.49,15.54,4.2,32.22,11,51,20.65,16.6,8.57,32.21,18.1,45.3,26.3,5.95,3.62,12.84,5.16,19.51,6.65,7.95,1.77,15.45,3.44,20.7,8.43,3.45,2.63,5.38,5.75,5.73,9.28A12.16,12.16,0,0,1,504.11,103.67Zm-47.7,109.09a125.9,125.9,0,0,0,11.35-38c.46-3.51.78-7.09,1.1-10.55l.21-2.25c.33-4.21,2.29-7.93,4.37-11.86.78-1.48,1.59-3,2.3-4.56,2.6-4.12,6.64-8.68,10.91-13.5,8.51-9.63,18.16-20.53,17.27-29.61-.35-3.54-2.21-6.55-5.68-9.19-5.23-5-12.72-6.64-20.65-8.41-6.67-1.49-13.58-3-19.55-6.66-30.51-19.11-63.28-38-96.27-46.93-40.16-10.85-71.86-3.58-94.22,21.58a41.85,41.85,0,0,1,2.73,15.46A29.41,29.41,0,0,1,267,81c-4.47,8.66-13.5,15.94-27.61,22.28-12.29,5.52-26.78,9.58-39.56,13.16-6.34,1.77-12.32,3.45-17.65,5.18-10.39,3.91-20.11,14.39-18.37,25.15,6.37,47.6,41.26,92.83,95.7,124.08,10.18,5.88,25.46,14.09,40.54,17.34,16.73,3.6,30.24.48,40.17-9.29,3.23-3.17,4-7.67,4.68-12,1-5.92,1.9-11.51,8.58-14,11.2-3.88,23.86-5.09,36.11-6.25,22-2.1,44.72-4.26,60-21.93A85.78,85.78,0,0,0,456.41,212.76Z"/><path class="cls-9" d="M512.86,101.54c0,7.81-7.31,17.64-15,28C490,140.06,481.93,151,480,161.26c-.21,1.94-.4,3.91-.59,5.83-.25,2.61-.51,5.31-.84,8a135.47,135.47,0,0,1-11.92,41h0a81.37,81.37,0,0,1-7.33,12.85c-4.87,6.66-11.88,11.43-21.41,14.6-8.43,2.8-17.79,4.05-26.84,5.26-15.48,2.06-30.09,4-38.16,13.35-9.5,12.24-19.8,24.79-31.83,32a44.36,44.36,0,0,1-19.39,6.47c-7.45.63-15.18-.63-23.64-3.85-4.85-1-9.72-2.27-14.47-3.74s-9.62-3.25-14.28-5.21-9.25-4.16-13.65-6.54-8.59-4.92-12.65-7.66c-22.69-17.32-41.41-35.92-55.64-55.29-16.75-22.77-27.18-46.53-31-70.62a26.82,26.82,0,0,1,5-20.59,43.11,43.11,0,0,1,17.44-13.54c8.39-3.75,18.9-5.9,29.08-8,10.67-2.19,21.7-4.44,30.1-8.54,9.38-4.57,14.45-11,15.48-19.76.66-4.44,0-9.37-.62-14.14-1.32-10-2.69-20.3,7.24-27.74a115.65,115.65,0,0,1,33.15-15,128.07,128.07,0,0,1,35.48-4.5,152,152,0,0,1,69.17,18c19.09,9.87,38.6,20.31,57.46,30.41C471.8,73.11,488.77,82.2,505,90.64c4.3,2.19,6.78,4.93,7.59,8.36A11.24,11.24,0,0,1,512.86,101.54ZM466.55,216a134.93,134.93,0,0,0,11.91-41c.33-2.65.59-5.35.84-8,.19-1.91.38-3.89.59-5.83,1.92-10.34,10-21.24,17.86-31.78,8.54-11.48,16.6-22.33,14.7-30.43-.8-3.4-3.26-6.1-7.52-8.27-16.22-8.45-33.19-17.53-49.6-26.32C436.47,54.35,417,43.91,397.87,34,351.53,9.42,298.78,10,260.21,35.51c-9.87,7.39-8.51,17.67-7.19,27.61.63,4.78,1.28,9.72.62,14.17a22.32,22.32,0,0,1-5.06,12.06,30.89,30.89,0,0,1-10.5,7.81c-8.4,4.1-19.45,6.36-30.13,8.54-10.16,2.09-20.68,4.24-29,8-12.1,5.34-25.23,17.46-22.41,34,8.94,56.17,52,99.43,86.61,125.82,4.05,2.74,8.3,5.31,12.63,7.66s9,4.57,13.64,6.53,9.46,3.71,14.27,5.21,9.61,2.73,14.46,3.74c34.22,13,53.32-7,74.73-34.59,8.1-9.38,22.74-11.33,38.24-13.4,18.35-2.45,37.32-5,48.16-19.8A80.47,80.47,0,0,0,466.55,216Z"/><path class="cls-9" d="M519.69,96.33a36.73,36.73,0,0,1-3,13.3c-2.78,7-7.24,14.7-11.56,22.12-7,12.06-14.27,24.53-15.11,35.33-.26,4.38-.73,8.81-1.4,13.16a145.49,145.49,0,0,1-11.82,39.06,121.9,121.9,0,0,1-6.54,12.38c-5,7.46-11.95,12.91-21.36,16.67-8.41,3.37-18,5.14-27.33,6.84-13.41,2.46-27.27,5-38.66,12.33-4.81,4.32-5.52,9.66-6.28,15.32a52.73,52.73,0,0,1-1.42,7.68c-2.7,7.32-8.22,12.71-16.42,16-8.42,3.39-17.62,3.78-23.87,3.5-4.49.16-9.14.11-13.82-.14a167.26,167.26,0,0,1-55.22-12.49,160.58,160.58,0,0,1-47.19-29.87c-3.31-3-6.52-6.22-9.54-9.52l-.64-.81c-23.68-30-48.17-61-57.85-100-3-11.93-1.41-22.62,4.62-31.76,5.35-8.12,14.18-15,26.24-20.48a141.46,141.46,0,0,1,34.93-10.09c7.82-2.19,22.39-6.27,20.84-12.35-5-16.58-3.78-31,3.48-42.81,5.36-8.74,14.09-16.14,25.93-22C277,12.63,289.49,8.73,304,6.11a150,150,0,0,1,44.57.4,170.6,170.6,0,0,1,40.79,12.12c22.39,9.69,45.27,24.42,72,46.36,7.59,5.49,17.31,7,26.71,8.53,6,.94,11.58,1.84,16.15,3.7,7.9,3.22,12.66,7.51,14.58,13.12A18.62,18.62,0,0,1,519.69,96.33ZM149.34,145.82a46.8,46.8,0,0,0,1.46,11.3c9.67,39,34.15,70,57.82,100l.64.81c3,3.28,6.22,6.49,9.53,9.51a160.3,160.3,0,0,0,47.15,29.84,167,167,0,0,0,55.18,12.48c4.67.25,9.32.3,13.81.14,9.77.43,33.23-.59,40.17-19.42a52,52,0,0,0,1.41-7.66c.76-5.68,1.48-11,6.34-15.4,11.41-7.34,25.28-9.89,38.7-12.35,19.34-3.55,37.6-6.91,48.61-23.46a124.64,124.64,0,0,0,6.54-12.36,145.73,145.73,0,0,0,11.81-39c.66-4.34,1.13-8.77,1.39-13.15.84-10.83,8.11-23.31,15.13-35.39,4.31-7.41,8.77-15.07,11.55-22.1,3.11-7.85,3.78-14.13,2-19.2-1.9-5.57-6.64-9.84-14.5-13-4.56-1.86-10.17-2.75-16.12-3.7-9.41-1.49-19.15-3-26.77-8.54C419.61,30.91,368.37-2.81,304,6.24c-21.83,3.95-50.49,13-63.09,33.49-7.24,11.8-8.41,26.17-3.46,42.72.67,2.64-1.41,5.08-6.35,7.48a92.66,92.66,0,0,1-14.59,5c-17.16,2.8-47.9,10.49-61.09,30.51A36.29,36.29,0,0,0,149.34,145.82Z"/><path class="cls-9" d="M526.2,95.83c0,1.15-.05,2.29-.16,3.44-1.24,11.56-6.93,22.16-12.44,32.42-5.9,11-12,22.33-12.87,35.08-.25,4.69-.72,9.41-1.4,14A155.38,155.38,0,0,1,487,222.55a77.59,77.59,0,0,1-7.33,13.11c-5.29,6.83-12.29,12-21.42,15.94-8.16,3.48-17.32,5.66-26.17,7.76-9.59,2.27-19.51,4.62-28.59,8.68-3.76,2.31-7.66,4.7-8.5,9.56a39.16,39.16,0,0,1-11.59,28.27A45.55,45.55,0,0,1,350.87,319c-4.84.57-9.77.94-14.65,1.11A178.69,178.69,0,0,1,262.46,307a173.15,173.15,0,0,1-39.29-22.3,165.08,165.08,0,0,1-30.67-30.23c-2.87-3.7-5.62-7.57-8.15-11.49-3.17-5.43-6.6-11-9.92-16.33-17.08-27.54-34.73-56-30.06-89.1A43.78,43.78,0,0,1,152,119.42a54.1,54.1,0,0,1,13.61-13c10.59-7.28,23.75-12.22,36.47-17,6.5-2.44,12.65-4.75,18.46-7.35a11.72,11.72,0,0,0,5.1-7c-.67-3.88-2.48-7.8-4.23-11.58-3.44-7.44-6.69-14.47-1.83-21.12,8.47-12.8,20.88-24,35.87-32.38A128,128,0,0,1,302.15-5.11,141.56,141.56,0,0,1,345-4.25a170.16,170.16,0,0,1,39,11.87c25,10.78,48.77,26.79,71.76,42.27,8,5.38,16.26,11,24.49,16.24,4.52,3.08,10,1.86,15.75.56,6.21-1.4,12.64-2.84,18,1.4C521.65,74.63,526.2,85,526.2,95.83ZM394.82,277.59c.85-4.93,4.77-7.34,8.57-9.67,9.1-4.06,19-6.41,28.62-8.69,18.4-4.36,35.78-8.49,47.52-23.65a77.56,77.56,0,0,0,7.31-13.09A155,155,0,0,0,499.2,180.8c.68-4.63,1.15-9.36,1.4-14,.87-12.78,7-24.14,12.88-35.13,5.51-10.25,11.2-20.84,12.43-32.37,1.08-12-3.55-23.86-12.1-31.07-5.29-4.2-11.68-2.76-17.87-1.37-5.8,1.3-11.28,2.53-15.84-.58C471.87,61,463.6,55.38,455.61,50,409.75,19.12,362.34-12.8,302.17-5c-34.24,4.13-65.86,22.33-82.53,47.5-4.81,6.6-1.58,13.59,1.85,21,1.76,3.79,3.57,7.72,4.24,11.62v0h0a11.87,11.87,0,0,1-5.16,7h0c-5.82,2.6-12,4.92-18.48,7.36-25.79,9.7-52.46,19.73-57.59,48-4.65,33,13,61.49,30,89,3.32,5.36,6.75,10.9,9.92,16.32,2.53,3.92,5.27,7.78,8.15,11.48a169.35,169.35,0,0,0,69.9,52.49A177.66,177.66,0,0,0,336.22,320c4.87-.17,9.8-.54,14.64-1.11a45.43,45.43,0,0,0,32.41-13.09A39.09,39.09,0,0,0,394.82,277.59Z"/><path class="cls-9" d="M7.77-2.64A6.76,6.76,0,0,1,7.12.12a54.33,54.33,0,0,1-4.93,8c-3.25,4.66-6.6,9.49-7.45,15.54-.2,1.35-.36,2.73-.5,4.06s-.29,2.59-.48,3.88A39.51,39.51,0,0,1-12,47.05a40.29,40.29,0,0,1-5.31,6.68h0c-12.36,6.78-28.84,10-44.08,8.53A57.51,57.51,0,0,1-82.26,56.6,33.25,33.25,0,0,1-96.6,43.4c-3-5.28-1.76-11.86-.22-16.44a43.4,43.4,0,0,1,9.07-15.29C-79.22,3.15-67.59-2.78-52.2-6.48c14.05-3.38,29.16-4.37,42.08-4.9C-5-11.65,3.83-10,6.8-5.67A5.27,5.27,0,0,1,7.77-2.64Zm-25.2,56.27A40.41,40.41,0,0,0-12.15,47,39.42,39.42,0,0,0-6.37,31.61c.19-1.28.34-2.6.48-3.87s.3-2.72.51-4.07c.84-6.08,4.21-10.92,7.46-15.6A53.17,53.17,0,0,0,7,.07a5.49,5.49,0,0,0-.3-5.66C3.75-9.91-5.07-11.52-10.11-11.25c-29.51,1.2-59.33,4.82-77.55,23-6.72,7.12-14.17,22.08-8.82,31.58,5.94,10.56,18.39,17.23,35.05,18.8C-46.22,63.57-29.77,60.39-17.43,53.63Z"/><path class="cls-9" d="M19.48-3.78C19.49,0,15,4.1,11,7.75A45.68,45.68,0,0,0,6,12.89,28.41,28.41,0,0,0,1.31,27.41a56.46,56.46,0,0,1-.95,7.42,46.25,46.25,0,0,1-5.57,14.4,43.75,43.75,0,0,1-4.64,6.46C-28.07,70.3-52.87,66-74.76,62.18l-3.06-.53A97.46,97.46,0,0,1-96.4,56.94c-7.25-2.76-11.82-6-13.59-9.77-1.32-2.77-1-5.78.82-9a70.76,70.76,0,0,0,4.45-10.92c2.64-7.65,5.14-14.87,11.82-18.62C-76.1-1.22-58-11-39.3-15.88a80.94,80.94,0,0,1,28.53-2.61,58.33,58.33,0,0,1,27.32,10c1.86,1.28,2.81,2.71,2.92,4.35C19.48-4,19.48-3.88,19.48-3.78ZM-110.68,43.61a8.05,8.05,0,0,0,.81,3.51C-106.3,54.63-91,59.48-77.8,61.52l3.06.53c21.86,3.8,46.64,8.11,64.8-6.45a44.64,44.64,0,0,0,4.62-6.43A46.42,46.42,0,0,0,.23,34.81a56.58,56.58,0,0,0,1-7.4,28.62,28.62,0,0,1,4.67-14.6A46.22,46.22,0,0,1,11,7.65C14.9,4,19.35-.07,19.36-3.77a3,3,0,0,0,0-.31c-.1-1.6-1-3-2.86-4.26-32.57-22.35-71.79-5-109.32,17.12-6.64,3.73-9.12,10.93-11.75,18.55a71.59,71.59,0,0,1-4.47,11A10.54,10.54,0,0,0-110.68,43.61Z"/><path class="cls-9" d="M26.19-1.72c0,4.29-3.76,8.2-7.73,12.32a67.88,67.88,0,0,0-6,6.84,21,21,0,0,0-4.1,11.07,58.17,58.17,0,0,1-.75,6.35A52.9,52.9,0,0,1,1.62,51.42a51.25,51.25,0,0,1-5.1,7.48h0C-12.7,65.46-23.79,69-37.4,69.66c-12,.6-24.34-1-36.28-2.56-4-.52-7.79-1-11.56-1.43A69.34,69.34,0,0,1-104.43,61c-6.73-2.75-11.82-6.3-14.73-10.28a13.81,13.81,0,0,1-2.61-11.42c2.36-10.47,10.33-21.76,23.69-33.58C-88.29-4-75.41-7.37-61.77-10.92c9.85-2.56,20-5.22,29.17-10.48,5.74-3.28,13.6-5,22.13-4.69a53.82,53.82,0,0,1,23,5.74,29.84,29.84,0,0,1,9.39,7.44A18.28,18.28,0,0,1,26.12-2.74,7,7,0,0,1,26.19-1.72ZM-3.58,58.81A49.66,49.66,0,0,0,1.5,51.35,52.35,52.35,0,0,0,7.44,34.84a58,58,0,0,0,.75-6.34,21.15,21.15,0,0,1,4.13-11.14,69.26,69.26,0,0,1,6-6.85C22.62,6.09,26.65,1.91,26-2.73c-.55-7-5.34-13.19-13.5-17.5-13.65-7.23-33.43-7.69-45-1.06-9.14,5.28-19.34,7.93-29.2,10.5C-75.36-7.25-88.22-3.9-98,5.79c-13.35,11.8-21.3,23.07-23.65,33.51a13.63,13.63,0,0,0,2.58,11.31c2.9,4,8,7.5,14.68,10.24a69,69,0,0,0,19.15,4.69c3.78.42,7.56.91,11.57,1.43C-50.44,70-24.12,73.43-3.58,58.81Z"/><path class="cls-9" d="M38.16-6.5a9.76,9.76,0,0,1-.92,3.91v0c-2.34,2.9-5,5.63-7.65,8.28C22.41,13,15.63,19.84,15.33,30.12a57.68,57.68,0,0,1-1.15,8A59.34,59.34,0,0,1,8.45,53.6c-.4.74-.81,1.47-1.24,2.19a24.39,24.39,0,0,1-8.52,8.49c-23.9,14.24-55.46,10.61-83.3,7.41-3.57-.41-7-.8-10.31-1.15a44.21,44.21,0,0,1-24.21-10.86c-7.44-6.42-12.53-14.72-14.32-23.38-.9-2.13.48-5.16,3.08-6.76,7.5-3.6,11.73-9.68,15.81-15.57a66.34,66.34,0,0,1,7.94-10c9.07-8.54,21.2-11.45,34-14.52,5.51-1.32,11.2-2.68,16.61-4.53,3.67-1.7,5.55-5,7.38-8.22,1.64-2.88,3.19-5.61,5.91-6.64,26.13-10.44,56.2,5.22,79.47,20A4.29,4.29,0,0,1,38.16-6.5Zm-1,3.85c1-2.26,1.53-5.49-.42-7.14-23.25-14.79-53.28-30.43-79.35-20-2.68,1-4.22,3.72-5.85,6.59-1.84,3.22-3.73,6.55-7.44,8.27C-61.36-13.1-67-11.74-72.56-10.42c-12.82,3.07-24.92,6-34,14.49a65.55,65.55,0,0,0-7.92,10c-4.1,5.9-8.33,12-15.86,15.62-2.54,1.55-3.89,4.52-3,6.6,3.61,17.44,20.49,32.43,38.43,34.15,3.36.36,6.73.74,10.31,1.15,27.82,3.2,59.35,6.82,83.22-7.39A24.39,24.39,0,0,0,7.1,55.72c.42-.71.84-1.45,1.23-2.18A59.14,59.14,0,0,0,14.06,38a59,59,0,0,0,1.14-7.92c.3-10.33,7.1-17.22,14.29-24.5C32.1,3,34.79.24,37.13-2.65Z"/><path class="cls-9" d="M44.35-5.28C44.35.47,39.57,5,34.52,9.79,28.78,15.23,22.85,20.86,22.63,29c0,.78-.1,1.56-.18,2.29-.28,2.62-.63,5-1.07,7.14a65.34,65.34,0,0,1-6.11,17.33c-.51,1-1.06,2-1.62,2.95a25.61,25.61,0,0,1-9.47,9.33C-8.57,75.29-24.2,75.75-39.3,76.19c-6.48.19-13.18.38-19.54,1.12-3.51.5-6.57,2-9.53,3.52-3.74,1.87-7.27,3.63-11.18,3a87.2,87.2,0,0,1-29.76-10.19c-10.07-5.59-18.2-12.54-23.5-20.11a37.84,37.84,0,0,1-5.86-12.36,28.63,28.63,0,0,1-.27-13.33c1.49-5.71,7.4-10.24,13.65-15,4.28-3.28,8.71-6.68,12-10.67,2.89-2.31,5.87-4.69,9.26-6,3.89-1.59,8-3,11.88-4.39,15.59-5.48,31.71-11.15,40.18-28.11,2.87-5.4,9.74-7.18,20.41-5.3C-22.64-40-12.62-36.2-4.87-33a154,154,0,0,0,15.39,4.93c7.77,2.2,15.81,4.49,22.11,7.85,7.14,3.81,11,8.51,11.7,14.36C44.35-5.69,44.35-5.48,44.35-5.28ZM-139.48,34c0,6.52,2.27,13.05,6.77,19.48,10.53,15,32.4,27.46,53.18,30.24,3.87.6,7.38-1.16,11.1-3a31.36,31.36,0,0,1,9.57-3.53c6.37-.74,13.07-.93,19.55-1.12,15.09-.44,30.7-.9,43.42-8.12a25.37,25.37,0,0,0,9.43-9.28c.56-.95,1.1-1.94,1.62-2.94a65.76,65.76,0,0,0,6.1-17.29c.43-2.18.78-4.51,1.06-7.13.08-.73.16-1.51.18-2.28.22-8.22,6.18-13.87,11.93-19.33C39.64,4.75,44.56.09,44.2-5.89c-.72-5.8-4.53-10.47-11.63-14.26C26.28-23.5,18.25-25.78,10.48-28a154.25,154.25,0,0,1-15.4-4.93c-7.74-3.16-17.75-7-26.62-8.54-10.61-1.87-17.43-.11-20.27,5.23A43.92,43.92,0,0,1-69.15-17.87c-7,4.22-15.09,7.06-22.91,9.81-3.93,1.38-8,2.8-11.89,4.39-3.36,1.27-6.33,3.64-9.21,5.93-3.33,4-7.76,7.4-12,10.68-6.24,4.78-12.13,9.3-13.6,15A28.17,28.17,0,0,0-139.48,34Z"/><path class="cls-9" d="M50.92-3.37c0,3.39-3.79,7.66-8.08,12.48-5.79,6.51-13,14.61-13.42,23.49,0,.8-.12,1.64-.26,2.64-.28,2.13-.67,4.28-1.15,6.37A72.36,72.36,0,0,1,22.1,58c-.87,1.74-1.82,3.46-2.81,5.08a24.12,24.12,0,0,1-4.81,5.72C9.72,72.89,3.62,75.61-4.16,77.08c-6.94,1.31-14.57,1.53-21.95,1.75-8.51.25-17.31.51-25.2,2.42-3.14.88-5.27,3.48-7.33,6s-4.21,5.14-7.31,5.68c-10.15,3-20.48,1.37-31.59-4.93-9.59-5.45-18.33-13.69-25.62-21-1.2-1.18-2.5-2.42-3.87-3.74-6.15-5.89-13.8-13.22-18.36-20.65-5.34-8.7-5.5-15.89-.49-22,5.66-6.55,13.42-11.63,21.64-17,3.16-2.07,6.43-4.21,9.55-6.43,6.2-3.69,13-5.59,19.65-7.43,8.58-2.38,16.68-4.63,23-10.45,2.87-3.05,3.22-7.45,3.55-11.7.5-6.46,1-12.56,9.91-13.7C-39-48.95-16-46.37,4.49-39c21.59,7.73,37.94,19.76,46,33.86A3.9,3.9,0,0,1,50.92-3.37ZM22,57.91a72.56,72.56,0,0,0,5.89-16.33c.48-2.09.87-4.23,1.15-6.35.14-1,.22-1.84.26-2.64.43-8.92,7.65-17,13.46-23.57,5-5.69,9.42-10.6,7.64-14.13C42.33-19.18,26-31.18,4.45-38.91-16-46.24-39-48.82-58.58-46c-8.83,1.13-9.3,7.18-9.8,13.58-.34,4.28-.68,8.7-3.59,11.78-6.33,5.84-14.44,8.1-23,10.49-6.61,1.83-13.44,3.73-19.62,7.4-3.12,2.23-6.39,4.37-9.55,6.44-8.21,5.38-16,10.45-21.61,17-5,6-4.81,13.17.5,21.82,4.55,7.42,12.2,14.74,18.34,20.63,1.37,1.31,2.67,2.56,3.87,3.74C-106,84-87.31,99.07-66,92.79c3.06-.53,5.09-3,7.24-5.63s4.21-5.14,7.4-6c7.9-1.92,16.71-2.18,25.22-2.43,14.72-.43,29.94-.88,40.52-10A23.9,23.9,0,0,0,19.18,63c1-1.62,1.93-3.33,2.81-5.07Z"/><path class="cls-9" d="M61-8.46C61-4.32,56.12.67,51,6c-5.42,5.58-11.56,11.91-12.91,18.24-.22,1.26-.39,2.42-.55,3.54-.27,1.8-.51,3.51-.94,5.44a75.66,75.66,0,0,1-1.42,9.09,78.74,78.74,0,0,1-6.25,17.89,50.94,50.94,0,0,1-5,8.35c-5,5.6-11.83,9.34-20.74,11.42-7.87,1.85-16.42,2.22-24.68,2.57-4.2.18-8.17.36-12,.71-6.62.58-10.48,5.35-13.88,9.57-2,2.53-4,4.92-6.25,6a43.54,43.54,0,0,1-29.37,3.47c-1.36-.31-2.72-.69-4.09-1.13a43.62,43.62,0,0,0,33.41-2.46c2.24-1.07,4.16-3.45,6.2-6,3.42-4.24,7.3-9,14-9.62,3.88-.35,7.85-.53,12-.71,16.77-.72,34.1-1.47,45.33-14a50.16,50.16,0,0,0,5-8.32,79.11,79.11,0,0,0,6.24-17.86,77.54,77.54,0,0,0,1.42-9.08c.42-1.94.67-3.64.93-5.44.16-1.12.33-2.28.55-3.55,1.36-6.36,7.52-12.71,12.95-18.3S61.46-5,60.78-9.24c-.31-1.9-1.75-3.49-4.39-4.86-8-4-16-8.62-24.5-13.54C-1.52-47-36.06-67-74.07-48.78c-6.9,3.05-6.22,9.57-5.5,16.48a51.21,51.21,0,0,1,.43,6.94c-.17,1.94-1.7,3.34-3.19,4.7-.49.45-1,.91-1.44,1.39h0c-5.18,3.18-10.93,4.88-16.49,6.51s-11.29,3.33-16.46,6.5c-9,6-17.9,10.18-27.38,14.66l-5.71,2.72a10.15,10.15,0,0,0-6.56,6.36c-2.5,7.63,3.94,18.38,6,21.49,11.69,18.19,26.65,38.9,44,51.81-1.05-.78-2.09-1.59-3.14-2.43-17.23-13.92-31.61-34.81-40.93-49.31-2-3.12-8.5-13.91-6-21.6A10.26,10.26,0,0,1-149.88,11l5.71-2.72c9.47-4.47,18.41-8.7,27.36-14.65,5.18-3.18,10.93-4.87,16.49-6.51S-89-16.19-83.86-19.36c.45-.48,1-.95,1.45-1.39,1.46-1.34,3-2.73,3.15-4.62a54.31,54.31,0,0,0-.43-6.91c-.35-3.34-.71-6.79-.11-9.7a9.21,9.21,0,0,1,5.68-6.92,69.73,69.73,0,0,1,28-7.06,83.17,83.17,0,0,1,27,3.68c17.66,5.19,34.63,15,51,24.53,8.48,4.91,16.49,9.55,24.49,13.53,2.68,1.39,4.14,3,4.45,5A4.25,4.25,0,0,1,61-8.46Z"/><path class="cls-9" d="M67.79-11.16c0,6-6.19,13-11.69,19.2a79.34,79.34,0,0,0-7.33,9.07c-.47,1-1,2.07-1.55,3.07-1.39,2.64-2.7,5.13-2.93,7.94,0,.5-.09,1-.14,1.51-.21,2.33-.43,4.74-.74,7.11a84.45,84.45,0,0,1-7.65,25.59h0l-.12.26a36.85,36.85,0,0,1-23.1,19.15c-6.9,2-14.49,2.72-21.83,3.41-8.24.79-16.75,1.6-24.28,4.21-4.44,1.67-5,5.4-5.7,9.36-.49,2.94-1,6-3.19,8.15a24.61,24.61,0,0,1-12.76,6.74,35.89,35.89,0,0,1-14.38-.47c-10.17-2.19-20.46-7.71-27.32-11.68-16.85-9.67-31.48-21.77-42.32-35C-151.65,51.33-159.1,35-161.39,17.86c-.72-4.42,1.35-8.11,3.22-10.42A22.28,22.28,0,0,1-149,.8c3.59-1.16,7.62-2.29,11.89-3.49,8.6-2.41,18.35-5.14,26.61-8.85,9.48-4.25,15.55-9.14,18.54-14.94,2.78-5.4,2.9-11.75.34-18.87v0l0,0A51.26,51.26,0,0,1-62-62.35c10-1.84,21.41-1,34,2.36,22.22,6,44.3,18.73,64.84,31.6,4,2.44,8.64,3.47,13.13,4.47,5.35,1.2,10.41,2.33,13.94,5.69A8.9,8.9,0,0,1,67.75-12,7.32,7.32,0,0,1,67.79-11.16ZM-161.4,16.13a10.94,10.94,0,0,0,.13,1.71c4.29,32,27.77,62.47,64.42,83.51,6.85,4,17.13,9.48,27.28,11.67,11.25,2.42,20.34.32,27-6.25,2.17-2.13,2.67-5.15,3.15-8.07.66-4,1.28-7.76,5.79-9.46C-26.07,86.62-17.55,85.81-9.3,85c7.33-.7,14.92-1.43,21.81-3.41a36.74,36.74,0,0,0,23-19.09l.12-.25h0a84.65,84.65,0,0,0,7.64-25.55c.31-2.37.53-4.78.74-7.11,0-.5.1-1,.14-1.51.23-2.84,1.55-5.34,3-8,.53-1,1.07-2,1.55-3.08A79.58,79.58,0,0,1,56,8C61.73,1.48,68.22-5.86,67.62-12a8.72,8.72,0,0,0-3.81-6.18c-3.52-3.33-8.56-4.46-13.89-5.65-4.5-1-9.15-2-13.17-4.49C16.22-41.14-5.85-53.87-28-59.87c-27-7.29-48.35-2.41-63.4,14.52,2.56,7.13,2.44,13.5-.36,18.92-3,5.83-9.09,10.74-18.59,15C-118.68-7.7-128.43-5-137-2.56c-4.26,1.19-8.29,2.32-11.87,3.49C-155.35,3.35-161.4,9.52-161.4,16.13Z"/><path class="cls-9" d="M73.69-12.58c0,5.26-4.93,11.88-10.11,18.85s-10.72,14.42-12,21.35c-.14,1.3-.27,2.64-.4,3.93-.16,1.75-.34,3.57-.56,5.36a91.17,91.17,0,0,1-8,27.61,54,54,0,0,1-4.94,8.65c-7.33,10-20.12,11.73-32.49,13.38-10.42,1.39-20.25,2.7-25.68,9-6.4,8.24-13.32,16.69-21.43,21.55A29.91,29.91,0,0,1-55,121.44a35.71,35.71,0,0,1-15.93-2.59c-3.25-.68-6.53-1.53-9.73-2.52s-6.48-2.19-9.62-3.51-6.23-2.8-9.19-4.4-5.79-3.32-8.51-5.16C-123.27,91.6-135.88,79.08-145.46,66c-11.28-15.34-18.3-31.33-20.88-47.55a18.09,18.09,0,0,1,3.4-13.88A29,29,0,0,1-151.2-4.51c5.65-2.52,12.74-4,19.59-5.38,7.18-1.47,14.61-3,20.25-5.74,6.31-3.08,9.72-7.43,10.41-13.29a35.29,35.29,0,0,0-.41-9.51c-.89-6.72-1.81-13.68,4.88-18.69,13.28-8.79,29.25-13.33,46.21-13.15A102.4,102.4,0,0,1-3.69-58.12C9.16-51.48,22.28-44.45,35-37.65c11.05,5.91,22.48,12,33.4,17.71,2.9,1.48,4.57,3.32,5.11,5.64A7.56,7.56,0,0,1,73.69-12.58Zm-31.22,77a90.91,90.91,0,0,0,8-27.57c.22-1.78.4-3.6.57-5.36.12-1.29.25-2.62.39-3.93,1.29-7,6.75-14.31,12-21.4,5.74-7.73,11.16-15,9.89-20.47-.54-2.28-2.19-4.09-5.05-5.55C57.4-25.51,46-31.63,34.92-37.54,22.22-44.34,9.1-51.36-3.75-58c-31.2-16.57-66.7-16.19-92.65,1-6.63,5-5.72,11.88-4.84,18.57a35.18,35.18,0,0,1,.42,9.55c-.7,5.91-4.13,10.29-10.48,13.39-5.66,2.76-13.1,4.28-20.29,5.75-6.84,1.4-13.92,2.85-19.55,5.37-8.14,3.59-17,11.73-15.07,22.85,6,37.81,35,66.93,58.29,84.7,2.72,1.83,5.58,3.57,8.5,5.15s6,3.08,9.18,4.39,6.37,2.5,9.6,3.51,6.48,1.84,9.74,2.51c23,8.77,35.87-4.72,50.28-23.27,5.46-6.32,15.32-7.64,25.76-9,12.35-1.65,25.11-3.35,32.41-13.32A54.22,54.22,0,0,0,42.47,64.46Z"/><path class="cls-9" d="M78.3-16c0,6.92-4.79,15.16-9.81,23.79-4.72,8.12-9.61,16.51-10.17,23.78-.18,3-.49,5.93-.94,8.86a97.93,97.93,0,0,1-8,26.3A81.71,81.71,0,0,1,45,75,29.88,29.88,0,0,1,30.63,86.27c-5.67,2.27-12.15,3.45-18.41,4.6-9,1.66-18.35,3.37-26,8.3-3.24,2.9-3.72,6.49-4.22,10.3a35.5,35.5,0,0,1-1,5.17c-1.82,4.94-5.54,8.57-11.07,10.79a39.41,39.41,0,0,1-16.07,2.36c-3,.1-6.16.07-9.31-.09a112.55,112.55,0,0,1-37.18-8.42,108,108,0,0,1-31.77-20.1c-2.23-2-4.39-4.2-6.42-6.41l-.44-.56c-15.94-20.2-32.42-41.09-38.94-67.35-2-8-1-15.23,3.11-21.39,3.6-5.47,9.55-10.11,17.67-13.8a95.41,95.41,0,0,1,23.52-6.79c5.26-1.47,15.06-4.22,14-8.29-3.34-11.17-2.55-20.87,2.34-28.84C-105.9-60.13-100-65.11-92-69A95.51,95.51,0,0,1-67-76.85c19.31-2.71,38.11,0,57.48,8.43C5.59-61.89,21-52,39-37.2c5.11,3.68,11.65,4.72,18,5.73,4,.64,7.79,1.24,10.87,2.5,5.32,2.16,8.54,5.06,9.82,8.84A12.53,12.53,0,0,1,78.3-16ZM-171,17.22a31.73,31.73,0,0,0,1,7.61c6.52,26.23,23,47.11,38.92,67.3l.44.55c2,2.21,4.18,4.37,6.41,6.4a107.77,107.77,0,0,0,31.73,20.08,112.56,112.56,0,0,0,37.14,8.41c3.15.16,6.28.19,9.3.09,6.57.29,22.35-.4,27-13.06a36.31,36.31,0,0,0,.95-5.15c.51-3.83,1-7.44,4.27-10.38,7.69-4.95,17-6.67,26.07-8.32,13-2.39,25.3-4.65,32.7-15.78a82.59,82.59,0,0,0,4.4-8.32,97.7,97.7,0,0,0,8-26.27c.45-2.92.76-5.9.94-8.85.57-7.3,5.46-15.7,10.19-23.83,5-8.62,9.79-16.84,9.79-23.73a12.51,12.51,0,0,0-.64-4.06c-1.27-3.74-4.46-6.61-9.75-8.76a50.77,50.77,0,0,0-10.84-2.49c-6.34-1-12.9-2.05-18-5.76-28-23-62.51-45.71-105.85-39.62-14.68,2.66-34,8.73-42.45,22.54-4.87,7.94-5.66,17.6-2.33,28.74,1.08,4.19-8.8,7-14.11,8.45-11.55,1.88-32.24,7.06-41.11,20.53A24.33,24.33,0,0,0-171,17.22Z"/><path class="cls-9" d="M82.66-16.43c0,.77,0,1.55-.1,2.32C81.73-6.32,77.89.82,74.18,7.72c-4,7.39-8.07,15-8.66,23.61-.17,3.15-.48,6.34-.94,9.46a104.54,104.54,0,0,1-8.33,28.1,52.08,52.08,0,0,1-4.94,8.82c-7.92,10.25-19.64,13-32,16C12.81,95.21,6.13,96.79,0,99.52c-2.53,1.55-5.14,3.16-5.71,6.42v.33A26.4,26.4,0,0,1-13.49,125a30.73,30.73,0,0,1-21.89,8.85c-3.26.38-6.58.63-9.86.75a119.81,119.81,0,0,1-49.67-8.84A114.09,114.09,0,0,1-142,90.37c-1.94-2.49-3.78-5.09-5.49-7.74-2.13-3.65-4.44-7.38-6.68-11-11.49-18.55-23.38-37.73-20.24-60,1.55-8.54,6.23-15.39,14.29-20.93,7.13-4.9,16-8.23,24.55-11.45,4.38-1.65,8.51-3.21,12.42-4.95a7.94,7.94,0,0,0,3.43-4.67,32.6,32.6,0,0,0-2.85-7.79c-2.32-5-4.51-9.75-1.23-14.24a69.4,69.4,0,0,1,24.16-21.8A86.23,86.23,0,0,1-68.18-84.4a95.36,95.36,0,0,1,28.82.58,114.78,114.78,0,0,1,26.24,8c16.82,7.26,32.83,18,48.3,28.46,5.39,3.62,11,7.37,16.49,10.93,3,2.07,6.7,1.25,10.58.38,4.19-.95,8.52-1.92,12.13.94A24.59,24.59,0,0,1,82.66-16.43ZM-5.82,105.93c.58-3.33,3.22-5,5.78-6.53,6.13-2.73,12.81-4.32,19.27-5.85,12.38-2.94,24.08-5.71,32-15.91a51.41,51.41,0,0,0,4.92-8.81,104.5,104.5,0,0,0,8.32-28.06c.46-3.12.78-6.3.94-9.45.59-8.61,4.7-16.26,8.68-23.66,3.7-6.89,7.53-14,8.36-21.78.73-8-2.39-16.05-8.14-20.9-3.55-2.82-7.85-1.85-12-.92-3.91.88-7.6,1.71-10.68-.39-5.54-3.56-11.1-7.31-16.49-10.93C4.25-68-27.67-89.53-68.17-84.27c-23,2.78-44.32,15-55.54,32-3.23,4.43-1.05,9.13,1.25,14.11a32.76,32.76,0,0,1,2.86,7.83v0h0a8,8,0,0,1-3.49,4.76h0c-3.92,1.75-8.05,3.31-12.43,5-17.36,6.52-35.31,13.27-38.76,32.28-3.14,22.22,8.74,41.38,20.22,59.91,2.24,3.61,4.55,7.34,6.68,11,1.7,2.63,3.55,5.23,5.48,7.72a114,114,0,0,0,47.05,35.33,119.68,119.68,0,0,0,49.61,8.83c3.28-.12,6.6-.37,9.86-.75a30.55,30.55,0,0,0,21.8-8.81,26.3,26.3,0,0,0,7.78-18.64C-5.81,106.15-5.82,106-5.82,105.93Z"/></g><path class="cls-10" d="M295.38,104.67c-5.23,0-8.1,2.67-8.1,10.24v10.21h5.81v-4.81h4.66v4.81h5.72V114.91C303.47,107.34,300.6,104.67,295.38,104.67Zm2.37,10.91h-4.66V114.5c0-3,.58-4.61,2.31-4.61s2.35,1.59,2.35,4.61Z"/><path class="cls-10" d="M315.09,104.85a63,63,0,0,0-6.86.35v19.92H314V120c.58,0,1.17,0,1.7,0,5.13,0,7.86-2.75,7.86-7.6C323.57,107,320,104.85,315.09,104.85Zm.15,10.56a7.12,7.12,0,0,1-1.23-.09V109.6a8.3,8.3,0,0,1,1.26-.09c1.44,0,2.26.85,2.26,3S316.76,115.41,315.24,115.41Z"/><path class="cls-10" d="M335.45,104.67c-5.22,0-8.09,2.67-8.09,10.24v10.21h5.81v-4.81h4.66v4.81h5.72V114.91C343.55,107.34,340.68,104.67,335.45,104.67Zm2.38,10.91h-4.66V114.5c0-3,.58-4.61,2.31-4.61s2.35,1.59,2.35,4.61Z"/><polygon class="cls-10" points="358.6 112.18 354.09 112.18 354.09 105.2 348.31 105.2 348.31 125.12 354.09 125.12 354.09 117.49 358.6 117.49 358.6 125.12 364.38 125.12 364.38 105.2 358.6 105.2 358.6 112.18"/><polygon class="cls-10" points="388.74 105.2 382.13 105.2 379.08 116.47 376.12 105.2 369.73 105.2 368.64 125.12 373.8 125.12 374.27 115.53 376.88 125.12 381.25 125.12 383.9 115.53 384.37 125.12 389.82 125.12 388.74 105.2"/><path class="cls-10" d="M357.74,42.91a28,28,0,0,0-2.24-6.32,34.61,34.61,0,0,0-5.91,4.65,37.41,37.41,0,0,1,2.89,5.85A48.66,48.66,0,0,1,357.74,42.91Z"/><path class="cls-10" d="M313.79,86.85a29.77,29.77,0,0,1-14.7-5.56c-3.19,2.24-6.18,4.68-6.18,4.68a53.69,53.69,0,0,0,24.67,6.23,33.55,33.55,0,0,0,10.92-2.57c3.37-1.78,8.29-5.38,8.06-5.69S325.4,88,313.79,86.85Z"/><path class="cls-10" d="M326.59,80c3.52,1.07,9.53,1.92,10,1.25s-2.16-17.16-10.43-27c-8-10-21.94-16.44-21.94-16.44s-2.27,19.32,5.06,29.86A33.12,33.12,0,0,0,326.59,80Z"/><path class="cls-10" d="M338.61,73c.52-.12,2.49-12.73,11.28-23-3.67-10-10.21-18.68-11.28-20.17-1.06,1.49-7.61,10.21-11.27,20.17C336.13,60.31,338.1,73.16,338.61,73Z"/><path class="cls-10" d="M327.51,41.24a34.5,34.5,0,0,0-5.92-4.65,28.22,28.22,0,0,0-2.23,6.32,49.51,49.51,0,0,1,5.27,4.18A36.37,36.37,0,0,1,327.51,41.24Z"/><path class="cls-10" d="M314.56,84.29a42.61,42.61,0,0,0,7.9.7c3.81,0,11.67-1.53,11.56-2s-15.5-.69-23.67-7.75c-3.28-2.84-7.24-8.91-8.87-12.39-7.88,0-12.3,2.76-12.3,2.76S301,81.72,314.56,84.29Z"/><path class="cls-10" d="M366.75,75.26c-8.17,7.06-23.56,7.3-23.67,7.75s7.75,2,11.56,2a42.61,42.61,0,0,0,7.9-.7c13.54-2.57,25.38-18.66,25.38-18.66s-4.42-2.76-12.3-2.76C374,66.35,370,72.42,366.75,75.26Z"/><path class="cls-10" d="M363.31,86.85c-11.61,1.17-22.53-3.22-22.77-2.91s4.69,3.91,8,5.69a33.6,33.6,0,0,0,10.93,2.57A53.69,53.69,0,0,0,384.19,86s-3-2.44-6.18-4.68A29.77,29.77,0,0,1,363.31,86.85Z"/><path class="cls-10" d="M351,54.28c-8.27,9.81-11,26.16-10.43,27s6.45-.18,10-1.25a33.08,33.08,0,0,0,17.34-12.3c7.33-10.54,5.06-29.86,5.06-29.86S359,44.28,351,54.28Z"/></svg>