<svg xmlns="http://www.w3.org/2000/svg" viewBox="0 0 650 442.35"><defs><style>.cls-1{fill:#0076be;}.cls-2{fill:#fff;}.cls-3{fill:none;stroke:#fff;stroke-linecap:round;stroke-miterlimit:10;}</style></defs><g id="ARTWORK"><rect class="cls-1" width="650" height="442.35"/><path class="cls-2" d="M222.29,49.26c-1.13,0-1.64-1-1.64-2.14s.46-2.13,1.59-2.13S224,46,224,47.14,223.42,49.26,222.29,49.26Zm0,.71a2.86,2.86,0,0,0,0-5.69c-1.83,0-2.48,1.59-2.48,2.86A2.57,2.57,0,0,0,222.28,50Zm-5.93-.13h.83V46.2c.07-.17.52-1.11,1.33-1.11a1,1,0,0,1,.48.09l.2-.79a1.3,1.3,0,0,0-.57-.11,1.78,1.78,0,0,0-1.44,1v-.84h-.83Zm-5-3.79v-3h.92c1.33,0,1.83.6,1.83,1.46s-.54,1.53-1.87,1.53Zm-.88,3.79h.88v-3h.88C214,46.8,215,46,215,44.48s-1.13-2.17-2.64-2.17h-1.89ZM208,50a2.11,2.11,0,0,0,1.14-.32l-.3-.62a1.48,1.48,0,0,1-.74.23c-.47,0-.63-.26-.63-.8V45.07h1.37v-.65h-1.37V42.87h-.83v1.55h-.89v.65h.89v3.47A1.26,1.26,0,0,0,208,50Zm-4.36-.13h.84V44.42h-.84ZM204,43.4a.61.61,0,1,0-.61-.61A.61.61,0,0,0,204,43.4Zm-4.38,6.44h.76l2-5.42h-.84L200,48.75h0l-1.55-4.33h-.9Zm-6.41-3.39A1.51,1.51,0,0,1,194.72,45c.94,0,1.29.69,1.31,1.46ZM194.86,50a3.24,3.24,0,0,0,1.87-.55l-.34-.64a2.79,2.79,0,0,1-1.5.48c-1.22,0-1.69-1-1.71-2.16h3.67c0-.13,0-.26,0-.38,0-1.48-.8-2.44-2.14-2.44a2.56,2.56,0,0,0-2.44,2.81C192.3,48.7,193.16,50,194.86,50ZM190,49.84h.83V44.42H190Zm.42-6.44a.61.61,0,0,0,0-1.22.61.61,0,0,0,0,1.22Zm-6.59,6.44h.87V42.31h-.87Zm4.07,0H189l-3.24-4,3-3.55h-1l-3,3.61Zm-12.76,0H176V46a2.19,2.19,0,0,1,1.57-1c.72,0,1,.42,1,1.1v3.71h.82V46a1.5,1.5,0,0,0-1.59-1.69,2.23,2.23,0,0,0-1.76.92V41.7h-.83Zm-2.29.13a2.16,2.16,0,0,0,1.15-.32l-.31-.62a1.43,1.43,0,0,1-.73.23c-.48,0-.64-.26-.64-.8V45.07h1.37v-.65h-1.37V42.87h-.82v1.55h-.89v.65h.89v3.47A1.25,1.25,0,0,0,172.87,50Zm-4.36-.13h.84V44.42h-.84Zm.42-6.44a.61.61,0,1,0-.61-.61A.61.61,0,0,0,168.93,43.4Zm-7.49,6.44h.74l1.36-4.22h0l1.35,4.22h.74l1.63-5.42h-.84l-1.16,4.11h0L164,44.42h-.8l-1.28,4.1h0l-1.15-4.1h-.91Zm-7.32,0H155V46.2c.07-.17.52-1.11,1.33-1.11a1,1,0,0,1,.48.09l.2-.79a1.28,1.28,0,0,0-.56-.11,1.78,1.78,0,0,0-1.45,1v-.84h-.83Zm-2.75,0h.83V44.42h-.83Zm.42-6.44a.61.61,0,1,0-.61-.61A.61.61,0,0,0,151.79,43.4Zm-4.56,5.86a.77.77,0,0,1-.81-.77c0-.91.85-1.23,2-1.23h.24v1.22A1.77,1.77,0,0,1,147.23,49.26Zm-.14.71a2.09,2.09,0,0,0,1.63-.79,4.58,4.58,0,0,0,.08.66h.82a5.13,5.13,0,0,1-.12-1.23V46.08a1.62,1.62,0,0,0-1.86-1.8,2.67,2.67,0,0,0-1.91.75l.44.57a2,2,0,0,1,1.42-.59c.74,0,1.08.33,1.08,1.13v.51h-.24c-1.31,0-2.89.43-2.89,1.87A1.43,1.43,0,0,0,147.09,50Zm-5-.71a1.82,1.82,0,0,1-1.3-.49v-3a1.81,1.81,0,0,1,1.4-.75c1,0,1.49.9,1.49,2.11S143.15,49.26,142.12,49.26ZM140,52.31h.83V49.5a1.94,1.94,0,0,0,1.37.47c1.41,0,2.4-1.15,2.4-2.85s-.88-2.84-2.2-2.84a2,2,0,0,0-1.57.72v-.58H140Zm-6.46-3.05c-1.13,0-1.64-1-1.64-2.14s.45-2.13,1.58-2.13,1.72,1,1.72,2.15S134.66,49.26,133.53,49.26Zm0,.71a2.86,2.86,0,0,0,0-5.69c-1.83,0-2.47,1.59-2.47,2.86A2.57,2.57,0,0,0,133.52,50Zm-4.36,0a2.11,2.11,0,0,0,1.14-.32L130,49a1.48,1.48,0,0,1-.74.23c-.47,0-.63-.26-.63-.8V45.07H130v-.65h-1.37V42.87h-.82v1.55h-.9v.65h.9v3.47A1.25,1.25,0,0,0,129.16,50ZM121,49.23c-1.09,0-1.53-.88-1.53-2.11S120.08,45,121.1,45a1.76,1.76,0,0,1,1.3.5v3A1.75,1.75,0,0,1,121,49.23Zm-.17.74a2,2,0,0,0,1.57-.75,3.82,3.82,0,0,0,.1.62h.82a5.94,5.94,0,0,1-.13-1.11v-7h-.83v3a2,2,0,0,0-1.37-.47c-1.37,0-2.4,1.14-2.4,2.86S119.57,50,120.87,50ZM114,46.45c.15-.85.62-1.46,1.49-1.46s1.29.69,1.31,1.46ZM115.66,50a3.23,3.23,0,0,0,1.86-.55l-.34-.64a2.76,2.76,0,0,1-1.5.48c-1.22,0-1.68-1-1.71-2.16h3.68c0-.13,0-.26,0-.38,0-1.48-.79-2.44-2.14-2.44a2.56,2.56,0,0,0-2.44,2.81C113.09,48.7,114,50,115.66,50Zm-8.08-.13h.82V46A2.12,2.12,0,0,1,110,45c.72,0,1,.42,1,1.1v3.71h.83V46a1.5,1.5,0,0,0-1.6-1.69,2.21,2.21,0,0,0-1.76.92v-.78h-.82Zm-3.9-2.26A1.31,1.31,0,1,1,105,46.27,1.23,1.23,0,0,1,103.68,47.58Zm0,4.28c-1,0-1.39-.43-1.39-1a1.3,1.3,0,0,1,.73-1.14c.33,0,.7.06,1,.08.64,0,1.41,0,1.41.9C105.48,51.42,104.75,51.86,103.68,51.86Zm0,.66c1.41,0,2.67-.68,2.67-1.8,0-1.68-1.64-1.58-2.82-1.65-.43,0-.77-.14-.77-.43s.11-.33.36-.45a2.82,2.82,0,0,0,.6.07,2,2,0,0,0,2.17-2,1.93,1.93,0,0,0-.4-1.2h.84v-.65h-1.76a2.61,2.61,0,0,0-.85-.14,2,2,0,0,0-2.17,2,1.87,1.87,0,0,0,1,1.68,1,1,0,0,0-.55.85.82.82,0,0,0,.48.8,1.63,1.63,0,0,0-.92,1.4C101.48,52.08,102.44,52.52,103.64,52.52Zm-4.53-2.68H100V44.42h-.84Zm.42-6.44a.61.61,0,1,0-.61-.61A.61.61,0,0,0,99.53,43.4ZM95.69,50c1.19,0,1.93-.63,1.93-1.61s-.8-1.3-1.68-1.67c-.6-.25-1-.46-1-1s.33-.75.9-.75A1.94,1.94,0,0,1,97,45.4l.41-.6a2.52,2.52,0,0,0-1.61-.52,1.53,1.53,0,0,0-1.71,1.49c0,.93.64,1.31,1.49,1.67s1.19.56,1.19,1.05-.42.78-1.1.78a2.34,2.34,0,0,1-1.35-.44l-.36.64A3.1,3.1,0,0,0,95.69,50Zm-6.34-3.54A1.51,1.51,0,0,1,90.84,45c.94,0,1.29.69,1.31,1.46ZM91,50a3.23,3.23,0,0,0,1.86-.55l-.34-.64a2.76,2.76,0,0,1-1.5.48c-1.22,0-1.68-1-1.71-2.16H93a2.53,2.53,0,0,0,0-.38c0-1.48-.79-2.44-2.14-2.44a2.56,2.56,0,0,0-2.44,2.81C88.42,48.7,89.28,50,91,50Zm-6.08-.74c-1.08,0-1.52-.88-1.52-2.11S84,45,85,45a1.78,1.78,0,0,1,1.3.5v3A1.75,1.75,0,0,1,84.91,49.23Zm-.17.74a2,2,0,0,0,1.58-.75,3,3,0,0,0,.1.62h.82a5.2,5.2,0,0,1-.13-1.11v-7h-.83v3a2,2,0,0,0-1.38-.47c-1.36,0-2.39,1.14-2.39,2.86S83.45,50,84.74,50Zm-9.38-3.52A1.51,1.51,0,0,1,76.85,45c.94,0,1.29.69,1.31,1.46ZM77,50a3.23,3.23,0,0,0,1.86-.55l-.34-.64a2.76,2.76,0,0,1-1.5.48c-1.22,0-1.68-1-1.71-2.16H79a2.53,2.53,0,0,0,0-.38c0-1.48-.79-2.44-2.14-2.44a2.56,2.56,0,0,0-2.44,2.81C74.43,48.7,75.29,50,77,50Zm-5.93-.13h.82V46.2c.07-.17.52-1.11,1.33-1.11a1,1,0,0,1,.48.09l.2-.79a1.28,1.28,0,0,0-.56-.11,1.8,1.8,0,0,0-1.45,1v-.84h-.82ZM67,49.26a.76.76,0,0,1-.8-.77c0-.91.85-1.23,2-1.23h.24v1.22A1.78,1.78,0,0,1,67,49.26Zm-.13.71a2.09,2.09,0,0,0,1.62-.79,6.62,6.62,0,0,0,.08.66h.83a5,5,0,0,1-.13-1.23V46.08a1.61,1.61,0,0,0-1.85-1.8A2.66,2.66,0,0,0,65.5,45l.44.57A2,2,0,0,1,67.35,45c.75,0,1.09.33,1.09,1.13v.51H68.2c-1.31,0-2.89.43-2.89,1.87A1.42,1.42,0,0,0,66.86,50Zm-7,0c1.19,0,1.93-.63,1.93-1.61s-.8-1.3-1.68-1.67c-.6-.25-1-.46-1-1s.33-.75.9-.75a1.94,1.94,0,0,1,1.21.41l.41-.6a2.51,2.51,0,0,0-1.6-.52,1.53,1.53,0,0,0-1.72,1.49c0,.93.64,1.31,1.49,1.67s1.2.56,1.2,1.05-.43.78-1.11.78a2.31,2.31,0,0,1-1.34-.44l-.37.64A3.1,3.1,0,0,0,59.84,50Zm-7.24-.15h.82V46A2.13,2.13,0,0,1,55,45c.72,0,1,.42,1,1.1v3.71h.83V46a1.5,1.5,0,0,0-1.6-1.69,2.21,2.21,0,0,0-1.76.92v-.78H52.6Zm-3.93-.58c-1.13,0-1.64-1-1.64-2.14S47.49,45,48.62,45s1.71,1,1.71,2.15S49.8,49.26,48.67,49.26Zm0,.71a2.86,2.86,0,0,0,0-5.69c-1.83,0-2.48,1.59-2.48,2.86A2.57,2.57,0,0,0,48.66,50Zm-5,0a2.59,2.59,0,0,0,1.7-.54l-.34-.62a2.23,2.23,0,0,1-1.32.45c-1.13,0-1.63-1-1.63-2.16S42.6,45,43.72,45a1.94,1.94,0,0,1,1.27.45l.4-.62a2.58,2.58,0,0,0-1.66-.54,2.54,2.54,0,0,0-2.5,2.85A2.56,2.56,0,0,0,43.7,50Zm-5-.13h.89V42.31h-.89Z"/><path class="cls-2" d="M160.29,137.05H143.63v-15h1.57c0,.68,0,1.39,0,2.1s.15,1.12.86,1.12.84-.52.84-1.11,0-1.37,0-2.12H157c0,.71,0,1.41,0,2.12s.12,1.12.84,1.11.85-.54.86-1.12,0-1.37,0-2.11h1.55ZM149,114.58a5,5,0,0,1,5.58-.32c1.92,1.13,2.75,3.12,2.43,6H147C146.7,118,147.07,116,149,114.58Zm13.13,13.1c0-1.88,0-3.77,0-5.66,0-1.66-.06-1.73-1.77-1.73h-1.55c0-2.15-.12-4.14-1.47-5.82a6.69,6.69,0,0,0-5.33-2.6,6.5,6.5,0,0,0-4.33,1.59c-2.1,1.77-2.56,4.15-2.42,6.83h-1.88c-1.31,0-1.47.15-1.47,1.46v15.58c0,1.27.21,1.48,1.48,1.48h17.28c1.26,0,1.46-.21,1.46-1.5C162.09,134.1,162.08,130.89,162.08,127.68Z"/><path class="cls-2" d="M395.11,303.61a2.44,2.44,0,0,1,1.4.4l.51-.8a3.23,3.23,0,0,0-1.88-.51,3.35,3.35,0,1,0,2,6l-.48-.77a2.29,2.29,0,0,1-1.51.52c-1.41,0-2.1-1.16-2.1-2.47A2.14,2.14,0,0,1,395.11,303.61Z"/><polygon class="cls-2" points="399.19 302.82 399.19 309.27 402.75 309.27 402.75 308.38 400.29 308.38 400.29 302.82 399.19 302.82"/><path class="cls-2" d="M405.32,306a2.17,2.17,0,0,1,2.12-2.43c1.41,0,2.09,1.15,2.09,2.46a2.13,2.13,0,1,1-4.21,0Zm5.36,0a3.26,3.26,0,1,0-3.24,3.36A3.16,3.16,0,0,0,410.68,306Z"/><path class="cls-2" d="M414.23,308.49a2.17,2.17,0,0,1-1.43-.52l-.49.77a2.88,2.88,0,0,0,1.92.64c1.35,0,2.22-.73,2.22-1.84s-.89-1.65-1.74-2.05c-.66-.3-1.17-.52-1.17-1.08s.39-.82,1-.82a2.2,2.2,0,0,1,1.28.42l.48-.78a2.89,2.89,0,0,0-1.8-.53,1.8,1.8,0,0,0-2,1.73c0,1,.65,1.5,1.44,1.89s1.46.6,1.46,1.27C415.38,308.08,414.94,308.49,414.23,308.49Z"/><polygon class="cls-2" points="422.2 303.73 422.2 302.82 418.66 302.82 418.66 309.27 422.26 309.27 422.26 308.36 419.75 308.36 419.75 306.32 421.91 306.32 421.91 305.45 419.75 305.45 419.75 303.73 422.2 303.73"/><path class="cls-2" d="M426.39,308.39h-.7V303.7h.65c1.73,0,2.53.71,2.53,2.29A2.17,2.17,0,0,1,426.39,308.39ZM430,306c0-1.86-1.13-3.14-3.67-3.14H424.6v6.45h1.7C428.87,309.27,430,307.82,430,306Z"/><path class="cls-2" d="M405,295.36l6-10.08a2,2,0,0,0,1.05,0l6.05,10.08Zm27.06,0H419.22l-6.34-10.57a1.88,1.88,0,1,0-2.67,0l-6.34,10.57H391.05a6,6,0,0,0-6,6v10.21a6,6,0,0,0,6,6h4a.48.48,0,0,0,0-1h-4a5,5,0,0,1-5-5V301.34a5,5,0,0,1,5-5h41a5,5,0,0,1,5,5v10.21a5,5,0,0,1-5,5H398.31a.48.48,0,0,0,0,1H432a6,6,0,0,0,6-6V301.34A6,6,0,0,0,432,295.36Z"/><path class="cls-2" d="M433.58,299.82a2.26,2.26,0,0,1,.6,1.68.48.48,0,0,0,.95,0,3.17,3.17,0,0,0-.89-2.36,3.69,3.69,0,0,0-2.42-.94.47.47,0,0,0-.46.48.48.48,0,0,0,.47.47A2.74,2.74,0,0,1,433.58,299.82Z"/><path class="cls-2" d="M241.17,137.07a11.9,11.9,0,0,1-7.9-1.58l-.24-.15,2.62-3.55.21-.29h1.91c.34,0,.38,0,.39-.36,0-.67.07-1.34.1-2l0-.46,0-.52.2-.27,1.34-1.81a.54.54,0,0,0,.26,0h7.23c.16,0,.25,0,.3-.07a.48.48,0,0,0,.05-.31,1.57,1.57,0,0,0-1.65-1.54h-4.81l5.83-7.91.21.18a11.86,11.86,0,0,1-6.1,20.59Zm-9.53-16.34v-.82h7.11v.82Zm6.58,2.85v.06c0,.64-.06,1.12-.1,1.55a3,3,0,0,1,0,.31,2.46,2.46,0,0,1,0,.26l-1.21,1.65h-4.43v0c0-.78-.08-1.32-.12-1.84s-.08-1.07-.12-1.88v-.06Zm-6.7,10.62a11.85,11.85,0,0,1,6.09-20.58,12,12,0,0,1,1.79-.14,11.84,11.84,0,0,1,6.12,1.72l.24.14L238.68,125l-.2.27c0-.19,0-.37,0-.56,0-.68.08-1.41.12-2.26,0-.28,0-.57.05-.84v0c0-.12,0-.24,0-.35v0h0c.2,0,.29-.06.33-.11a.75.75,0,0,0,0-.37V120c0-.24,0-.36-.06-.42s-.18-.06-.42-.08h0l0,0h0l0,0V119c0-.52-.24-.73-.75-.74H237a.11.11,0,0,0-.11.12v.13a.11.11,0,0,0,.11.12h.34c.28,0,.69,0,.76.09s.09.21.08.51a.86.86,0,0,1,0,.15h0v.1h-5.93v0h0v0h0c0-.38-.05-.57,0-.67s.28-.11.65-.11h3.49a.11.11,0,0,0,.11-.12v-.13a.12.12,0,0,0-.11-.12h-3.86a.64.64,0,0,0-.71.69v.53h-.2c-.34,0-.35,0-.36.38v.78c0,.2,0,.3,0,.35s.13.06.33.09h0v.12c.1,1.82.19,3.39.28,4.91h0c.09,1.53.19,3.12.28,5,0,.34.05.37.38.37h1.21l-.21.29-1.91,2.6Zm21.19-10.88a13.45,13.45,0,0,0-13.3-11.45,12.75,12.75,0,0,0-2,.16,13.47,13.47,0,0,0,2,26.78,14,14,0,0,0,2-.15,13.47,13.47,0,0,0,11.29-15.34Z"/><path class="cls-2" d="M247.69,130.48c0-.2,0-.32-.07-.37s-.17-.07-.36-.07h-7.12c-.22,0-.29.07-.29.29s0,.62,0,.86.05.31.32.31h7.23c.23,0,.28-.05.29-.27v-.75Z"/><path class="cls-2" d="M246.88,129h-6.24a.45.45,0,0,1-.34-.18.3.3,0,0,1,0-.3.38.38,0,0,1,.31-.17h6.3a.4.4,0,0,1,.32.1.32.32,0,0,1,.07.23A.34.34,0,0,1,246.88,129Zm.06-1.07h-6.3a.7.7,0,0,0-.79.73.72.72,0,0,0,.19.53.83.83,0,0,0,.59.21h6.26a1.12,1.12,0,0,0,.32,0,.71.71,0,0,0,.47-.83A.69.69,0,0,0,246.94,127.92Z"/><path class="cls-2" d="M240.25,127.2a.91.91,0,0,0,.64.33.89.89,0,0,0,.62-.33c.11-.11.2-.19.31-.19a.45.45,0,0,1,.31.19.76.76,0,0,0,1.25,0c.11-.11.2-.19.31-.19s.2.08.31.2a.82.82,0,0,0,.61.32.85.85,0,0,0,.61-.3c.12-.13.22-.22.33-.22s.21.09.33.23h0a.75.75,0,0,0,.56.25.8.8,0,0,0,.4-.11,1.4,1.4,0,0,0,.22-.14l.11-.08a.9.9,0,0,1,.2-.14c.26-.09.27-.19.24-.27a.2.2,0,0,0-.2-.15.42.42,0,0,0-.15,0,2,2,0,0,0-.41.31l-.06,0a.4.4,0,0,1-.26.13.38.38,0,0,1-.26-.13l-.05-.07-.07-.07a.79.79,0,0,0-.55-.24.74.74,0,0,0-.56.26c-.16.17-.26.26-.37.26s-.21-.08-.36-.25a.75.75,0,0,0-1.15,0c-.16.17-.26.25-.36.25s-.21-.08-.36-.25a.82.82,0,0,0-.6-.27.79.79,0,0,0-.59.28c-.14.15-.24.24-.36.24s-.22-.09-.35-.24a.77.77,0,0,0-.54-.29h0a.18.18,0,0,0-.2.17c0,.11,0,.18.16.24A.8.8,0,0,1,240.25,127.2Z"/><path class="cls-2" d="M330.31,187.09v-4a2,2,0,1,1,0,4Zm-.92-6.29a1.18,1.18,0,0,1-1.27-1.08,1.77,1.77,0,0,1,0-.23,1.92,1.92,0,0,1-1.36-1.7,1.7,1.7,0,0,1,0-.22,4.28,4.28,0,0,0-4.44,1.05,2,2,0,0,1-1.46-.47,1.57,1.57,0,0,1-1.31.9h-.14a1.21,1.21,0,0,1-1.06-.57.37.37,0,0,0-.49-.16.37.37,0,0,0-.17.49,1.68,1.68,0,0,0,.71.67,2.59,2.59,0,0,1-4.71.43,1.77,1.77,0,1,1-2.53-2.23,1.63,1.63,0,0,1-.63-1.16,1.65,1.65,0,0,1,1.26-1.73,2.62,2.62,0,0,1-.12-.57,2.29,2.29,0,0,1,2.1-2.46,2.43,2.43,0,0,1,1,.14,3,3,0,0,1,5.26-1.65,3,3,0,0,1,4.53.11,2.58,2.58,0,0,1,1.2-.42,2.52,2.52,0,0,1,2.7,2.31,2.51,2.51,0,0,1,1.92,4.34,2,2,0,0,1,.29.89,1.94,1.94,0,0,1-.45,1.4,1.14,1.14,0,0,1,.26.65A1.18,1.18,0,0,1,329.39,180.8Zm0,2.18c-.53,1.45-1.11,2.88-1.67,4.32-.05.13-.09.22-.27.22h-13a.36.36,0,0,1-.26-.19q-.85-2.17-1.68-4.37a6,6,0,0,1-.1-1.23,2.53,2.53,0,0,0,1.3-.58,3.4,3.4,0,0,0,2.24.86h.27a3.37,3.37,0,0,0,2.89-2.2,1.67,1.67,0,0,0,.32,0h.19a2.38,2.38,0,0,0,1.45-.66,2.74,2.74,0,0,0,1.1.23h.22a2.75,2.75,0,0,0,1.7-.76,2.68,2.68,0,0,0,1.25.3h.22a2.64,2.64,0,0,0,.69-.14A2.68,2.68,0,0,0,327.4,180a1.94,1.94,0,0,0,1.89,1.56h.19A5.94,5.94,0,0,1,329.35,183Zm-10.53,7.76h8.63v1.61H314.4v-1.6h2.79a.4.4,0,0,0,.4-.39v0a.4.4,0,0,0-.4-.39h-2.8v-1.6h13.06V190h-8.63a.39.39,0,0,0-.39.39A.4.4,0,0,0,318.82,190.74Zm8.47,3.12c-.88.92-.87.92-2.12.92h-9.28a.88.88,0,0,1-.52-.18c-.28-.22-.52-.49-.79-.72a.62.62,0,0,1-.17-.69h13A.64.64,0,0,1,327.29,193.86ZM317,195.58h7.79C323.55,196.61,318.54,196.62,317,195.58Zm-3.44-6.4c0,1,0,2,0,3v.28a5.84,5.84,0,0,1-1.11-2.93c-.11-1.47-.09-3-.13-4.44l.08,0,.1.22c.22.55.4,1.11.64,1.64A4.77,4.77,0,0,1,313.58,189.18Zm-2-2.1a2,2,0,0,1-2-1.9,2,2,0,0,1,2-2.06Zm21-3.63a2.83,2.83,0,0,0-2.29-1.18c0-.69,0-.44,0-1a2,2,0,0,0,.46-.4,1.9,1.9,0,0,0,.46-1.41,2,2,0,0,0-.13-.55,2.69,2.69,0,0,0,.32-1.5,2.75,2.75,0,0,0-.15-.69,3.27,3.27,0,0,0-2.19-5.21,3.29,3.29,0,0,0-3.13-2.34h-.26a3.34,3.34,0,0,0-1,.24,3.75,3.75,0,0,0-2.46-.92h-.3a3.71,3.71,0,0,0-1.91.71,3.75,3.75,0,0,0-2.29-.78h-.29a3.76,3.76,0,0,0-3.27,2.55h-.46a3.05,3.05,0,0,0-2.79,3.28v.05a2.39,2.39,0,0,0-1.14,2.25,2.53,2.53,0,0,0,.32,1,2.48,2.48,0,0,0-.55,1.79,2.55,2.55,0,0,0,2,2.28v.55c-2,.43-2.86,1.38-2.82,3a2.86,2.86,0,0,0,2.82,2.73,8.77,8.77,0,0,0,2.66,6.7,10.76,10.76,0,0,0,7.74,2.52,8.81,8.81,0,0,0,8.08-6.78.37.37,0,0,0-.3-.45h0a.39.39,0,0,0-.45.29,7.85,7.85,0,0,1-1,2.26.87.87,0,0,1,0-.14v-4.2a1.05,1.05,0,0,1,.08-.34c.32-.84.65-1.69,1-2.53a2.14,2.14,0,0,1,.1-.22l0,0v3.67a.4.4,0,1,0,.8,0V188a2.88,2.88,0,0,0,2.84-2.64A2.83,2.83,0,0,0,332.58,183.45Z"/><path class="cls-2" d="M327.42,173.53a1.37,1.37,0,0,0-.46-.72,1,1,0,0,0-.8-.18.35.35,0,0,0-.29.42.36.36,0,0,0,.42.3.28.28,0,0,1,.23,0,.89.89,0,0,1,.24.53l0,.34h.34a1.34,1.34,0,0,1,1,.34,1.21,1.21,0,0,1,.3.82.37.37,0,0,0,.34.39h0a.36.36,0,0,0,.36-.34,1.8,1.8,0,0,0-1.77-1.93Z"/><path class="cls-2" d="M511.76,185.46l-.58-.2a.61.61,0,0,0-.78.38h0a.62.62,0,0,0,.34.76l.56.25a.61.61,0,0,0,.83-.36.14.14,0,0,0,0-.06A.61.61,0,0,0,511.76,185.46Z"/><path class="cls-2" d="M493.87,178.82a.56.56,0,1,1-1.12,0,.56.56,0,0,1,1.12,0Zm12.84-3a1.22,1.22,0,0,0-1.19-1h-3.7v-.77h-4.95v.77h-3.7A1.22,1.22,0,0,0,492,176v5.57a1.22,1.22,0,0,0,1.22,1.22H496l-6.85,4.49-.12-.19a11.6,11.6,0,0,1,19.28-12.65l.14.18Zm-.82,3.87a.29.29,0,1,1-.57,0v-.75l.57-.37v1.12ZM505.6,181a.28.28,0,1,1,.28-.28A.27.27,0,0,1,505.6,181Zm-4.9.94,1.88-1.23a.94.94,0,0,1,.18-.12l1.73-1.13v2.48Zm3.79-6.19v1.5l-7.16,4.69h-2.82v-6.19Zm-5.13-7.28h0a13.47,13.47,0,1,0,0,26.94h0A13.54,13.54,0,0,0,511,188.73a.62.62,0,0,0-.28-.88l-.57-.25a.64.64,0,0,0-.78.25,11.87,11.87,0,0,1-3.5,3.71,11.69,11.69,0,0,1-15.69-2.47l-.13-.18,2.08-1.37,2.09-1.37h0l4.18-2.74v.65h.47V187h-.54v3.39a.84.84,0,0,0,.74.77,1.33,1.33,0,0,0,.28,0,.91.91,0,0,0,1-.82c0-.89,0-1.79,0-2.67V187h-.54v-2.88h.48v-1.25h5.22a1.22,1.22,0,0,0,1.22-1.22V178l0,0,1.14-.74,1.05-.7.22-.13.11-.07.19-.12.11.2a11.41,11.41,0,0,1,1.36,6.87.61.61,0,0,0,.41.66l.59.2a.61.61,0,0,0,.81-.51,13,13,0,0,0,.1-1.66A13.51,13.51,0,0,0,499.36,168.45Z"/><path class="cls-2" d="M496.71,178a.16.16,0,0,0,.16-.16v-.55h.69a.16.16,0,0,0,.16-.16.16.16,0,0,0-.16-.17h-1v.88A.16.16,0,0,0,496.71,178Z"/><path class="cls-2" d="M497.72,180.15a.16.16,0,0,0-.17-.17h-.68v-.55a.16.16,0,0,0-.17-.16.16.16,0,0,0-.16.16v.88h1A.16.16,0,0,0,497.72,180.15Z"/><path class="cls-2" d="M501.44,177.31h.69v.55a.16.16,0,0,0,.16.16.16.16,0,0,0,.17-.16V177h-1a.16.16,0,0,0-.17.17A.16.16,0,0,0,501.44,177.31Z"/><path class="cls-2" d="M507.27,136.76a3.25,3.25,0,0,1-2.38,1h-11.3a3.27,3.27,0,0,1-3.27-3.46l.26-4.47,0,0a3.43,3.43,0,0,0,2.52,1.09h.26v1.56h-.11a.35.35,0,0,0-.35.35v.69a.35.35,0,0,0,.35.35h.11V135a.67.67,0,0,0,.2.48l.56.52a.64.64,0,0,0,.88,0l.58-.53a.64.64,0,0,0,.21-.48v-1.06h.11a.35.35,0,0,0,.35-.35v-.69a.35.35,0,0,0-.35-.35h-.11V131h6.81v1.56h-.1a.35.35,0,0,0-.35.35v.69a.35.35,0,0,0,.35.35h.1V135a.68.68,0,0,0,.21.48l.58.53a.66.66,0,0,0,.44.17.6.6,0,0,0,.44-.18l.57-.52a.67.67,0,0,0,.2-.48v-1.06h.1a.36.36,0,0,0,.36-.35v-.69a.36.36,0,0,0-.36-.35h-.1V131h.26a3.4,3.4,0,0,0,2.51-1.09l0,0,.27,4.47A3.25,3.25,0,0,1,507.27,136.76Zm-12.33-2.83v1l-.21.23a.16.16,0,0,1-.24,0l-.2-.22v-1Zm-.65-1.39v-1.2h.65v1.2Zm9.9,1.39v1l-.2.22a.16.16,0,0,1-.24,0l-.21-.23v-1Zm-.65-1.39v-1.2h.65v1.2ZM490.8,126.2a.63.63,0,0,1,.63-.53h15.62a.63.63,0,0,1,.63.53l.08,1.38a2.4,2.4,0,0,1-2.42,2.37h-12.2a2.4,2.4,0,0,1-2.42-2.37Zm.25-4.26a6.75,6.75,0,0,1,4.64-6,9.38,9.38,0,0,1,1.21-.28l.41,0,.62,0h2.62l.61,0,.41,0a8.61,8.61,0,0,1,1.21.28,6.76,6.76,0,0,1,4.65,6l.17,2.79a1.76,1.76,0,0,0-.55-.09H491.43a1.52,1.52,0,0,0-.55.1Zm6.76-9h2.85a1.9,1.9,0,0,1,1.9,1.86,8.33,8.33,0,0,0-.84-.17l-.48,0-.59,0h-2.82l-.59,0-.48,0a8.52,8.52,0,0,0-.85.17A1.91,1.91,0,0,1,497.81,112.9Zm12.76,16.72h-1.79V129h1.75l-.07-1a1.86,1.86,0,0,0-1.73-1.58v-.24s0-.07,0-.12l-.25-4.21a7.86,7.86,0,0,0-4.86-6.79v-.29a2.94,2.94,0,0,0-2.93-2.93h-2.85a2.94,2.94,0,0,0-2.94,2.93v.29a7.86,7.86,0,0,0-4.86,6.79l-.25,4.21s0,.09,0,.12v.24A1.85,1.85,0,0,0,488,128l-.07,1h1.75v.6h-1.79l-.27,4a1.52,1.52,0,0,0,.42,1.14,2.2,2.2,0,0,0,1.35.64,4.74,4.74,0,0,0,1,2.09,4.26,4.26,0,0,0,3.13,1.35h11.3a4.22,4.22,0,0,0,3.13-1.35,4.74,4.74,0,0,0,1.05-2.09,2.18,2.18,0,0,0,1.34-.64,1.49,1.49,0,0,0,.43-1.14Z"/><path class="cls-2" d="M235.32,296.86h.18a.85.85,0,0,0,.73-1.05l0-.24a2.78,2.78,0,0,1,1.78-3,2.69,2.69,0,0,1,1-.18,2.79,2.79,0,0,1,2.35,1.28,2.71,2.71,0,0,1-.38,3.45,5.41,5.41,0,0,1-1.28.8c-.67.32-1.37.63-2,.93l-1.34.61a1,1,0,0,0-.56.55.85.85,0,0,0,.05.66.84.84,0,0,0,.79.52,1.29,1.29,0,0,0,.45-.09l.1,0,1.14-.52c.86-.38,1.74-.77,2.6-1.18a4.46,4.46,0,0,0,2.69-4,4.65,4.65,0,0,0-2.66-4.4,4.78,4.78,0,0,0-1.91-.41,4.53,4.53,0,0,0-3.12,1.23,4.44,4.44,0,0,0-1.35,4.26A.84.84,0,0,0,235.32,296.86Z"/><path class="cls-2" d="M240.43,300.32a1,1,0,0,0-.24,0,1.42,1.42,0,0,0-.36.14l-3.47,1.59-.06,0a.87.87,0,0,0-.57,1.14c.42.88,1.64.32,1.64.32l3.44-1.57a.89.89,0,0,0-.38-1.67Z"/><path class="cls-2" d="M257.15,311.52l-15.88-7.18v0l0-.27a1.44,1.44,0,0,0-.18-.71.66.66,0,0,0-.58-.33,1.44,1.44,0,0,0-.63.18l-1.71.77-1.81.83a1.1,1.1,0,0,0-.61.59.92.92,0,0,0,.81,1.17,1.41,1.41,0,0,0,.53-.13l.77-.35,1.25-.56a.72.72,0,0,1,.22,0,.43.43,0,0,1,.17,0l17.07,7.71a1,1,0,0,1,.63.85,1.38,1.38,0,0,1-1.46,1.68H222.86a1.79,1.79,0,0,1-1-.33,1.26,1.26,0,0,1-.46-1.16,1.32,1.32,0,0,1,.82-1.08c3-1.36,6.12-2.77,9.09-4.13l3.12-1.43c.89-.41.75-1,.65-1.24a.83.83,0,0,0-.79-.53,1.39,1.39,0,0,0-.59.15l-1.08.49-11.27,5.14a2.82,2.82,0,0,0-1.75,2.65,3,3,0,0,0,1.45,2.78,3.65,3.65,0,0,0,2.11.5h0l32.65,0a3.06,3.06,0,0,0,3-2.45A3,3,0,0,0,257.15,311.52Z"/><path class="cls-2" d="M166.25,183.43l-.16,0a.4.4,0,0,0-.43.33,13.82,13.82,0,1,1-16.45-15.34,13.28,13.28,0,0,1,9.32,1.4,13.66,13.66,0,0,1,7.12,10.3.4.4,0,0,0,.43.33l.17,0a.39.39,0,0,0,.35-.44,14.77,14.77,0,1,0,0,3.89A.39.39,0,0,0,166.25,183.43Z"/><path class="cls-2" d="M151.93,192.74A10.83,10.83,0,1,1,162.8,182,10.85,10.85,0,0,1,151.93,192.74Zm-.05-22.63a11.81,11.81,0,1,0,11.91,11.8A11.81,11.81,0,0,0,151.88,170.11Z"/><rect class="cls-2" x="165.79" y="181.43" width="0.95" height="0.95" rx="0.39"/><path class="cls-2" d="M158.51,187.76l-4.93-4.93-.29-.3a.3.3,0,0,0,0-.1l.41,0h4.32a2.36,2.36,0,0,0,.38,0,.48.48,0,0,0,0-.95,2.55,2.55,0,0,0-.39,0h-4.39a.47.47,0,0,1-.47-.26,1.39,1.39,0,0,0-1.61-.66.43.43,0,0,1-.49-.13c-.7-.72-1.41-1.42-2.13-2.12a.77.77,0,0,0-.44-.25.69.69,0,0,0-.45.27c-.15.21-.05.42.13.6.74.74,1.49,1.48,2.22,2.23a.49.49,0,0,1,.11.38,1.46,1.46,0,0,0,1.83,1.84.4.4,0,0,1,.45.15q2.49,2.49,5,5a1.42,1.42,0,0,0,.29.26.43.43,0,0,0,.63-.07.48.48,0,0,0,0-.65A1.52,1.52,0,0,0,158.51,187.76Z"/><path class="cls-2" d="M143.66,181.45a9,9,0,0,0-1.16,0,.42.42,0,0,0-.39.46.43.43,0,0,0,.4.49,5.54,5.54,0,0,0,.59,0c.17,0,.37,0,.57,0a.43.43,0,0,0,.39-.47A.42.42,0,0,0,143.66,181.45Z"/><path class="cls-2" d="M160.26,182.38a5.09,5.09,0,0,0,.55,0,6.08,6.08,0,0,0,.61,0,.44.44,0,0,0,.39-.47.41.41,0,0,0-.37-.47,8,8,0,0,0-1.2,0,.42.42,0,0,0-.38.47A.43.43,0,0,0,160.26,182.38Z"/><path class="cls-2" d="M158.8,174.88a.57.57,0,0,0-.51.05,5.51,5.51,0,0,0-.78.75.45.45,0,0,0,0,.64.43.43,0,0,0,.63.07,9.17,9.17,0,0,0,.83-.82,1.15,1.15,0,0,0,.13-.34C159,175.11,158.94,174.92,158.8,174.88Z"/><path class="cls-2" d="M146.25,187.42a.67.67,0,0,0-.54.06,5.18,5.18,0,0,0-.75.73.46.46,0,0,0,0,.67.45.45,0,0,0,.66,0,10.49,10.49,0,0,0,.75-.74,1.75,1.75,0,0,0,.17-.36C146.46,187.67,146.38,187.47,146.25,187.42Z"/><path class="cls-2" d="M145.77,176.4a.42.42,0,0,0,.6-.07.45.45,0,0,0,0-.64,6.62,6.62,0,0,0-.81-.78.61.61,0,0,0-.48,0c-.14,0-.23.23-.32.34a1,1,0,0,0,.1.32A10.2,10.2,0,0,0,145.77,176.4Z"/><path class="cls-2" d="M151.47,173.57a.45.45,0,0,0,.48.45.43.43,0,0,0,.49-.44,6.25,6.25,0,0,0,0-1.06.49.49,0,0,0-1,0,4.68,4.68,0,0,0,0,.53h0A4.69,4.69,0,0,0,151.47,173.57Z"/><path class="cls-2" d="M152.45,190.28a.48.48,0,0,0-.51-.48.46.46,0,0,0-.47.47,8.68,8.68,0,0,0,0,1,.44.44,0,0,0,.48.45.47.47,0,0,0,.5-.45c0-.17,0-.35,0-.52S152.46,190.44,152.45,190.28Z"/><path class="cls-2" d="M248.37,185.88v-5.21a2.59,2.59,0,0,1,2.2,2.42A2.63,2.63,0,0,1,248.37,185.88Zm1.77,2.74c0,.06-.17,1.19-.36,2.16h0c-.08.36-.16.71-.25,1.06-.2.89-.4,1.76-.6,2.63h-5.3l-.25,0c.05,0,.06,0,.06-.05a9,9,0,0,0,4.88-7.39c0-.08.15-.19.24-.22a3.75,3.75,0,0,0,1.59-.74l.31-.24C250.35,186.75,250.24,187.71,250.14,188.62Zm-15.57,4.08a1,1,0,0,1-.56-.22c-.26-.2-.47-.46-.72-.69a.81.81,0,0,1-.22-.87h12.52a.82.82,0,0,1-.17.83c-.86.95-.85,1-2.14,1Zm1.19.91h7.13C241.66,194.75,237.18,194.76,235.76,193.61Zm-5.86.88c-.07,0-.16-.13-.18-.22-.35-1.59-.73-3.18-1-4.78-.22-1.19-.33-2.4-.5-3.69a3.07,3.07,0,0,0,.35.27,4.33,4.33,0,0,0,1.19.61c.55.1.62.38.69.84a8.81,8.81,0,0,0,4.66,6.81l.13.08s0,0,.07.09Zm.42-13.83v5.22a2.64,2.64,0,0,1,0-5.22Zm.91,2.45a1.11,1.11,0,0,1,0-.19h.07l.79,2.2a.62.62,0,0,1,0,.19v4.48c0,.05,0,.1,0,.15l-.11,0c-.18-.56-.41-1.11-.54-1.69a10.72,10.72,0,0,1-.22-1.88C231.2,185.3,231.23,184.2,231.23,183.11Zm4.48,4.21h-2.64v-1.77H245.6v1.75h-8a.45.45,0,0,0,0,.9h8V190H233.06v-1.78h2.64a.45.45,0,0,0,.45-.44h0A.45.45,0,0,0,235.71,187.32Zm-2.05-7.3a10.06,10.06,0,0,0,1.5-.57,20.21,20.21,0,0,0,7.75-6.57c.67,1.1,1.33,2.16,2,3.22.78,1.27,1.55,2.55,2.34,3.82a.53.53,0,0,1,.06.53c-.48,1.3-1,2.6-1.42,3.9-.06.17-.12.27-.33.27H233.12a.36.36,0,0,1-.27-.14c-.48-1.3-.95-2.6-1.42-3.88C232.19,180.4,232.93,180.24,233.66,180Zm13.77,2.9c0,1.19,0,2.38,0,3.57a7.76,7.76,0,0,1-.81,3.44h-.08v-.34c0-1.35,0-2.71,0-4.06a2.43,2.43,0,0,1,.14-.75c.21-.63.44-1.25.67-1.87Zm4-3.51a11.3,11.3,0,0,0-3.36-7.29,12.19,12.19,0,0,0-16.67-.7.44.44,0,0,0,0,.62h0a.44.44,0,0,0,.6,0,11.34,11.34,0,0,1,13.62-.85,11.08,11.08,0,0,1,5,9.6,3.74,3.74,0,0,0-2.3-1.15c-.08,0-.16-.13-.21-.21-.39-.62-.77-1.25-1.15-1.87l-3.47-5.67c-.14-.23-.31-.41-.59-.3a.84.84,0,0,0-.37.33,19.79,19.79,0,0,1-5,5.15,13.4,13.4,0,0,1-6.44,2.54,4.37,4.37,0,0,0-1.72.35c-.42.22-.81.51-1.22.78a10.87,10.87,0,0,1,.73-4.21,11.11,11.11,0,0,1,2-3.35.44.44,0,0,0,0-.6l0,0a.44.44,0,0,0-.62,0,11.7,11.7,0,0,0-3,7.46c0,1.6,0,3.21.07,4.81A45.83,45.83,0,0,0,229,195a.53.53,0,0,0,.62.42h19.47c.44,0,.55-.08.66-.5.24-.95.48-1.89.71-2.84a1.42,1.42,0,0,1,0-.2h0v0c.05-.23.09-.47.14-.71.15-.81.38-2.07.44-2.78.12-1,.27-2.3.3-3.09A54,54,0,0,0,251.4,179.41Z"/><path class="cls-2" d="M230.78,177.41v0a.43.43,0,0,0,.53.35c3.57-1,6.51-2.72,8.33-6a.43.43,0,0,0-.19-.6l0,0a.43.43,0,0,0-.56.18c-1.71,3.11-4.48,4.71-7.77,5.6A.43.43,0,0,0,230.78,177.41Z"/><path class="cls-2" d="M397.57,117.18c.37-.36,1.26-1.25,1.64-1.64a.66.66,0,0,0,.21-.51.56.56,0,0,0-.2-.4.67.67,0,0,0-.43-.18.64.64,0,0,0-.45.21c-.76.74-1.51,1.5-2.15,2.14a.57.57,0,0,0,0,.87c.68.7,1.42,1.44,2.25,2.26a.51.51,0,0,0,.38.16.63.63,0,0,0,.43-.18.58.58,0,0,0,.1-.8S399.26,119,397.57,117.18Z"/><path class="cls-2" d="M426.84,116.8c-.63-.64-1.38-1.39-2.14-2.14a.62.62,0,0,0-.45-.2.69.69,0,0,0-.43.17.61.61,0,0,0-.21.4.7.7,0,0,0,.21.51c.38.4,1.28,1.28,1.65,1.64l-.77.84c-.94,1-1,1.07-1,1.09a.58.58,0,0,0,.1.81.63.63,0,0,0,.43.18.54.54,0,0,0,.38-.17c.83-.81,1.57-1.55,2.25-2.25A.58.58,0,0,0,426.84,116.8Z"/><path class="cls-2" d="M401.19,116.69h0a.6.6,0,0,0-.58.58.57.57,0,0,0,.54.56h0a.56.56,0,0,0,.57-.55.58.58,0,0,0-.56-.59Z"/><path class="cls-2" d="M409.44,116.69h0a.59.59,0,0,0-.39.18.67.67,0,0,0-.16.42.56.56,0,0,0,.57.54h0a.58.58,0,0,0,.54-.57A.6.6,0,0,0,409.44,116.69Z"/><path class="cls-2" d="M405.88,117.23a.59.59,0,0,0-.57-.54.57.57,0,0,0-.4.18.58.58,0,0,0-.17.4.59.59,0,0,0,.58.56h0a.65.65,0,0,0,.41-.19A.57.57,0,0,0,405.88,117.23Z"/><path class="cls-2" d="M413.57,116.69h0a.59.59,0,0,0-.57.58.55.55,0,0,0,.54.56h0a.56.56,0,0,0,.56-.55.53.53,0,0,0-.16-.41A.6.6,0,0,0,413.57,116.69Z"/><path class="cls-2" d="M421.82,116.69h0a.61.61,0,0,0-.39.18.6.6,0,0,0-.15.42.55.55,0,0,0,.56.54h0a.57.57,0,0,0,0-1.14Z"/><path class="cls-2" d="M417.69,116.69a.6.6,0,0,0-.56.48s0,.07,0,.1a.54.54,0,0,0,.05.22.55.55,0,0,0,.31.29.54.54,0,0,0,.22,0h0a.51.51,0,0,0,.31-.11l.09-.08.07-.09a.71.71,0,0,0,.08-.31.54.54,0,0,0-.19-.38A.56.56,0,0,0,417.69,116.69Z"/><path class="cls-2" d="M394.19,124.94c-.43-.72-.84-1.41-1.26-2.08a1,1,0,0,0-.36-.39.57.57,0,0,0-.82.54c0,.67,0,1.35,0,2a19.6,19.6,0,0,0,.75,6.14c.49,2,.91,4.05,1.37,6.07,0,.11,0,.22,0,.34-.44.15-.58,0-.69-.39-.66-2.17-1.34-4.34-2-6.5-.11-.35-.25-.66-.66-.65s-.52.31-.62.64c-.67,2.18-1.36,4.36-2,6.54-.12.4-.3.48-.7.36.16-.73.31-1.45.47-2.17q.82-3.61,1.64-7.25a3.81,3.81,0,0,0,.07-.75c0-1.38,0-2.75,0-4.13,0-.36,0-.73-.45-.84s-.63.2-.82.51a20,20,0,0,1-1.25,1.94l.78-3.17c.14-.53.25-1.06.42-1.58a1,1,0,0,1,.36-.52,3.51,3.51,0,0,1,4.33.09.64.64,0,0,1,.25.32c.4,1.59.8,3.18,1.19,4.77C394.23,124.82,394.21,124.85,394.19,124.94Zm-.08-5.4a1.14,1.14,0,0,0-.39-.61,4.69,4.69,0,0,0-6.18-.1,1.57,1.57,0,0,0-.54.8c-.41,1.53-.78,3.07-1.16,4.6s-.72,2.89-1.09,4.32c-.09.35-.07.67.29.83s.64,0,.83-.36l.11-.18,1.92-3.21.23-.37.14,0a19,19,0,0,1-.18,2.83c-.68,3.27-1.44,6.54-2.17,9.8-.13.58.08.87.68.88h1.47a.71.71,0,0,0,.76-.58c.13-.48.29-.94.43-1.41l1.29-4.18c.08.23.14.37.18.51q.78,2.5,1.55,5a.76.76,0,0,0,.84.64h1.35c.65,0,.88-.28.73-.91-.56-2.53-1.11-5.06-1.7-7.59a15.13,15.13,0,0,1-.59-4.73l0-.39.27.44c.68,1.13,1.37,2.26,2,3.39a.64.64,0,0,0,.8.37c.31-.1.42-.42.31-.85C395.63,125.54,394.88,122.53,394.11,119.54Z"/><path class="cls-2" d="M390.56,113.05a1.16,1.16,0,0,1,0,2.32,1.13,1.13,0,0,1-1.19-1.14A1.14,1.14,0,0,1,390.56,113.05Zm0,3.5a2.34,2.34,0,1,0-2.31-2.34A2.33,2.33,0,0,0,390.54,116.55Z"/><path class="cls-2" d="M436.06,124.94c-.43-.72-.83-1.41-1.25-2.08a1.07,1.07,0,0,0-.37-.39.56.56,0,0,0-.81.54c0,.67,0,1.35,0,2a19.89,19.89,0,0,0,.74,6.14c.49,2,.92,4.05,1.37,6.07,0,.11,0,.22,0,.34-.44.15-.59,0-.7-.39-.65-2.17-1.33-4.34-2-6.5-.1-.35-.24-.66-.65-.65s-.53.31-.63.64c-.67,2.18-1.35,4.36-2,6.54-.12.4-.31.48-.71.36l.48-2.17c.54-2.41,1.09-4.83,1.63-7.25a3.19,3.19,0,0,0,.08-.75c0-1.38,0-2.75,0-4.13,0-.36,0-.73-.45-.84s-.62.2-.81.51a20.09,20.09,0,0,1-1.26,1.94c.27-1,.53-2.11.79-3.17.13-.53.25-1.06.41-1.58a1,1,0,0,1,.37-.52,3.51,3.51,0,0,1,4.33.09.68.68,0,0,1,.24.32c.41,1.59.8,3.18,1.2,4.77C436.1,124.82,436.08,124.85,436.06,124.94Zm2.19,3.6c-.75-3-1.49-6-2.26-9a1.3,1.3,0,0,0-.4-.61,4.7,4.7,0,0,0-6.18-.09,1.57,1.57,0,0,0-.53.8c-.41,1.53-.78,3.07-1.17,4.6s-.71,2.88-1.08,4.32c-.09.35-.08.67.29.83s.64,0,.83-.36l.1-.18c.65-1.07,1.29-2.14,1.93-3.21l.23-.37.14,0a18.82,18.82,0,0,1-.18,2.82c-.68,3.28-1.44,6.54-2.18,9.81-.13.58.09.86.69.88H430a.72.72,0,0,0,.76-.59c.13-.47.28-.93.43-1.4l1.29-4.18c.08.23.14.37.18.51.52,1.67,1,3.34,1.54,5a.79.79,0,0,0,.85.64h1.35c.65,0,.87-.29.73-.91-.56-2.53-1.12-5.07-1.7-7.59a15.44,15.44,0,0,1-.6-4.73c0-.1,0-.2.05-.39.13.2.2.32.27.44l2,3.39a.64.64,0,0,0,.8.37C438.25,129.29,438.36,129,438.25,128.54Z"/><path class="cls-2" d="M432.43,113.05a1.16,1.16,0,0,1,0,2.32,1.11,1.11,0,0,1-1.18-1.14A1.14,1.14,0,0,1,432.43,113.05Zm0,3.5a2.34,2.34,0,1,0-2.3-2.34A2.32,2.32,0,0,0,432.41,116.55Z"/><path class="cls-2" d="M407.35,125.76c-.38,0-.5-.44-.5-.86h0a.71.71,0,0,1,.48-.17c.25,0,.43.15.43.52S407.59,125.76,407.35,125.76Zm.29-1.85a1.35,1.35,0,0,0-.73.18,1.07,1.07,0,0,1,.46-.62,2.63,2.63,0,0,1,1.32-.31l-.25-.88a2.46,2.46,0,0,0-2.76,2.43c0,1,.45,1.88,1.64,1.88A1.46,1.46,0,0,0,409,125.2,1.23,1.23,0,0,0,407.64,123.91Z"/><path class="cls-2" d="M411.62,123.23v.2h-.43v.82h.43v2.26h1.11v-2.26h.7v-.82h-.7v-.12c0-.31.1-.46.4-.46a1.1,1.1,0,0,1,.43.09l.25-.81a1.7,1.7,0,0,0-.92-.19A1.18,1.18,0,0,0,411.62,123.23Z"/><path class="cls-2" d="M416,125.68c-.2,0-.27-.12-.27-.42v-1h.68v-.82h-.68v-.89h-1.12v.89h-.47v.82h.47v1.26c0,.65.24,1.08,1.13,1.08a2.06,2.06,0,0,0,.87-.17l-.22-.83A1,1,0,0,1,416,125.68Z"/><path class="cls-2" d="M406.45,186.11h-6.7a.54.54,0,0,0-.61.56c0,.32.24.51.64.52h6.65c.36,0,.61-.21.62-.51A.54.54,0,0,0,406.45,186.11Z"/><path class="cls-2" d="M402.55,189h-2.83a.54.54,0,1,0,0,1.08q1.44,0,2.88,0a.54.54,0,0,0,.58-.55A.57.57,0,0,0,402.55,189Z"/><path class="cls-2" d="M396.3,171.31a.23.23,0,0,0,0-.34l-.82-.5a3.46,3.46,0,0,1-1.12-1.13l-.51-.82a.25.25,0,0,0-.34,0l-.53.85a3.36,3.36,0,0,1-1.13,1.12l-.79.48a.25.25,0,0,0,0,.34l.82.51a3.46,3.46,0,0,1,1.13,1.12l.5.82a.25.25,0,0,0,.34,0l.51-.82a3.33,3.33,0,0,1,1.12-1.12Z"/><path class="cls-2" d="M422.43,193.33h-23.9a1.94,1.94,0,0,1-2.15-2.14q0-4.12,0-8.25c0-.12,0-.25,0-.39h28.19c0,.15,0,.28,0,.42v7.65a5.36,5.36,0,0,1-.49.34l-1.05.64a.32.32,0,0,0,0,.46l1,.64A2.18,2.18,0,0,1,422.43,193.33Zm2.17-14.54v2.64H396.41v-2.64Zm-28.22-3.53a1.9,1.9,0,0,1,1.74-1.91,3,3,0,0,1,.42,0h23.9a2,2,0,0,1,2.18,2.17v1.79c0,.11,0,.22,0,.36H396.42a1.45,1.45,0,0,1,0-.29Q396.37,176.31,396.38,175.26Zm32.56,15.67a4.42,4.42,0,0,1-1.49-1.49l-.67-1.08a.31.31,0,0,0-.45,0l-.63,1q0-6.93,0-13.85a3.05,3.05,0,0,0-3.29-3.27H398.48a3,3,0,0,0-3.19,3.17v15.76a4.07,4.07,0,0,0,.07.85,3,3,0,0,0,3.15,2.41h23.9a3.23,3.23,0,0,0,2.56-1.07,4.49,4.49,0,0,1,.69.86l.67,1.08a.31.31,0,0,0,.45,0l.67-1.08a4.42,4.42,0,0,1,1.49-1.49l1.08-.67a.32.32,0,0,0,0-.46Z"/><path class="cls-2" d="M431.07,183.76a2.88,2.88,0,0,1-.95-.95l-.43-.7a.22.22,0,0,0-.3,0l-.45.72a2.94,2.94,0,0,1-1,1l-.67.4a.22.22,0,0,0,0,.3l.7.43a3,3,0,0,1,.95,1l.43.7a.22.22,0,0,0,.3,0l.43-.7a2.79,2.79,0,0,1,.95-1l.7-.43a.22.22,0,0,0,0-.3Z"/><path class="cls-2" d="M161.79,319.32h2.33a.33.33,0,0,0,.37-.23c.44-1,.9-2.11,1.34-3.14l0-.07,1-2.38a1.08,1.08,0,0,0,.09-.44c0-1.15,0-2.31,0-3.44v-.52c0-.44-.24-.73-.6-.73s-.62.29-.62.74v.95c0,.53,0,1.13,0,1.71a1.61,1.61,0,0,1-.15.67c-.46.93-1,1.9-1.38,2.75l-.76,1.53c-.07.14-.22.44-.54.44l-.16,0c-.36-.1-.41-.39-.4-.69v-3a2.61,2.61,0,0,0,0-.39.6.6,0,0,0-1.2,0,1.67,1.67,0,0,0,0,.32v.45a9.55,9.55,0,0,0,0,1.07,1.46,1.46,0,0,1-.76,1.57,2.42,2.42,0,0,0-1.09,2.15v.67Zm2.89,1.08h-5.92a.52.52,0,0,1-.58-.56c0-.36,0-.72,0-1.07v-.06a3.76,3.76,0,0,1,1.65-3.18.44.44,0,0,0,.19-.4v-.34c0-.59,0-1.2,0-1.79a1.67,1.67,0,0,1,1.69-1.54h.07a1.67,1.67,0,0,1,1.61,1.65v.64l.27.06.06-.12c.25-.5.51-1,.75-1.53a1.62,1.62,0,0,0,.15-.63c0-.44,0-.89,0-1.32v0c0-.38,0-.77,0-1.15a1.7,1.7,0,0,1,1.7-1.74h0a1.67,1.67,0,0,1,1.67,1.76v4.16a1,1,0,0,1-.06.42c-.7,1.64-1.43,3.34-2.08,4.84l-.65,1.53a.59.59,0,0,1-.59.39Z"/><path class="cls-2" d="M152,304.91a.38.38,0,0,1-.34-.2l-.15-.3a.38.38,0,0,1,.17-.5l1.54-.78-.83-.42-.71-.35a.36.36,0,0,1-.16-.5l.14-.3a.4.4,0,0,1,.34-.2.35.35,0,0,1,.17,0l.54.27,1.93,1a.59.59,0,0,1,.35.51.53.53,0,0,1-.31.47c-.64.34-1.28.65-2,1l-.56.28A.45.45,0,0,1,152,304.91Z"/><path class="cls-2" d="M146.3,308l-.24,0a5.69,5.69,0,0,1-.94-.1,2.11,2.11,0,0,1-1.2-.5l-.09-.07h0a2.88,2.88,0,0,1,2.11-5h.22a.37.37,0,0,1,.36.37V303a.37.37,0,0,1-.37.37l-.56,0a1.77,1.77,0,0,0-1.18,2.94,2,2,0,0,0,1.41.59h.52a.38.38,0,0,1,.37.37v.35a.37.37,0,0,1-.37.37Z"/><path class="cls-2" d="M146.66,305.72c-.29,0-.64-.06-.69-.33v-.1l-.1,0a1.1,1.1,0,0,0-.28,0h-.08a.3.3,0,0,1-.21-.08.32.32,0,0,1-.08-.2v-.51a.28.28,0,0,1,.26-.28h.15a1.61,1.61,0,0,1,1.16.43,1.42,1.42,0,0,1,.38,1v.08h-.49Z"/><path class="cls-2" d="M164.6,292.65a1.37,1.37,0,0,0-1.32.94,9.18,9.18,0,0,0-.29,1v0c0,.16-.08.33-.13.51l-.23.86.86-.23.51-.13a8.67,8.67,0,0,0,1.09-.3,1.38,1.38,0,0,0,.92-1.54,1.31,1.31,0,0,0-1.19-1.17Zm-2.33,4.74a1,1,0,0,1-.79-.37,1,1,0,0,1-.19-.83,25.22,25.22,0,0,1,.84-3.17,2.63,2.63,0,0,1,2.52-1.65,2.76,2.76,0,0,1,.57.06,2.64,2.64,0,0,1,2.07,2.52,2.8,2.8,0,0,1-2,2.7c-1,.28-1.94.51-2.79.71Z"/><path class="cls-2" d="M166.85,300.57a2.49,2.49,0,0,0-1.5.62,3.22,3.22,0,0,1-.36.24l-.67.43.66.44.31.22a3.41,3.41,0,0,0,.78.46,2.22,2.22,0,0,0,.82.16,2,2,0,0,0,.36,0,1.19,1.19,0,0,0,1-1.4,1.26,1.26,0,0,0-1.14-1.12Zm0,3.91a2.88,2.88,0,0,1-1.46-.39c-.61-.35-1.2-.75-1.76-1.14l-.24-.17a1.14,1.14,0,0,1-.56-.91,1.18,1.18,0,0,1,.56-.93l.25-.17a13.81,13.81,0,0,1,1.42-.92,7.28,7.28,0,0,1,1.16-.48l.5-.19.05,0h0a3,3,0,0,1,2.37,1.35,2.55,2.55,0,0,1,.17,2.38A2.71,2.71,0,0,1,166.85,304.48Z"/><path class="cls-2" d="M157.94,288.25a1.34,1.34,0,0,0-.82.3,1.63,1.63,0,0,0-.28,2c.14.24.29.46.46.7l.22.33.43.64.43-.64c.08-.13.16-.24.24-.35h0a6.86,6.86,0,0,0,.45-.7,1.62,1.62,0,0,0-.34-2A1.32,1.32,0,0,0,157.94,288.25Zm0,5.45a1.14,1.14,0,0,1-.92-.57l-.26-.36a7.66,7.66,0,0,1-.82-1.27,3.43,3.43,0,0,1,0-3.34,2.58,2.58,0,0,1,2.15-1.17,2.31,2.31,0,0,1,.95.2,2.64,2.64,0,0,1,1.4,1.61,3,3,0,0,1-.28,2.39c-.38.64-.81,1.26-1.23,1.87l0,.07A1.14,1.14,0,0,1,158,293.7Z"/><path class="cls-2" d="M140.81,320.4c-.54,0-.72-.18-.72-.71V314a.13.13,0,0,1,0-.06.36.36,0,0,1,.37-.37h.34a.38.38,0,0,1,.38.38v5.33H154.6a1.26,1.26,0,0,0,1.23-1.09,9.5,9.5,0,0,0,0-1.07v-.43h-2.16a2.85,2.85,0,0,1-.39-5.68,9.57,9.57,0,0,1,1,0h1.57v-1.6c0-.53.19-.71.72-.72h2.77l-2.6-7.53c-1.79-4.7-4.33-4.84-4.61-4.84h-5.92a5.25,5.25,0,0,0-3.87,1.4c-1.14,1.14-1.07,3.48-1.07,3.51v11.05a.37.37,0,0,1-.37.37h-.46a.37.37,0,0,1-.37-.37V301.14a6,6,0,0,1,1.37-4.24,6.12,6.12,0,0,1,4.77-1.8h5.9a4.76,4.76,0,0,1,2,.5c.85.41,2.15,1.39,3.65,5.14l-.08,0,.1.27.08,0,.18.55,2.55,7.37a.63.63,0,0,1,0,.6.67.67,0,0,1-.58.23h-3v1.09c0,.6,0,.9-.16,1.07s-.42.16-.79.16h-2.35a1.67,1.67,0,0,0-.32,0,1.77,1.77,0,0,0,.27,3.51h2.63c.53,0,.72.18.72.71V318a2.38,2.38,0,0,1-2.4,2.38H140.81Z"/><path class="cls-2" d="M331.77,305.38a.59.59,0,0,0-.33-.29.54.54,0,0,0-.45,0,.6.6,0,0,0-.27.79l.41.86-1.56.76-.41-.87a.58.58,0,0,0-.34-.29.58.58,0,0,0-.45,0,.59.59,0,0,0-.3.34.59.59,0,0,0,0,.45l.42.86-1.56.76-.42-.86a.56.56,0,0,0-.34-.3.59.59,0,0,0-.45,0,.6.6,0,0,0-.27.79l.42.86-1.56.76-.42-.86a.56.56,0,0,0-.34-.3.61.61,0,0,0-.44,0,.59.59,0,0,0-.3.34.63.63,0,0,0,0,.45l.42.86-1.56.76-.42-.86a.55.55,0,0,0-.33-.3.63.63,0,0,0-.45,0,.6.6,0,0,0-.27.79l.41.86-1.56.76-.41-.86a.59.59,0,0,0-.34-.3.63.63,0,0,0-.45,0,.6.6,0,0,0-.27.79l.42.86-1.56.76-.42-.86a.59.59,0,0,0-.79-.27.58.58,0,0,0-.27.78l.42.86-.38.19v0l-.09.05-.82.36a2.9,2.9,0,0,1-2.06-.08l-.19-.06-.56-.21c-.52-.2-1.05-.4-1.56-.63-.09,0-.17-.06-.24-.1a1.62,1.62,0,0,0-1.57.28l-.6-1.24a2.15,2.15,0,0,0,1.4-1.82,15,15,0,0,1,.43-1.45c0-.12.08-.25.13-.38a3.22,3.22,0,0,1,1.74-2l14.08-6.83,7.5-3.63a1.24,1.24,0,0,1,.95-.13,1.19,1.19,0,0,1,.64.65c.85,1.72,1.73,3.53,2.61,5.38a1.19,1.19,0,0,1,.11.92,1.24,1.24,0,0,1-.68.65l-1.46.72-.42-.86a.6.6,0,0,0-.33-.3.59.59,0,0,0-.72.81l.41.86-1.56.76Zm-25.17,9.45a7.41,7.41,0,0,1-.87.4.67.67,0,0,1-.46,0,.66.66,0,0,1-.36-.34.7.7,0,0,1,.24-.93,7.31,7.31,0,0,1,.84-.42l.3-.14.61,1.26Zm30.06-9.51a2.22,2.22,0,0,0,1.12-3.28c-.19-.39-.37-.77-.56-1.15-.64-1.33-1.31-2.7-2-4.05a2.3,2.3,0,0,0-1.3-1.25,2.34,2.34,0,0,0-1.79.18l-5.86,2.84-15.63,7.58a4.45,4.45,0,0,0-2.44,2.81c-.05.18-.11.36-.17.54-.17.54-.35,1.09-.5,1.64a.83.83,0,0,1-.52.62c-.66.3-1.35.63-2.24,1.09a2,2,0,0,0-1,1.07,1.67,1.67,0,0,0,.05,1.37,1.82,1.82,0,0,0,1,.95,2,2,0,0,0,1.51-.12c.72-.34,1.47-.69,2.19-1.07a.87.87,0,0,1,.73-.08l.08,0c.58.25,1.18.47,1.75.69l.38.14.14.05a4.52,4.52,0,0,0,3.62-.24l7.56-3.67,3-1.45,3.09-1.5Z"/><path class="cls-2" d="M332.6,302.3c-.6.31-1.21.61-1.86.92l-.72.34-.7-1.43.73-.36c.65-.32,1.33-.65,2-.95a.63.63,0,0,1,.45,0,.82.82,0,0,1,.48.47A.76.76,0,0,1,332.6,302.3Zm-3.67,1.77a2,2,0,0,1-.25.14l-14.27,6.93a1.14,1.14,0,0,1-.86.12.67.67,0,0,1-.33-.25.83.83,0,0,1-.15-.62.78.78,0,0,1,.34-.53,1.83,1.83,0,0,1,.24-.13l.06,0,12.6-6.12,2-1,.69,1.43Zm5.25-2.59a1.9,1.9,0,0,0-.9-1.52,2.42,2.42,0,0,0-.4-.19,2.13,2.13,0,0,0-1.68.19l-10.19,5-7.72,3.75a3.34,3.34,0,0,0-.71.45,1.79,1.79,0,0,0-.63,1.26,1.92,1.92,0,0,0,.44,1.39,2,2,0,0,0,.82.56,2.14,2.14,0,0,0,1.66-.16l6.47-3.14,2.51-1.22,1.84-.89,6.92-3.36a4.25,4.25,0,0,0,.8-.46A1.88,1.88,0,0,0,334.18,301.48Z"/><path class="cls-2" d="M320.08,298.56a.44.44,0,0,1-.39-.25l-1.9-3.93a.44.44,0,0,1,.21-.58.43.43,0,0,1,.58.2l1.9,3.93a.44.44,0,0,1-.21.58A.41.41,0,0,1,320.08,298.56Z"/><path class="cls-2" d="M315.61,301.12a.46.46,0,0,1-.19,0l-3.12-1.51a.44.44,0,1,1,.37-.79l3.13,1.51a.44.44,0,0,1-.19.83Z"/><path class="cls-2" d="M324.87,296.65h-.1a.43.43,0,0,1-.32-.52l.76-3.39a.43.43,0,0,1,.52-.33.44.44,0,0,1,.33.52l-.77,3.39A.43.43,0,0,1,324.87,296.65Z"/><path class="cls-2" d="M329.46,318a.42.42,0,0,1-.39-.25l-1.9-3.93a.43.43,0,0,1,.78-.38l1.9,3.93a.45.45,0,0,1-.2.59A.65.65,0,0,1,329.46,318Z"/><path class="cls-2" d="M322,319.33h-.09a.42.42,0,0,1-.33-.52l.76-3.39a.44.44,0,0,1,.52-.33.45.45,0,0,1,.33.52l-.76,3.39A.44.44,0,0,1,322,319.33Z"/><path class="cls-2" d="M335.16,313a.41.41,0,0,1-.19,0l-3.13-1.51a.43.43,0,0,1,.38-.78l3.13,1.51a.44.44,0,0,1,.2.58A.43.43,0,0,1,335.16,313Z"/><path class="cls-2" d="M505,242.83a.46.46,0,1,1-.44-.64l-.17.21-.09.1.47.43.09-.1.17-.21A.39.39,0,0,1,505,242.83Zm-3.86,7.4a11.93,11.93,0,0,1-7.91-1.58l-.23-.15,6-8.11H505a2.56,2.56,0,0,1-.24,1.45l-.58-.25h0l-1.49.58h0l-1.84,4.21a.22.22,0,0,0,.11.27l1.45.63.21.09,1.45.64a.22.22,0,0,0,.27-.11l1.83-4.21-.58-1.49-.25-.1a3.15,3.15,0,0,0,.3-1.71h1a1.35,1.35,0,0,0,1.35-1.09,1.31,1.31,0,0,0-.77-1.56l-2.43-1.1-1.67-.76-.67-.3,4.51-6.11.2.18a11.85,11.85,0,0,1-6.09,20.59Zm4.38-10.64h-6l2.48-3.36,3.25,1.46,1.72.78a.48.48,0,0,1,.28.38.63.63,0,0,1-.13.53.66.66,0,0,1-.52.21Zm-14,7.77a11.85,11.85,0,0,1,14-19l.24.14L501,234.89l-.79-.35v0a.41.41,0,0,1,0-.12.65.65,0,0,0-.08-.31.31.31,0,0,0-.26-.15.65.65,0,0,0-.28.08l-.76.34-.8.37a.44.44,0,0,0-.27.26.33.33,0,0,0,0,.29.35.35,0,0,0,.33.23.57.57,0,0,0,.24-.06l.34-.15.56-.25.09,0,.08,0,1.11.5-3,4H492a.77.77,0,0,1-.43-.15.54.54,0,0,1-.2-.51.58.58,0,0,1,.36-.48c1.35-.6,2.72-1.23,4-1.83l1.38-.64c.4-.18.34-.44.29-.55a.36.36,0,0,0-.35-.23.65.65,0,0,0-.26.06l-.48.22-5,2.28a1.27,1.27,0,0,0-.79,1.18,1.39,1.39,0,0,0,.65,1.24,1.66,1.66,0,0,0,.94.21h4.76l-5.27,7.16Zm16.61-19.1a13.45,13.45,0,0,0-8.72-3.23,12.66,12.66,0,0,0-2,.16A13.48,13.48,0,0,0,486,240.52,13.49,13.49,0,0,0,499.29,252h0a13.88,13.88,0,0,0,2-.16,13.46,13.46,0,0,0,6.72-23.56Z"/><path class="cls-2" d="M497.54,231.22h.08a.38.38,0,0,0,.33-.46s0-.08,0-.11a1.25,1.25,0,0,1,.79-1.34,1.29,1.29,0,0,1,.43-.07,1.25,1.25,0,0,1,1.05.56,1.21,1.21,0,0,1-.17,1.54,2.72,2.72,0,0,1-.57.35c-.3.15-.61.28-.91.42l-.59.27a.45.45,0,0,0-.25.24.41.41,0,0,0,.37.53.71.71,0,0,0,.2,0l.05,0,.51-.23,1.15-.53a2,2,0,0,0,1.2-1.75,2.07,2.07,0,0,0-1.19-2,2.19,2.19,0,0,0-.85-.18,2,2,0,0,0-1.38.55,2,2,0,0,0-.6,1.89A.37.37,0,0,0,497.54,231.22Z"/><path class="cls-2" d="M499.81,232.75h-.11l-.16.06-1.54.71h0a.4.4,0,0,0-.25.51c.19.39.73.14.73.14l1.53-.7a.36.36,0,0,0,.18-.5A.37.37,0,0,0,499.81,232.75Z"/><path class="cls-2" d="M151.92,255.3a12,12,0,0,1-11.23-7.73h22.46A12.07,12.07,0,0,1,151.92,255.3Zm0-24.05A12.06,12.06,0,0,1,163.15,239H140.69A12,12,0,0,1,151.92,231.25Zm13.2,9.31a14.33,14.33,0,0,0-.43-1.59c-.11-.32-.23-.63-.36-.94a14.05,14.05,0,0,0-1.24-2.29,13.62,13.62,0,0,0-1.65-2,14.29,14.29,0,0,0-2-1.65,14.05,14.05,0,0,0-2.29-1.24,13.44,13.44,0,0,0-8-.78,13.44,13.44,0,0,0-2.53.78,14.38,14.38,0,0,0-2.28,1.24,13.19,13.19,0,0,0-2,1.65,13.55,13.55,0,0,0-1.64,2,12.68,12.68,0,0,0-1.24,2.29,8.26,8.26,0,0,0-.36.94,12.44,12.44,0,0,0-.43,1.59,13.79,13.79,0,0,0,0,5.43,12.75,12.75,0,0,0,.43,1.58,8.41,8.41,0,0,0,.36,1,12.68,12.68,0,0,0,1.24,2.29,13.55,13.55,0,0,0,1.64,2,13.13,13.13,0,0,0,2,1.64,13.67,13.67,0,0,0,2.28,1.25,14.22,14.22,0,0,0,2.53.78,13.57,13.57,0,0,0,8-.78,13.38,13.38,0,0,0,2.29-1.25,13.66,13.66,0,0,0,3.64-3.63,14.05,14.05,0,0,0,1.24-2.29c.13-.31.25-.63.36-1a14.78,14.78,0,0,0,.43-1.58,13.79,13.79,0,0,0,0-5.43Z"/><circle class="cls-2" cx="236.55" cy="257.66" r="1.36"/><path class="cls-2" d="M233.81,228.3a.59.59,0,1,0-.58-.59A.58.58,0,0,0,233.81,228.3Z"/><path class="cls-2" d="M235.31,228.3h4a.59.59,0,0,0,0-1.18h-4a.59.59,0,1,0,0,1.18Z"/><path class="cls-2" d="M251.1,247H240.64c0-.38,0-.78.05-1.19l-.86,0c0,.36,0,.76,0,1.14l-4.32,0c0-.48,0-1,0-1.45a2.66,2.66,0,0,0,.18-5.2c-.17,0-.24-.1-.23-.29,0-.4,0-.81,0-1.19h4.3c0,.37,0,.76,0,1.16h.82c0-.39,0-.79,0-1.17H251v1.49a2.79,2.79,0,0,0-1.25.6,2.61,2.61,0,0,0,.14,4.12,4.22,4.22,0,0,0,1,.47c.14.05.2.09.2.25C251.09,246.23,251.1,246.64,251.1,247Zm-14.88-5.52a1.78,1.78,0,0,1,.73,1.37,1.82,1.82,0,0,1-.39,1.25,2,2,0,0,1-1.8.69c0,1,0,2.06,0,3.1l9.33,0v6.85H229V230.27h15.05v7.82l-9.33,0c0,1,0,2,0,3A2.12,2.12,0,0,1,236.22,241.51Zm9.1,16.48a2,2,0,0,1-2,2H229.79a2,2,0,0,1-2-2V228a2,2,0,0,1,2-2h13.53a2,2,0,0,1,2,2v10.09h-.51v-8.56H228.3v25.95h16.51v-7.59h.51Zm4.35-14.93a1.8,1.8,0,0,1,.42-1.24,2,2,0,0,1,1.8-.67v-3.09l-5.6,0V228a3,3,0,0,0-3-3H229.79a3,3,0,0,0-3,3v30a3,3,0,0,0,3,3h13.53a3,3,0,0,0,3-3v-10.1l5.56,0c0-1,0-2,0-3A1.91,1.91,0,0,1,249.67,243.06Z"/><path class="cls-2" d="M239.86,245h.75c0-.53,0-1.06,0-1.59l-.76,0Z"/><path class="cls-2" d="M240.61,241h-.75v1.61h.74C240.6,242,240.61,241.48,240.61,241Z"/><path class="cls-2" d="M318.27,241.87a3.66,3.66,0,0,1-4,3.37,3.72,3.72,0,0,1-3.66-4.13,9,9,0,0,1,1.22-3.87c.8-1.58,1.67-3.14,2.51-4.7l.17-.24c1.13,2.22,2.23,4.34,3.28,6.5A5.45,5.45,0,0,1,318.27,241.87Zm1-3.34c-1.33-2.77-2.75-5.49-4.17-8.21a.75.75,0,0,0-1.38,0c-1.3,2.46-2.6,4.93-3.86,7.41a7.33,7.33,0,0,0-.81,3.45,5.37,5.37,0,0,0,2.42,4.7,5.1,5.1,0,0,0,5.56.2A5.78,5.78,0,0,0,319.31,238.53Z"/><path class="cls-2" d="M316.31,240h-.11a.74.74,0,0,0-.62.84,1.31,1.31,0,0,1-.53,1.47.76.76,0,0,0-.35.74.74.74,0,0,0,.74.64.77.77,0,0,0,.36-.09,2.43,2.43,0,0,0,.78-.68,3,3,0,0,0,.45-2.3A.73.73,0,0,0,316.31,240Z"/><path class="cls-2" d="M326.37,261.19a5.23,5.23,0,0,1-5.92-4.13A6.71,6.71,0,0,1,321,253c.78-1.78,1.66-3.52,2.55-5.26.69-1.35,1.44-2.67,2.21-4.09l.1.16c1.41,2.67,2.84,5.32,4.2,8a9.19,9.19,0,0,1,1.08,4.05A5.13,5.13,0,0,1,326.37,261.19Zm6.21-6.32a16.22,16.22,0,0,0-1.86-5.25c-1.36-2.58-2.77-5.13-4.16-7.69-.19-.34-.39-.65-.83-.65s-.64.32-.82.66c-1.38,2.53-2.78,5.05-4.12,7.61a17.1,17.1,0,0,0-1.88,5.19,6.91,6.91,0,1,0,13.67.13Z"/><path class="cls-2" d="M328.58,254.18a.85.85,0,0,0-.7.95,2.23,2.23,0,0,1-.9,2.45.85.85,0,0,0,.84,1.47,3.38,3.38,0,0,0,1.08-.93,4.21,4.21,0,0,0,.63-3.24A.83.83,0,0,0,328.58,254.18Z"/><circle class="cls-2" cx="328.03" cy="252.35" r="0.88"/><path class="cls-2" d="M325.81,233.65a.34.34,0,0,0-.35.35v3.39a.34.34,0,0,0,.35.35.35.35,0,0,0,.35-.35V234A.35.35,0,0,0,325.81,233.65Z"/><path class="cls-2" d="M322.84,240a.35.35,0,0,0,.35-.35v-1.67a.35.35,0,1,0-.7,0v1.67A.35.35,0,0,0,322.84,240Z"/><path class="cls-2" d="M328.77,240.19a.34.34,0,0,0,.35-.35V227.18a.35.35,0,0,0-.35-.35.35.35,0,0,0-.35.35v12.66A.35.35,0,0,0,328.77,240.19Z"/><path class="cls-2" d="M314.27,251.67a.34.34,0,0,0-.35.35v9.21a.35.35,0,0,0,.35.35.35.35,0,0,0,.35-.35V252A.35.35,0,0,0,314.27,251.67Z"/><path class="cls-2" d="M331.74,244.36a.35.35,0,0,0,.35-.35v-4.39a.35.35,0,0,0-.7,0V244A.35.35,0,0,0,331.74,244.36Z"/><path class="cls-2" d="M311.3,249.52a.35.35,0,0,0-.35.35v4.3a.35.35,0,0,0,.7,0v-4.3A.35.35,0,0,0,311.3,249.52Z"/><path class="cls-2" d="M317.08,249a.35.35,0,0,0-.35.35v2.41a.35.35,0,0,0,.35.35.35.35,0,0,0,.35-.35V249.3A.34.34,0,0,0,317.08,249Z"/><path class="cls-2" d="M325.72,232.65a.35.35,0,0,0,.35-.35v-.53a.34.34,0,0,0-.35-.35.35.35,0,0,0-.35.35v.53A.35.35,0,0,0,325.72,232.65Z"/><path class="cls-2" d="M314.27,250a.34.34,0,0,0-.35.35v.33a.34.34,0,0,0,.35.35.35.35,0,0,0,.35-.35v-.33A.35.35,0,0,0,314.27,250Z"/><path class="cls-2" d="M319,124.28v-.18l-.06,0a.49.49,0,0,1-.1.15l-1.54,1.58a1.5,1.5,0,0,1-1.61.47,1.65,1.65,0,0,1-1.18-1.34,1.42,1.42,0,0,1,.49-1.32l2.18-2.18c.82-.82,1.65-1.62,2.46-2.46a1.54,1.54,0,0,1,2.29,0q2.32,2.34,4.65,4.65a1.44,1.44,0,0,1,.43,1.58,1.66,1.66,0,0,1-1.41,1.14,1.41,1.41,0,0,1-1.24-.49l-1.62-1.62-.17-.15v14.76a13.53,13.53,0,1,0-3.57,0Z"/><path class="cls-2" d="M422.43,249.75h-5.71V239.9a2.86,2.86,0,1,1,5.71,0Zm-8.05,0h-5.69V239.9a2.85,2.85,0,1,1,5.69,0Zm-8,0h-5.71V239.9a2.86,2.86,0,1,1,5.71,0Zm5.18-20.95a2.28,2.28,0,0,1,1.24.37,2.13,2.13,0,0,1,.81,1,2.21,2.21,0,0,1-.47,2.41,2.19,2.19,0,0,1-2.41.48,2.18,2.18,0,0,1-1-.81,2.15,2.15,0,0,1-.38-1.23,2.25,2.25,0,0,1,.65-1.56A2.2,2.2,0,0,1,411.53,228.8Zm15.84,4.3-.15-.15V227l1.08-1-1.49-1H396.26l-1.5,1,1.09,1V233l-.15.15H395v.66l1,.91V252l15.61-.17,15.62.17V234.67l1-.91v-.66Z"/><path class="cls-2" d="M504.8,301.14l-.08-.27,0-.09,0-.12a.73.73,0,0,0-.68-.56h-.09a.74.74,0,0,0-.64.73h0a5.21,5.21,0,0,0,0,.79.73.73,0,0,1-.59.86l-.27.08V300.9c0-.87,0-1.77,0-2.65a.78.78,0,0,0-.61-.81l-.18,0a.76.76,0,0,0-.7.44,1.57,1.57,0,0,0-.1.57c0,1.47,0,3.17,0,4.83a.79.79,0,0,1-.6.86l-.26.08v-.28s0-.07,0-.1V297c0-.57-.31-.94-.8-.94h0a.79.79,0,0,0-.78.85V303c0,.19,0,.38,0,.57,0,.45,0,.91,0,1.36s-.27.63-.58.75l-.29.1v-7.42c0-.54-.27-.88-.73-.91h-.07a.79.79,0,0,0-.79.88V305c0,.16,0,.31,0,.46,0,.34,0,.69,0,1a.75.75,0,0,1-.59.87l-.18.05-.07-.18c-.08-.18-.15-.36-.23-.55-.17-.4-.34-.83-.51-1.24a1,1,0,0,0-.89-.59h-.08a.9.9,0,0,0-.81.72,1.14,1.14,0,0,0,.06.57c.2.54.41,1.07.63,1.62l.25.64.07.16-4.43,2.91-.12-.19a11.41,11.41,0,0,1,3.18-14.35,11.62,11.62,0,0,1,16.1,1.7l.14.18Zm-1.57,4.26a.45.45,0,0,1-.22.28l-.06.06-.16.15-.14-.16-.06-.06a.55.55,0,0,1-.19-.25c-.14-.5.27-.69.54-.82l.31-.14V305A1.54,1.54,0,0,1,503.23,305.4Zm9.52,2.33a15.13,15.13,0,0,0,.1-1.67,13.5,13.5,0,0,0-13.49-13.49h0a13.47,13.47,0,1,0,0,26.94h0A13.54,13.54,0,0,0,511,312.85a.62.62,0,0,0-.28-.88l-.57-.25a.61.61,0,0,0-.78.25,11.73,11.73,0,0,1-3.5,3.7,11.67,11.67,0,0,1-15.69-2.46l-.13-.18,4.17-2.74.3.75c.16.39.31.77.47,1.14l.08.2c.15.36.3.74.46,1.1a3.41,3.41,0,0,0,2.71,2.12,10.16,10.16,0,0,0,1.63.14,8.47,8.47,0,0,0,1.68-.17,3.47,3.47,0,0,0,3-3.14,19.34,19.34,0,0,0,.16-2.54c0-1.8,0-3.63,0-5.4v-.65a.7.7,0,0,1,.34-.65l2.86-1.86,1.05-.7.22-.13.11-.07.19-.12.11.2a11.41,11.41,0,0,1,1.36,6.87.61.61,0,0,0,.41.66l.59.2A.62.62,0,0,0,512.75,307.73Z"/><path class="cls-2" d="M511.76,309.57l-.58-.2a.62.62,0,0,0-.78.39h0a.62.62,0,0,0,.34.76l.56.25a.62.62,0,0,0,.83-.36l0-.06A.62.62,0,0,0,511.76,309.57Z"/><line class="cls-3" x1="58.04" y1="385.36" x2="591.96" y2="385.36"/></g></svg>