<svg xmlns="http://www.w3.org/2000/svg" viewBox="0 0 650 230"><defs><style>.cls-1{fill:#c6802d;}.cls-2{fill:#465249;}</style></defs><g id="ARTWORK"><rect class="cls-1" width="650" height="230"/><path class="cls-2" d="M46.3,94.4h14c5.95,0,9.75,2.94,9.75,9.53C70,108,69,110.3,65.2,111.8c3.48.8,6.21,3.53,6.21,8.88,0,7.55-3.75,10.92-11.67,10.92H46.3Zm11.83,14.88c2.84,0,3.8-1.5,3.8-4.28s-1.17-4-3.9-4H54.17v8.3Zm.22,15.79c3.1,0,4.44-1.5,4.44-4.82,0-2.94-1-4.65-4.44-4.65H54.17v9.47Z"/><path class="cls-2" d="M78.48,94.4H86.4v30.35H97.81v6.85H78.48Z"/><path class="cls-2" d="M112.64,94.4h8.29L131,131.6h-8.51l-1.72-7.54h-8.72l-1.82,7.54H102Zm.91,23.61h5.83l-1.44-6.27A58.79,58.79,0,0,1,116.6,104h-.06a64.47,64.47,0,0,1-1.44,7.76Z"/><path class="cls-2" d="M135.66,113.08c0-14.4,5.3-19.38,14.77-19.38,4.23,0,7.55,1.18,9.59,2.89l-3.16,6.1a9.08,9.08,0,0,0-6-2.19c-5.19,0-6.37,2.35-6.37,12.1,0,10.38,1.88,12.9,6.43,12.9a8.29,8.29,0,0,0,6.21-2.62l3.48,5.83c-2.25,2-5.14,3.59-10,3.59C140.37,132.3,135.66,126.52,135.66,113.08Z"/><path class="cls-2" d="M167,94.4h8v16.65l8.73-16.65h8.57l-9.64,17,10.6,20.23h-9l-9.21-19.48V131.6h-8Z"/><path class="cls-2" d="M212.17,94.4h8v14.13h8.88V94.4h8v37.2h-8V115.38H220.2V131.6h-8Z"/><path class="cls-2" d="M244.72,127.21l3.59-.8V99.64l-3.59-.8V94.4h15.36v4.44l-3.58.8v26.77l3.58.8v4.39H244.72Z"/><path class="cls-2" d="M265.65,128.87l2.68-6.21a14.63,14.63,0,0,0,8.51,2.84c3.75,0,5.35-1.66,5.35-4.39,0-2.94-1.55-3.75-5-4.82-6.16-1.92-10.07-4.28-10.07-11.67,0-7.55,4.82-10.92,11.78-10.92A17.91,17.91,0,0,1,289,96.27l-2.83,6a11,11,0,0,0-6.59-1.82c-2.78,0-4.28,1.23-4.28,3.53,0,2.52.86,3.43,4.23,4.5,6,1.82,11.08,3.8,11.08,12,0,7.07-3.32,11.83-13,11.83C272.67,132.3,268.11,130.75,265.65,128.87Z"/><path class="cls-2" d="M304,101.25h-8V94.4h24v6.85h-8V131.6H304Z"/><path class="cls-2" d="M325.46,113.08c0-13.54,5-19.38,14.77-19.38S354.9,99.48,354.9,113c0,13.66-4.82,19.33-14.67,19.33S325.46,126.63,325.46,113.08Zm20.77-.16c0-9.64-1.45-12.69-6.05-12.69s-6.05,3-6.05,12.69,1.44,12.9,6.05,12.9S346.23,122.66,346.23,112.92Z"/><path class="cls-2" d="M362.5,94.4h11.68c9.53,0,13.06,3.8,13.06,10.65,0,6.1-2.36,8.51-6.59,9.69,2.41.75,3.75,3.05,4.82,6.75l2.95,10.11h-8.57L377,121c-1-3.74-1.93-4.55-4.76-4.55h-1.66V131.6h-8Zm12,16.11c3.26,0,4.28-1.55,4.28-5,0-3.16-1.23-4.34-4.34-4.34h-3.9v9.37Z"/><path class="cls-2" d="M401.8,115.81,391.9,94.4h8.83l3.38,8.24a34,34,0,0,1,2,6.59A38,38,0,0,1,408,102.8l3.48-8.4H420l-10.18,21.25V131.6h-8Z"/><path class="cls-2" d="M439.17,94.4h10.66l4.07,15.95a54.86,54.86,0,0,1,1.33,8.51h.06a62.5,62.5,0,0,1,1.28-8.51l3.7-15.95h11.24v37.2H463.8V115.38c0-6.1.32-11.35.54-14h-.11a105,105,0,0,1-2.57,12.79l-3.16,11.3h-7.28l-3.05-10.76a129.49,129.49,0,0,1-2.57-13.33h-.06c.22,2.78.59,8.94.59,14.18V131.6h-7Z"/><path class="cls-2" d="M479.11,113.08c0-13.54,5-19.38,14.78-19.38s14.67,5.78,14.67,19.27c0,13.66-4.82,19.33-14.67,19.33S479.11,126.63,479.11,113.08Zm20.78-.16c0-9.64-1.45-12.69-6.05-12.69s-6,3-6,12.69,1.44,12.9,6,12.9S499.89,122.66,499.89,112.92Z"/><path class="cls-2" d="M516.16,94.4h7.61l7.71,16.49a63.9,63.9,0,0,1,3.21,8.61h0a93.34,93.34,0,0,1-.75-9.9V94.4h7.23v37.2h-8l-7.18-16a85.32,85.32,0,0,1-3.42-8.89h-.06a84.68,84.68,0,0,1,.91,10.87v14h-7.28Z"/><path class="cls-2" d="M556.05,101.25h-8V94.4h24v6.85h-8V131.6h-7.92Z"/><path class="cls-2" d="M578.75,94.4h8v14.13h8.89V94.4h8v37.2h-8V115.38h-8.89V131.6h-8Z"/></g></svg>